<svg xmlns="http://www.w3.org/2000/svg" viewBox="0 0 512 512" class="icon icon-xxxlg align-middle" style="margin-right: 15px;"><path fill="#E8F4FF" d="M256 2C115.7 2 2 115.7 2 256s113.7 254 254 254 254-113.7 254-254S396.3 2 256 2zm119.4 382.9l-.5.4c-1.5 1.5-3.1 3-4.6 4.4-6.7 6.7-17.1 10.2-30.1 10.2-18.1 0-41.7-7.1-66.4-19.9-27.6-14.4-55.7-35.4-81.1-60.8-33.3-33.3-58.7-70.5-71.7-104.8-12.5-33.1-12-59.6 1.2-72.8 1.6-1.6 3.3-3.4 5-5.1 10.4-10.9 23.3-24.5 40.8-24.5 12.9 0 25.2 7.4 37.4 22.5 14.9 18.6 20.9 32 19.8 44.7-1.1 13.2-9.4 22.4-19.4 32.2l-2.9 2.9-.3.3c-.1.4-.2 2 1.2 5.7 3 7.7 12.2 22.4 38.8 49 37 37 50.8 39.9 54.1 39.9.6 0 .9-.1.9-.2l3-3c9.4-9.5 19.1-19.4 34.4-19.4 12.2 0 25.3 6.2 42.4 20 14.6 11.8 22 23.6 22.5 36 .8 18.2-13.2 31.6-24.5 42.3z"></path><path fill="#E8F4FF" d="M364.9 322.3c-13-10.5-22.8-15.5-29.9-15.5-6.6 0-11.7 4.9-20.2 13.4l-3.1 3.1c-3.9 3.9-9.3 6-15.1 6-9.7 0-27.3-4.7-68.3-45.8-23.6-23.6-37.8-41.9-43.3-55.8-4.5-11.4-3.3-20.7 3.5-27.5l3-3c8.8-8.7 13-13.8 13.5-19.6.6-7-4.4-16.7-15.5-30.5-8-10-15.4-15.1-21.8-15.1-8.9 0-18.1 9.7-26.3 18.3-1.7 1.8-3.6 3.7-5.3 5.5-5.8 5.8-7 24 3.4 51.6 11.9 31.7 35.8 66.4 67.1 97.7 36.1 36 93.2 74.9 133.3 74.9 7.4 0 13.2-1.6 15.9-4.3 1.6-1.6 3.3-3.2 4.9-4.8l.5-.4c8.8-8.4 18.8-17.9 18.4-26.9.1-6.3-4.9-13.5-14.7-21.3z"></path><path fill="#3082C9" d="M377.5 306.7c-17.2-13.8-30.2-20-42.4-20-15.3 0-25 9.9-34.4 19.4l-3 3c-.1.1-.3.2-.9.2-3.3 0-17.1-2.9-54.1-39.9-26.6-26.6-35.8-41.3-38.8-49-1.5-3.7-1.3-5.4-1.2-5.7l.3-.3 2.9-2.9c10-9.8 18.3-19 19.4-32.2 1-12.7-4.9-26.1-19.8-44.7-12.4-15.2-24.6-22.6-37.5-22.6-17.4 0-30.4 13.6-40.8 24.5-1.7 1.7-3.4 3.6-5 5.1-13.2 13.2-13.6 39.7-1.2 72.8 12.9 34.3 38.4 71.5 71.7 104.8 25.4 25.4 53.5 46.5 81.1 60.8 24.7 12.8 48.2 19.9 66.4 19.9 13 0 23.4-3.5 30.1-10.2 1.4-1.4 3-2.9 4.6-4.4l.5-.4c11.3-10.8 25.4-24.1 24.6-42.2-.5-12.4-7.9-24.2-22.5-36zm-15.9 63.8l-.5.4c-1.6 1.6-3.3 3.2-4.9 4.8-2.8 2.8-8.6 4.3-15.9 4.3-40.2 0-97.3-38.8-133.3-74.9-31.3-31.3-55.1-66-67.1-97.7-10.4-27.6-9.2-45.8-3.4-51.6 1.8-1.8 3.6-3.7 5.3-5.5 8.2-8.6 17.4-18.3 26.3-18.3 6.4 0 13.7 5.1 21.8 15.1 11.1 13.9 16.1 23.6 15.5 30.5-.5 5.9-4.7 11-13.5 19.6l-3 3c-6.9 6.9-8 16.1-3.5 27.5 5.5 13.9 19.6 32.2 43.3 55.8 41 41 58.6 45.8 68.3 45.8 5.8 0 11.2-2.1 15.1-6l3.1-3.1c8.5-8.6 13.6-13.4 20.2-13.4 7.1 0 16.9 5.1 29.9 15.5 9.7 7.8 14.8 15 15 21.2.1 9.1-9.9 18.6-18.7 27z"></path></svg>