<svg id="_ÎÓÈ_1" data-name="—ÎÓÈ_1" xmlns="http://www.w3.org/2000/svg" xmlns:xlink="http://www.w3.org/1999/xlink" viewBox="0 0 240 240"><defs><style>.cls-1{fill:none;}.cls-2{opacity:0.5;}.cls-3{fill:#bcbcbc;}.cls-4{fill:#54575b;}.cls-5{fill:#aaa;}.cls-6{fill:#868687;}.cls-7{fill:#242c3c;}.cls-8{fill:#c4c2bf;}.cls-9{fill:#918f8b;}.cls-10{clip-path:url(#clip-path);}.cls-11{fill:#0074b8;}.cls-12{fill:#cee9f2;}.cls-13{fill:#445672;}.cls-14{fill:#5d6b82;}.cls-15{fill:#02668e;}</style><clipPath id="clip-path"><path class="cls-1" d="M1.42,120A119.29,119.29,0,1,0,120.71.71V120Z"/></clipPath></defs><g class="cls-2"><circle class="cls-3" cx="120.71" cy="120" r="119.29"/><rect class="cls-4" x="56.48" y="37.41" width="128.47" height="165.17"/><polygon class="cls-5" points="175.77 46.59 65.65 46.59 65.65 193.41 157.41 193.41 175.77 175.06 175.77 46.59"/><polygon class="cls-6" points="157.41 193.41 175.77 175.06 157.41 175.06 157.41 193.41"/><rect class="cls-7" x="84.01" y="64.94" width="18.35" height="4.59"/><rect class="cls-7" x="111.53" y="64.94" width="18.35" height="4.59"/><rect class="cls-7" x="139.06" y="64.94" width="18.35" height="4.59"/><rect class="cls-7" x="84.01" y="74.12" width="18.35" height="4.59"/><rect class="cls-7" x="111.53" y="74.12" width="18.35" height="4.59"/><rect class="cls-7" x="139.06" y="74.12" width="18.35" height="4.59"/><rect class="cls-7" x="84.01" y="83.3" width="18.35" height="4.59"/><rect class="cls-7" x="111.53" y="83.3" width="18.35" height="4.59"/><rect class="cls-7" x="139.06" y="83.3" width="18.35" height="4.59"/><rect class="cls-7" x="84.01" y="92.47" width="18.35" height="4.59"/><rect class="cls-7" x="111.53" y="92.47" width="18.35" height="4.59"/><rect class="cls-7" x="139.06" y="92.47" width="18.35" height="4.59"/><rect class="cls-7" x="84.01" y="101.65" width="18.35" height="4.59"/><rect class="cls-7" x="111.53" y="101.65" width="18.35" height="4.59"/><rect class="cls-7" x="139.06" y="101.65" width="18.35" height="4.59"/><rect class="cls-7" x="84.01" y="110.82" width="18.35" height="4.59"/><rect class="cls-7" x="111.53" y="110.82" width="18.35" height="4.59"/><rect class="cls-7" x="139.06" y="110.82" width="18.35" height="4.59"/><rect class="cls-7" x="84.01" y="120" width="18.35" height="4.59"/><rect class="cls-7" x="111.53" y="120" width="18.35" height="4.59"/><rect class="cls-7" x="139.06" y="120" width="18.35" height="4.59"/><rect class="cls-7" x="84.01" y="129.18" width="18.35" height="4.59"/><rect class="cls-7" x="111.53" y="129.18" width="18.35" height="4.59"/><rect class="cls-7" x="139.06" y="129.18" width="18.35" height="4.59"/><rect class="cls-7" x="84.01" y="138.35" width="18.35" height="4.59"/><rect class="cls-7" x="111.53" y="138.35" width="18.35" height="4.59"/><rect class="cls-7" x="139.06" y="138.35" width="18.35" height="4.59"/><rect class="cls-7" x="84.01" y="147.53" width="18.35" height="4.59"/><rect class="cls-7" x="111.53" y="147.53" width="18.35" height="4.59"/><rect class="cls-7" x="139.06" y="147.53" width="18.35" height="4.59"/><rect class="cls-7" x="84.01" y="156.7" width="18.35" height="4.59"/><rect class="cls-7" x="111.53" y="156.7" width="18.35" height="4.59"/><rect class="cls-7" x="139.06" y="156.7" width="18.35" height="4.59"/><rect class="cls-7" x="84.01" y="165.88" width="18.35" height="4.59"/><rect class="cls-7" x="111.53" y="165.88" width="18.35" height="4.59"/><rect class="cls-7" x="139.06" y="165.88" width="18.35" height="4.59"/><path class="cls-8" d="M139.06,42a9.17,9.17,0,0,1-9.17-9.17,9.18,9.18,0,1,0-18.36,0A9.17,9.17,0,0,1,102.36,42a9.18,9.18,0,0,0-9.18,9.18v4.59l2.3-2.3,2.29,2.3,2.29-2.3,2.3,2.3,2.29-2.3,2.3,2.3,2.29-2.3,2.29,2.3,2.3-2.3,2.29,2.3,2.3-2.3,2.29,2.3,2.29-2.3,2.3,2.3,2.29-2.3,2.3,2.3,2.29-2.3,2.29,2.3,2.3-2.3,2.29,2.3,2.3-2.3,2.29,2.3,2.29-2.3,2.3,2.3V51.18A9.18,9.18,0,0,0,139.06,42Zm-18.35-6.88A2.3,2.3,0,1,1,123,32.83,2.29,2.29,0,0,1,120.71,35.12Z"/><path class="cls-9" d="M120.71,35.12a2.3,2.3,0,0,0,1.62-3.92l-3.24,3.25A2.3,2.3,0,0,0,120.71,35.12Z"/><path class="cls-9" d="M118.42,32.83a2.27,2.27,0,0,0,.67,1.62l3.24-3.25a2.29,2.29,0,0,0-3.91,1.63Z"/><path class="cls-9" d="M129.89,32.83a9.12,9.12,0,0,0,1.23,4.58h7.16L127.2,26.34h0A9.14,9.14,0,0,1,129.89,32.83Z"/><path class="cls-9" d="M235.71,88.18,184.94,37.41V202.59H56.48L88.89,235A119.39,119.39,0,0,0,235.71,88.18Z"/></g><g class="cls-10"><circle class="cls-11" cx="120.71" cy="120" r="119.29"/><rect class="cls-7" x="56.48" y="37.41" width="128.47" height="165.17"/><polygon class="cls-12" points="175.77 46.59 65.65 46.59 65.65 193.41 157.41 193.41 175.77 175.06 175.77 46.59"/><polygon class="cls-13" points="157.41 193.41 175.77 175.06 157.41 175.06 157.41 193.41"/><rect class="cls-7" x="84.01" y="64.94" width="18.35" height="4.59"/><rect class="cls-7" x="111.53" y="64.94" width="18.35" height="4.59"/><rect class="cls-7" x="139.06" y="64.94" width="18.35" height="4.59"/><rect class="cls-7" x="84.01" y="74.12" width="18.35" height="4.59"/><rect class="cls-7" x="111.53" y="74.12" width="18.35" height="4.59"/><rect class="cls-7" x="139.06" y="74.12" width="18.35" height="4.59"/><rect class="cls-7" x="84.01" y="83.3" width="18.35" height="4.59"/><rect class="cls-7" x="111.53" y="83.3" width="18.35" height="4.59"/><rect class="cls-7" x="139.06" y="83.3" width="18.35" height="4.59"/><rect class="cls-7" x="84.01" y="92.47" width="18.35" height="4.59"/><rect class="cls-7" x="111.53" y="92.47" width="18.35" height="4.59"/><rect class="cls-7" x="139.06" y="92.47" width="18.35" height="4.59"/><rect class="cls-7" x="84.01" y="101.65" width="18.35" height="4.59"/><rect class="cls-7" x="111.53" y="101.65" width="18.35" height="4.59"/><rect class="cls-7" x="139.06" y="101.65" width="18.35" height="4.59"/><rect class="cls-7" x="84.01" y="110.82" width="18.35" height="4.59"/><rect class="cls-7" x="111.53" y="110.82" width="18.35" height="4.59"/><rect class="cls-7" x="139.06" y="110.82" width="18.35" height="4.59"/><rect class="cls-7" x="84.01" y="120" width="18.35" height="4.59"/><rect class="cls-7" x="111.53" y="120" width="18.35" height="4.59"/><rect class="cls-7" x="139.06" y="120" width="18.35" height="4.59"/><rect class="cls-7" x="84.01" y="129.18" width="18.35" height="4.59"/><rect class="cls-7" x="111.53" y="129.18" width="18.35" height="4.59"/><rect class="cls-7" x="139.06" y="129.18" width="18.35" height="4.59"/><rect class="cls-7" x="84.01" y="138.35" width="18.35" height="4.59"/><rect class="cls-7" x="111.53" y="138.35" width="18.35" height="4.59"/><rect class="cls-7" x="139.06" y="138.35" width="18.35" height="4.59"/><rect class="cls-7" x="84.01" y="147.53" width="18.35" height="4.59"/><rect class="cls-7" x="111.53" y="147.53" width="18.35" height="4.59"/><rect class="cls-7" x="139.06" y="147.53" width="18.35" height="4.59"/><rect class="cls-7" x="84.01" y="156.7" width="18.35" height="4.59"/><rect class="cls-7" x="111.53" y="156.7" width="18.35" height="4.59"/><rect class="cls-7" x="139.06" y="156.7" width="18.35" height="4.59"/><rect class="cls-7" x="84.01" y="165.88" width="18.35" height="4.59"/><rect class="cls-7" x="111.53" y="165.88" width="18.35" height="4.59"/><rect class="cls-7" x="139.06" y="165.88" width="18.35" height="4.59"/><path class="cls-14" d="M139.06,42a9.17,9.17,0,0,1-9.17-9.17,9.18,9.18,0,1,0-18.36,0A9.17,9.17,0,0,1,102.36,42a9.18,9.18,0,0,0-9.18,9.18v4.59l2.3-2.3,2.29,2.3,2.29-2.3,2.3,2.3,2.29-2.3,2.3,2.3,2.29-2.3,2.29,2.3,2.3-2.3,2.29,2.3,2.3-2.3,2.29,2.3,2.29-2.3,2.3,2.3,2.29-2.3,2.3,2.3,2.29-2.3,2.29,2.3,2.3-2.3,2.29,2.3,2.3-2.3,2.29,2.3,2.29-2.3,2.3,2.3V51.18A9.18,9.18,0,0,0,139.06,42Zm-18.35-6.88A2.3,2.3,0,1,1,123,32.83,2.29,2.29,0,0,1,120.71,35.12Z"/><path class="cls-13" d="M120.71,35.12a2.3,2.3,0,0,0,1.62-3.92l-3.24,3.25A2.3,2.3,0,0,0,120.71,35.12Z"/><path class="cls-13" d="M118.42,32.83a2.27,2.27,0,0,0,.67,1.62l3.24-3.25a2.29,2.29,0,0,0-3.91,1.63Z"/><path class="cls-13" d="M129.89,32.83a9.12,9.12,0,0,0,1.23,4.58h7.16L127.2,26.34h0A9.14,9.14,0,0,1,129.89,32.83Z"/><path class="cls-15" d="M235.71,88.18,184.94,37.41V202.59H56.48L88.89,235A119.39,119.39,0,0,0,235.71,88.18Z"/></g></svg>