<svg id="_ÎÓÈ_1" data-name="—ÎÓÈ_1" xmlns="http://www.w3.org/2000/svg" viewBox="0 0 110 110"><defs><style>.cls-1{fill:#e8e8e8;}.cls-2{fill:#231f20;}</style></defs><path class="cls-1" d="M26.56,33.83c3.62,0,8.28-5.62,8.28-11.58,0-5.33-3.33-8.91-8.28-8.91s-8.28,3.58-8.28,8.91C18.28,28,22.46,33.83,26.56,33.83Z"/><path class="cls-1" d="M39.48,37.36l-.7-.55a19.67,19.67,0,0,0-3.94-2.42c-2.34,2.57-5.3,4.23-8.28,4.23a11.73,11.73,0,0,1-8.62-4.39,20.22,20.22,0,0,0-4.31,2.59A9,9,0,0,0,10.45,46l.13.53A9,9,0,0,0,18,53.25a61,61,0,0,0,16.47.13l.6-.09a9,9,0,0,0,4.4-15.93Z"/><g id="team"><path class="cls-2" d="M26.56,38.62c-6.84,0-13.08-7.8-13.08-16.37,0-7.94,5.5-13.71,13.08-13.71s13.08,5.77,13.08,13.71C39.64,30.51,33.16,38.62,26.56,38.62Zm0-25.28c-5,0-8.29,3.58-8.29,8.91,0,5.74,4.19,11.58,8.29,11.58,3.62,0,8.28-5.62,8.28-11.58C34.84,16.92,31.51,13.34,26.56,13.34Z"/></g><path class="cls-2" d="M26.66,58.67A66,66,0,0,1,17.33,58,13.78,13.78,0,0,1,5.92,47.62l-.12-.53A13.76,13.76,0,0,1,10.68,33a25,25,0,0,1,6.67-3.76A2.4,2.4,0,0,1,19,33.77a20.1,20.1,0,0,0-5.4,3A9,9,0,0,0,10.45,46l.13.53A9,9,0,0,0,18,53.25a61,61,0,0,0,16.47.13l.6-.09a9,9,0,0,0,4.4-15.93l-.7-.55a20.06,20.06,0,0,0-5.1-2.93,2.4,2.4,0,0,1,1.75-4.46,24.83,24.83,0,0,1,6.32,3.63l.7.55A13.74,13.74,0,0,1,35.72,58l-.6.09A66.86,66.86,0,0,1,26.66,58.67Z"/><path class="cls-1" d="M81.71,76.77c3.62,0,8.29-5.62,8.29-11.58,0-5.33-3.33-8.91-8.29-8.91s-8.28,3.58-8.28,8.91C73.43,70.93,77.61,76.77,81.71,76.77Z"/><path class="cls-1" d="M94.64,80.3l-.7-.55A20,20,0,0,0,90,77.33c-2.35,2.57-5.31,4.23-8.29,4.23a11.73,11.73,0,0,1-8.62-4.39,19.75,19.75,0,0,0-4.3,2.59,9,9,0,0,0-3.18,9.15l.13.53a8.94,8.94,0,0,0,7.43,6.75,60.87,60.87,0,0,0,16.46.13l.6-.09A9,9,0,0,0,94.64,80.3Z"/><g id="team-2" data-name="team"><path class="cls-2" d="M81.71,81.56c-6.84,0-13.07-7.8-13.07-16.37,0-7.94,5.5-13.71,13.07-13.71s13.08,5.77,13.08,13.71C94.79,73.45,88.31,81.56,81.71,81.56Zm0-25.28c-4.95,0-8.28,3.58-8.28,8.91,0,5.74,4.18,11.58,8.28,11.58,3.62,0,8.29-5.62,8.29-11.58C90,59.86,86.67,56.28,81.71,56.28Z"/></g><path class="cls-2" d="M81.81,101.61a65.86,65.86,0,0,1-9.32-.67A13.75,13.75,0,0,1,61.08,90.56L61,90a13.78,13.78,0,0,1,4.88-14,25.18,25.18,0,0,1,6.67-3.76,2.4,2.4,0,1,1,1.69,4.49,20,20,0,0,0-5.4,3.05,9,9,0,0,0-3.18,9.15l.13.53a8.94,8.94,0,0,0,7.43,6.75,60.87,60.87,0,0,0,16.46.13l.6-.09A9,9,0,0,0,94.64,80.3l-.7-.55a20.12,20.12,0,0,0-5.11-2.93,2.4,2.4,0,1,1,1.76-4.46A25,25,0,0,1,96.91,76l.69.55A13.74,13.74,0,0,1,90.88,101l-.61.09A66.86,66.86,0,0,1,81.81,101.61Z"/><path class="cls-2" d="M56.65,65.42A2.38,2.38,0,0,1,56,64.1a2.34,2.34,0,0,1,2-2.64L61.48,61,62,57.5a2.34,2.34,0,0,1,4.63.72l-.81,5.2a2.34,2.34,0,0,1-2,2l-5.19.72A2.35,2.35,0,0,1,56.65,65.42Z"/><path class="cls-2" d="M61.85,64.7,51.61,54.23A2.34,2.34,0,1,1,55,51L65.2,61.42a2.34,2.34,0,0,1-3.35,3.28Z"/><path class="cls-2" d="M41.81,68.19a2.35,2.35,0,0,1-.64-2L42,61a2.36,2.36,0,0,1,2-2l5.21-.7A2.34,2.34,0,1,1,49.84,63l-3.49.47-.55,3.46a2.34,2.34,0,0,1-2.69,1.94A2.3,2.3,0,0,1,41.81,68.19Z"/><path class="cls-2" d="M52.89,73.47,42.64,63A2.34,2.34,0,0,1,46,59.73L56.23,70.2a2.34,2.34,0,1,1-3.34,3.27Z"/></svg>