<svg version="1.1" id="Layer_1" xmlns="http://www.w3.org/2000/svg" x="0" y="0" viewBox="0 0 512 512" xml:space="preserve" class="icon lpanel" style="color: white; width: 16px;"><path d="M494.2 512H17.6c-8.4 0-15.5-6.5-16.1-14.9-1.5-18.3-3.6-81 31.4-123.1 19.2-23.3 46.1-36.6 79.9-39.4h.5c5.8-1.8 20-6.6 34.6-13.5 31.3-14.7 35.6-24.8 36.1-26.6 2.9-10.2-3.7-36.5-22.2-67.4l-.2-.3c-7.9-8.1-32.6-36-30.7-63.4.5-8.7 3.8-17 9.6-23.5l.3-.4-.1-.5c-3.6-23.1-6-66.9 19.5-99.8C180.5 13.1 212.8 0 256.5 0c43.5 0 75.7 13.1 95.7 39 11.7 15.2 18.8 34.4 21 57 1.7 17.5.1 33.1-1.5 43.1l-.1.4.3.3c5.6 6.5 8.8 14.3 9.5 23.2v.2c.8 10.9-2.5 23-9.9 36.1-5.4 9.4-12.7 19.4-20.8 27.8l-.2.2s0 .1-.1.1c-11.4 18.6-26.4 53-22.1 67.9.5 1.8 4.9 11.8 36.1 26 16.3 7.3 31.6 12.1 34.6 13h.2c45.5 3.7 79.1 27.1 97 67.7 13.4 30 15.4 62.8 14.7 85v.1c-.1 2.4-.2 5.3-.4 7.9 0 .6-.1 1.1-.1 1.5-.4 8.7-7.5 15.5-16.2 15.5zm16.2-16.2v0zM33.3 480h445.4c0-16.3-1.9-42.2-11.9-64.7-13.2-29.8-36-45.7-69.9-48.5l-1.6-.1c-1.3-.1-2.6-.3-3.8-.7l-1.6-.5c-4.7-1.4-20.7-6.5-38.5-14.4-31.3-14.2-48.9-29.4-53.9-46.5-10-34.6 21.7-87.6 25.6-94l.9-1.5c.7-1.1 1.5-2.2 2.4-3.1l1.3-1.3c13-13.4 22.3-30.1 21.7-38.9-.2-2.5-1.1-3.8-1.8-4.7l-5.3-6.1c-3.1-3.7-4.5-8.4-3.6-13.2l1.3-7.9c7.1-43.2-6.9-66.8-13.2-75-13.6-17.6-37.1-26.4-70.1-26.4-33.2 0-56.9 8.9-70.5 26.6-18.7 24.2-15.4 60.3-13.2 74.7l1.3 7.9c.8 4.8-.6 9.5-3.7 13.2l-5.3 6.2c-1.2 1.3-1.7 2.7-1.8 4.5v.2c-.6 8.7 8.7 25.3 21.8 38.7l.3.3 1.3 1.4c.7.8 1.4 1.7 2 2.6l1 1.6c8.4 14 34.8 61.7 25.6 93.4-5.1 17.2-22.1 32.1-53.4 46.9-16.6 7.8-32.8 13.2-39 15.1-.1 0-.2.1-.3.1l-1.8.5c-1.2.3-2.4.6-3.6.6l-1.7.1c-24.6 2-43.9 11.4-57.4 27.7-21.6 25.2-25 63.6-25 85.2z"></path></svg>