<svg version="1.1" id="Layer_1" xmlns="http://www.w3.org/2000/svg" x="0" y="0" viewBox="0 0 512 512" xml:space="preserve" class="icon lpanel" style="color: white; width: 16px;"><path d="M256 180c8.8 0 16-7.2 16-16v-22c0-8.8-7.2-16-16-16s-16 7.2-16 16v22c0 8.8 7.2 16 16 16zM123 320h-21c-8.8 0-16 7.2-16 16s7.2 16 16 16h21c8.8 0 16-7.2 16-16s-7.2-16-16-16zM411 320h-21c-8.8 0-16 7-16 15.8s7.2 16 16 16h21c8.8 0 16-7.2 16-16s-7.2-15.8-16-15.8zM272 336.5v-64.6c0-8.8-7.2-16-16-16s-16 7.2-16 16v64.6c-10.3 5.7-17.4 16.9-17.4 29.7 0 18.7 14.9 33.8 33.4 33.8s33.4-15.1 33.4-33.8c0-12.8-7.1-24-17.4-29.7zM155.7 195.9c-6.1-6.4-16.2-6.7-22.6-.6-6.4 6.1-6.7 16.2-.6 22.6l14.7 15.4c6.1 6.4 16.2 6.7 22.6.6 6.4-6.1 6.7-16.2.6-22.6l-14.7-15.4zM379 197.4c-6.1-6.4-16.2-6.6-22.6-.5l-16.3 15.6c-6.4 6.1-6.6 16.2-.5 22.6 6.1 6.4 16.2 6.6 22.6.5l16.3-15.6c6.4-6.1 6.6-16.2.5-22.6z"></path><path d="M436.7 122.8C388.4 74.6 324.3 48 256 48S123.6 74.6 75.3 122.8C27.1 171.1.5 231 .5 299.3c0 64.6 16.6 112.8 59.1 158.7 4.7 5.1 11.4 6 18.3 6H438c7.1 0 13.8-1 18.5-6.2 42-45.8 55-94.1 55-158.5 0-68.3-26.5-128.2-74.8-176.5zm6.2 298.2c-4.6 7-12.5 11.2-20.9 11.2L90 432c-8.4 0-16.3-2.9-20.9-10-23.8-36.1-36.6-78.4-36.6-122.7 0-59.7 23.2-115.8 65.4-158C140.2 99.1 196.3 80 256 80s115.8 19 158.2 61.2c42.2 42.3 65.5 98.4 65.5 158.1 0 30.4-12.8 85.5-36.8 121.7z"></path></svg>