<svg id="_ÎÓÈ_1" data-name="—ÎÓÈ_1" xmlns="http://www.w3.org/2000/svg" viewBox="0 0 110 110"><defs><style>.cls-1{fill:#fff;}.cls-2{fill:#ddd;}.cls-3{fill:#231f20;}.cls-4{fill:#636363;}.cls-5{fill:#f6b81d;}</style></defs><path class="cls-1" d="M52.81,50l-.16-.06-.09,0a1.72,1.72,0,0,0-2.29,1.43.41.41,0,0,0,0,.11.24.24,0,0,0,0,.09s0,0,0,0A1.76,1.76,0,1,0,52.81,50Z"/><path class="cls-1" d="M36.37,48.1a1.76,1.76,0,1,0,1.7,2.16,1.92,1.92,0,0,1,0-.24,1.6,1.6,0,0,1,0-.21A1.76,1.76,0,0,0,36.37,48.1Z"/><polygon class="cls-2" points="21.25 94.51 20.18 98.24 89.82 98.24 88.75 94.51 73.37 94.51 36.63 94.51 21.25 94.51"/><path class="cls-2" d="M10.29,70.9a2.41,2.41,0,0,0,2.4,2.41H97.31a2.41,2.41,0,0,0,2.4-2.41V69H10.29Z"/><path class="cls-1" d="M59.6,33a1.74,1.74,0,0,0-.88,3.26l.17.06.15.09a1.69,1.69,0,0,0,.56.1,1.74,1.74,0,0,0,1.5-.86s0-.07,0-.1a1.48,1.48,0,0,1,.08-.13,1.67,1.67,0,0,0,.14-.67A1.76,1.76,0,0,0,59.6,33Z"/><path class="cls-2" d="M39.42,89.78a3.06,3.06,0,0,0-.21.29H70.79a1.94,1.94,0,0,0-.21-.29L67,85.54a2.18,2.18,0,0,1-.54-1.43V77.74H43.56v4.64a6.9,6.9,0,0,1-1.64,4.47Z"/><path class="cls-1" d="M97.31,11.76H12.69a2.41,2.41,0,0,0-2.4,2.4V64.57H99.71V14.16A2.41,2.41,0,0,0,97.31,11.76ZM21.6,20.64h20a2.22,2.22,0,1,1,0,4.44h-20a2.22,2.22,0,0,1,0-4.44Zm-2.22,12a2.22,2.22,0,0,1,2.22-2.21h20a2.22,2.22,0,1,1,0,4.43h-20A2.22,2.22,0,0,1,19.38,32.66Zm69-2.46L80,39.63a6.11,6.11,0,0,1,.58,2.6,6.2,6.2,0,0,1-12.39,0c0-.22,0-.44,0-.65l-4.46-2.24A6.19,6.19,0,0,1,59.6,41l-.39,0-2.84,6.19a6.19,6.19,0,1,1-10.33,6l-4.17-.47a6.2,6.2,0,0,1-5.5,3.38,6.07,6.07,0,0,1-2.76-.66l-5.84,5.68a2.21,2.21,0,0,1-1.55.63,2.22,2.22,0,0,1-1.54-3.81l5.93-5.77a6.1,6.1,0,0,1-.44-2.26,6.19,6.19,0,0,1,12.17-1.6l4.13.46A6.2,6.2,0,0,1,52,45.3l.31,0,2.87-6.24a6.19,6.19,0,1,1,10.61-4.33c0,.22,0,.43,0,.64l4.47,2.24A6.15,6.15,0,0,1,74.36,36a6,6,0,0,1,2.44.51l8.29-9.29a2.21,2.21,0,1,1,3.3,2.95Z"/><path class="cls-1" d="M74.36,40.47a1.73,1.73,0,0,0-1.5.87l0,.08-.06.08a1.75,1.75,0,1,0,1.59-1Z"/><path class="cls-3" d="M90.24,102.67H19.76a4.12,4.12,0,0,1-4-5.26l1.25-4.35a4.16,4.16,0,0,1,4-3H89a4.16,4.16,0,0,1,4,3l1.25,4.36a4.12,4.12,0,0,1-4,5.26ZM20.18,98.24H89.82l-1.07-3.73H21.25Z"/><g id="tv"><path class="cls-3" d="M97.31,77.74H12.69A6.84,6.84,0,0,1,5.85,70.9V14.16a6.84,6.84,0,0,1,6.84-6.83H97.31a6.84,6.84,0,0,1,6.84,6.83V70.9A6.84,6.84,0,0,1,97.31,77.74Zm-84.62-66a2.41,2.41,0,0,0-2.4,2.4V70.9a2.41,2.41,0,0,0,2.4,2.41H97.31a2.41,2.41,0,0,0,2.4-2.41V14.16a2.41,2.41,0,0,0-2.4-2.4Z"/><path class="cls-3" d="M73.37,94.51H36.63a2.21,2.21,0,0,1-2.22-2.22v-1a6.8,6.8,0,0,1,1.64-4.44L38.56,84a2.46,2.46,0,0,0,.58-1.58l0-5.39a2.23,2.23,0,0,1,2.21-2.23h0A2.23,2.23,0,0,1,43.56,77v5.4a6.9,6.9,0,0,1-1.64,4.47l-2.51,2.93a3.06,3.06,0,0,0-.21.29H70.79a1.94,1.94,0,0,0-.21-.29L67,85.54a2.18,2.18,0,0,1-.54-1.43V77.36a2.21,2.21,0,0,1,2.21-2.22h0a2.21,2.21,0,0,1,2.22,2.21v5.93L74,86.9a6.84,6.84,0,0,1,1.64,4.44v1A2.21,2.21,0,0,1,73.37,94.51Z"/><path class="cls-3" d="M100.73,69H9.52a2.22,2.22,0,0,1,0-4.44h91.21a2.22,2.22,0,0,1,0,4.44Z"/></g><path class="cls-4" d="M41.6,25.08h-20a2.22,2.22,0,0,1,0-4.44h20a2.22,2.22,0,1,1,0,4.44Z"/><path class="cls-4" d="M41.6,34.88h-20a2.22,2.22,0,1,1,0-4.43h20a2.22,2.22,0,1,1,0,4.43Z"/><path class="cls-5" d="M48.06,53.35l-.24,0L40,52.47a2.22,2.22,0,0,1,.49-4.41l7.79.87a2.22,2.22,0,0,1-.25,4.42Z"/><path class="cls-5" d="M70.84,42.64a2.22,2.22,0,0,1-1-.24l-7.72-3.87a2.22,2.22,0,1,1,2-4l7.72,3.88a2.22,2.22,0,0,1-1,4.2Z"/><path class="cls-5" d="M77.48,41.32A2.23,2.23,0,0,1,76,40.76a2.21,2.21,0,0,1-.18-3.13l9.26-10.38a2.21,2.21,0,1,1,3.3,2.95L79.14,40.58A2.23,2.23,0,0,1,77.48,41.32Z"/><path class="cls-5" d="M53.58,50.1a2.23,2.23,0,0,1-2-3.15L56,37.41a2.22,2.22,0,1,1,4,1.85l-4.39,9.55A2.21,2.21,0,0,1,53.58,50.1Z"/><path class="cls-5" d="M26.22,61.7a2.22,2.22,0,0,1-1.54-3.81l7-6.8a2.22,2.22,0,0,1,3.09,3.18l-7,6.8A2.21,2.21,0,0,1,26.22,61.7Z"/><path class="cls-5" d="M36.37,56.05a6.2,6.2,0,1,1,6.19-6.19A6.2,6.2,0,0,1,36.37,56.05Zm0-7.95a1.76,1.76,0,1,0,1.75,1.76A1.76,1.76,0,0,0,36.37,48.1Z"/><path class="cls-5" d="M52,57.69a6.2,6.2,0,1,1,6.19-6.19A6.2,6.2,0,0,1,52,57.69Zm0-7.95a1.76,1.76,0,1,0,1.76,1.76A1.76,1.76,0,0,0,52,49.74Z"/><path class="cls-5" d="M59.6,41a6.2,6.2,0,1,1,6.19-6.2A6.2,6.2,0,0,1,59.6,41Zm0-8a1.76,1.76,0,1,0,1.76,1.75A1.76,1.76,0,0,0,59.6,33Z"/><path class="cls-5" d="M74.36,48.42a6.2,6.2,0,1,1,6.2-6.19A6.2,6.2,0,0,1,74.36,48.42Zm0-8a1.76,1.76,0,1,0,1.76,1.76A1.76,1.76,0,0,0,74.36,40.47Z"/></svg>