<svg id="_ÎÓÈ_1" data-name="—ÎÓÈ_1" xmlns="http://www.w3.org/2000/svg" viewBox="0 0 110 110"><defs><style>.cls-1{fill:#ddd;}.cls-2{fill:#999898;}.cls-3{fill:#f9c248;}.cls-4{fill:#f6b81d;}.cls-5{fill:#231f20;}</style></defs><polygon class="cls-1" points="28.38 92.87 10.7 92.87 10.7 84.98 21 84.98 62.24 84.98 62.24 32.44 81.19 15.72 99.15 32.42 99.15 92.87 28.38 92.87"/><rect class="cls-2" x="70.43" y="70.99" width="10.16" height="21.88"/><polygon class="cls-3" points="55.53 79.34 55.53 92.87 61.7 92.87 65.69 92.87 65.69 68.58 65.69 61.3 55.53 61.3 55.53 79.34"/><rect class="cls-1" x="40.63" y="81.75" width="10.16" height="11.12"/><polygon class="cls-4" points="25.73 82.58 25.73 92.87 35.9 92.87 35.9 79.34 35.9 75.29 25.73 75.29 25.73 82.58"/><path class="cls-5" d="M81.4,97.68H61.7a2.41,2.41,0,0,1,0-4.81H81.4a2.41,2.41,0,0,1,0,4.81Z"/><path class="cls-5" d="M23.36,97.68A2.39,2.39,0,0,1,21,95.27V85H10.83v2.91a2.37,2.37,0,1,1-4.73,0V82.58a2.39,2.39,0,0,1,2.36-2.41h14.9a2.39,2.39,0,0,1,2.37,2.41V95.27A2.39,2.39,0,0,1,23.36,97.68Z"/><path class="cls-5" d="M38.26,97.68H23.36A2.39,2.39,0,0,1,21,95.27V72.89a2.39,2.39,0,0,1,2.36-2.41h14.9a2.39,2.39,0,0,1,2.37,2.41V95.27A2.39,2.39,0,0,1,38.26,97.68ZM25.73,92.87H35.9V75.29H25.73Z"/><path class="cls-5" d="M53.16,97.68H38.26a2.39,2.39,0,0,1-2.36-2.41V79.34a2.39,2.39,0,0,1,2.36-2.41h14.9a2.39,2.39,0,0,1,2.37,2.41V95.27A2.39,2.39,0,0,1,53.16,97.68ZM40.63,92.87H50.79V81.75H40.63Z"/><path class="cls-5" d="M68.06,97.68H53.16a2.39,2.39,0,0,1-2.37-2.41V58.9a2.39,2.39,0,0,1,2.37-2.41h14.9a2.39,2.39,0,0,1,2.37,2.41V95.27A2.39,2.39,0,0,1,68.06,97.68ZM55.53,92.87H65.69V61.3H55.53Z"/><path class="cls-5" d="M83,97.68H68.06a2.39,2.39,0,0,1-2.37-2.41V68.58a2.38,2.38,0,0,1,2.37-2.4H83a2.38,2.38,0,0,1,2.37,2.4V95.27A2.39,2.39,0,0,1,83,97.68ZM70.43,92.87H80.59V71H70.43Z"/><path class="cls-5" d="M101.54,96.11a2.39,2.39,0,0,1-2.37-2.4l0-61.29-18-16.7L62.73,32.44V51.16a2.37,2.37,0,1,1-4.74,0V31.37a2.44,2.44,0,0,1,.79-1.8L79.64,10.68a2.33,2.33,0,0,1,3.17,0l20.31,18.88a2.44,2.44,0,0,1,.77,1.78V93.71A2.39,2.39,0,0,1,101.54,96.11Z"/></svg>