<?xml version="1.0" encoding="utf-8"?>
<!-- Generator: Adobe Illustrator 24.0.1, SVG Export Plug-In . SVG Version: 6.00 Build 0)  -->
<svg version="1.1" xmlns="http://www.w3.org/2000/svg" xmlns:xlink="http://www.w3.org/1999/xlink" x="0px" y="0px"
	 viewBox="0 0 748.96 225.05" style="enable-background:new 0 0 748.96 225.05;" xml:space="preserve">
<style type="text/css">
	.st0{display:none;}
	.st1{fill:#006DB7;}
	.st2{fill:#84CCC9;}
	.st3{fill:#FFFFFF;}
	.st4{fill:#2F3030;}
	.st5{fill:#0072BF;}
	.st6{fill:#2E3030;}
	.st7{fill:#284299;}
</style>
<g id="圖層_1" class="st0">
</g>
<g id="圖層_4" class="st0">
</g>
<g id="logo1">
	<g>
		<g>
			<path class="st1" d="M224.55,225.05l-147.34-0.24C34.5,224.74-0.07,190.05,0,147.34L0.24,0l147.34,0.24
				c42.72,0.07,77.29,34.75,77.22,77.47L224.55,225.05z"/>
			<circle class="st2" cx="55.92" cy="48.41" r="16.28"/>
			<circle class="st2" cx="55.84" cy="94.01" r="16.28"/>
			<circle class="st3" cx="176.96" cy="165.83" r="16.28"/>
			<circle class="st3" cx="123.37" cy="128.49" r="15.38"/>
			<circle class="st3" cx="176.58" cy="94.18" r="16.63"/>
			<circle class="st2" cx="55.73" cy="165.63" r="16.28"/>
			
				<rect x="39.5" y="92.41" transform="matrix(1 1.628345e-03 -1.628345e-03 1 0.2102 -0.0907)" class="st2" width="32.57" height="73.23"/>
			<polygon class="st3" points="86.22,82.06 123.55,113.12 165.86,81.46 193.21,94.2 193.25,165.86 160.68,165.81 160.75,117.44 
				134.12,139.59 112.99,139.93 86.16,117.29 			"/>
		</g>
		<path class="st2" d="M284.13,30.57c-0.01,3.57-1.27,6.62-3.78,9.12c-2.51,2.51-5.56,3.76-9.13,3.75
			c-3.57-0.01-6.61-1.27-9.12-3.78c-2.51-2.51-3.76-5.56-3.75-9.13s1.27-6.61,3.78-9.12c2.51-2.5,5.56-3.76,9.13-3.75
			c3.57,0.01,6.61,1.27,9.12,3.78C282.89,23.96,284.14,27,284.13,30.57z M261.04,101.5l20.17,0.03l0.09-53.61l-20.17-0.03
			L261.04,101.5z"/>
		<path class="st1" d="M288.14,49.47l23.73,0.04l-0.03,20.29l-23.73-0.04L288.14,49.47z"/>
		<path class="st1" d="M420.41,28.05c6.45,6.48,9.68,14.27,9.66,23.37l-0.08,49.91l-20.29-0.03l0.08-49.91
			c0.01-3.57-1.22-6.6-3.69-9.07c-2.46-2.47-5.48-3.71-9.06-3.72c-3.49-0.01-6.47,1.22-8.94,3.69c-2.47,2.46-3.71,5.48-3.72,9.06
			l-0.08,49.91L364,101.22l0.08-49.91c0.01-3.57-1.22-6.6-3.69-9.07c-2.46-2.47-5.48-3.71-9.06-3.72c-3.49-0.01-6.47,1.22-8.94,3.69
			c-2.47,2.46-3.71,5.48-3.72,9.06l-0.08,49.91l-20.29-0.03l0.08-49.91c0.01-9.1,3.26-16.88,9.74-23.34
			c6.48-6.45,14.23-9.68,23.25-9.66c8.85,0.01,16.46,3.13,22.83,9.35c6.48-6.2,14.1-9.29,22.86-9.28
			C406.17,18.33,413.95,21.58,420.41,28.05z"/>
		<path class="st1" d="M460.54,69.92c-1.02,0-1.94,0.41-2.75,1.24c-0.81,0.83-1.22,1.81-1.22,2.94c-0.01,4.01,1.31,6.02,3.96,6.03
			l28.45,0.05l-0.03,20.17l-28.33-0.05c-6.64-0.01-12.33-2.4-17.09-7.18c-4.76-4.77-7.13-10.48-7.12-17.12l0-1.91
			c0.01-6.72,2.4-12.46,7.18-17.22c4.77-4.76,10.48-7.13,17.12-7.12l23.23,0.04c-1.1-3.36-2.12-5.69-3.05-6.98
			c-1.61-2.07-3.78-3.11-6.5-3.11l-31.02-0.05l0.03-20.17l31.02,0.05c5.96,0.01,11.61,2.15,16.97,6.41c5.1,4.01,8.67,8.91,10.7,14.7
			l20.83,59.77l-21.5-0.04l-10.59-30.39L460.54,69.92z"/>
		<path class="st1" d="M566.03,57.49c-0.46,1.36-0.68,2.64-0.69,3.82c-0.01,6.55,4.81,11.57,14.45,15.07
			c7.08,2.56,14.64,3.85,22.66,3.86l-0.03,20.27l-2.18,0c-11.09,0.24-21.83-2.42-32.23-7.97c-12.27-6.57-18.44-15.01-18.51-25.3
			l-0.05,33.19l-20.17-0.03l0.13-80.79l20.17,0.03l-0.05,27.95l0.64-0.51l28.25-27.4l25.44,0.04l-25.22,24.99
			C575.85,47.52,571.64,51.78,566.03,57.49z"/>
		<path class="st1" d="M604.53,60.13c0.02-11.06,3.88-20.59,11.6-28.57c7.71-7.98,17.06-11.97,28.04-11.95l17.36,0.03
			c6.47,0.01,11.99,2.32,16.58,6.92c4.59,4.6,6.88,10.14,6.87,16.6l-0.01,3.7c-0.01,6.47-2.32,12.02-6.92,16.65
			c-4.6,4.63-10.14,6.94-16.6,6.93l-26.8-0.04l0.03-20.17l26.8,0.04c2.21,0,3.32-1.11,3.32-3.35c0-2.5-0.08-4-0.25-4.52
			c-0.34-1.72-1.36-2.59-3.07-2.59l-17.41-0.03c-5.46-0.01-10.06,2.01-13.77,6.06c-3.72,4.05-5.58,8.85-5.59,14.39
			c-0.01,5.46,1.84,10.23,5.54,14.29c3.7,4.06,8.28,6.09,13.74,6.1l38.25,0.06l-0.03,20.17l-38.16-0.06
			c-10.98-0.02-20.31-4.03-28-12.04C608.35,80.73,604.51,71.2,604.53,60.13z"/>
		<path class="st1" d="M687.81,100.67l21.03-60.08c2.05-5.7,5.65-10.56,10.81-14.6c5.15-4.03,10.67-6.05,16.54-6.04l12.76,0.02
			l-0.03,20.04l-12.76-0.02c-3.92-0.01-6.77,2.46-8.56,7.39L709,100.7L687.81,100.67z"/>
		<path class="st4" d="M261.98,135.44l20.17,0.03l-0.13,80.79l-20.17-0.03L261.98,135.44z"/>
		<path class="st4" d="M560.46,138.61l20.17,0.03l-0.13,80.79l-20.17-0.03L560.46,138.61z"/>
		<path class="st4" d="M335.01,133.55c10.72,0.02,19.82,4.07,27.29,12.17c7.22,7.84,10.82,17.21,10.8,28.1l-0.07,42.63l-20.17-0.03
			l0.07-42.63c0.01-5.27-1.69-9.94-5.11-13.98c-3.42-4.05-7.7-6.08-12.85-6.08c-5.16-0.01-9.45,2.01-12.88,6.04
			c-3.43,4.04-5.15,8.69-5.15,13.97l-0.07,42.63l-20.17-0.03l0.07-42.63c0.02-10.89,3.71-20.31,11.09-28.25
			C315.24,137.5,324.29,133.54,335.01,133.55z"/>
		<path class="st4" d="M420.36,187.93l20.08-52.33l21.43,0.03l-26.79,70.28c-3.08,7.91-7.93,11.86-14.57,11.85
			s-11.52-3.93-14.66-11.75l-27.84-70.52l21.69,0.04L420.36,187.93z"/>
		<path class="st4" d="M504.96,134.05c11.57,0.02,21.37,4.23,29.4,12.62c8.03,8.39,12.03,18.42,12.01,30.08
			c-0.02,11.57-4.06,21.56-12.11,29.97c-8.05,8.41-17.87,12.61-29.44,12.59c-11.57-0.02-21.39-4.25-29.46-12.68
			c-8.07-8.44-12.1-18.44-12.08-30.01c0.02-11.66,4.08-21.67,12.17-30.04C483.55,138.21,493.39,134.03,504.96,134.05z
			 M504.85,199.14c5.92,0.01,10.96-2.21,15.11-6.66c4.15-4.45,6.23-9.68,6.24-15.71c0.01-6.11-2.06-11.39-6.19-15.85
			c-4.14-4.46-9.17-6.7-15.09-6.71c-6.01-0.01-11.09,2.21-15.24,6.66c-4.15,4.45-6.23,9.73-6.24,15.83
			c-0.01,6.02,2.05,11.27,6.19,15.73C493.77,196.9,498.85,199.13,504.85,199.14z"/>
		<path class="st4" d="M603.68,148.44c7.54-7.9,16.59-11.84,27.14-11.83l28.33,0.05l-0.03,20.29l-28.33-0.05
			c-5.02-0.01-9.3,1.96-12.84,5.91c-3.54,3.95-5.31,8.69-5.32,14.22c-0.01,5.53,1.75,10.26,5.27,14.18
			c3.52,3.92,7.8,5.88,12.82,5.89l28.33,0.05l-0.03,20.29l-28.33-0.05c-10.55-0.02-19.59-3.97-27.1-11.85
			c-7.52-7.88-11.27-17.4-11.25-28.55C592.35,165.87,596.13,156.34,603.68,148.44z"/>
		<path class="st4" d="M667.45,177.07c0.02-11.06,3.88-20.59,11.6-28.57c7.71-7.98,17.06-11.97,28.04-11.95l17.36,0.03
			c6.47,0.01,11.99,2.32,16.58,6.92c4.59,4.6,6.88,10.14,6.87,16.6l-0.01,3.7c-0.01,6.47-2.32,12.02-6.92,16.65
			c-4.6,4.63-10.14,6.94-16.6,6.93l-26.8-0.04l0.03-20.17l26.8,0.04c2.21,0,3.32-1.11,3.32-3.35c0-2.5-0.08-4-0.25-4.52
			c-0.34-1.72-1.36-2.59-3.07-2.59l-17.41-0.03c-5.46-0.01-10.06,2.01-13.77,6.06c-3.72,4.05-5.58,8.85-5.59,14.39
			c-0.01,5.46,1.84,10.23,5.54,14.29c3.7,4.06,8.28,6.09,13.74,6.1l38.25,0.06l-0.03,20.17l-38.16-0.06
			c-10.98-0.02-20.31-4.03-28-12.04C671.27,197.67,667.43,188.14,667.45,177.07z"/>
	</g>
</g>
<g id="logo2">
</g>
<g id="logo3">
</g>
<g id="logo4">
</g>
<g id="imaker_logo">
</g>
</svg>
