<?xml version="1.0" encoding="utf-8"?>
<!-- Generator: Adobe Illustrator 24.0.1, SVG Export Plug-In . SVG Version: 6.00 Build 0)  -->
<svg version="1.1" xmlns="http://www.w3.org/2000/svg" xmlns:xlink="http://www.w3.org/1999/xlink" x="0px" y="0px"
	 viewBox="0 0 690.05 229.82" style="enable-background:new 0 0 690.05 229.82;" xml:space="preserve">
<style type="text/css">
	.st0{display:none;}
	.st1{fill:#006DB7;}
	.st2{fill:#84CCC9;}
	.st3{fill:#FFFFFF;}
	.st4{fill:#2F3030;}
	.st5{fill:#0072BF;}
	.st6{fill:#2E3030;}
	.st7{fill:#284299;}
</style>
<g id="圖層_1" class="st0">
</g>
<g id="圖層_4" class="st0">
</g>
<g id="logo1">
	<g>
		<path class="st1" d="M229.82,229.82H77.34C34.63,229.82,0,195.2,0,152.48V0h152.48c42.72,0,77.34,34.63,77.34,77.34V229.82z"/>
		<circle class="st2" cx="60.52" cy="56.11" r="15.18"/>
		<rect x="45.34" y="83.43" class="st2" width="30.36" height="96.72"/>
		<polygon class="st3" points="88.82,83.43 123.6,112.35 158.38,83.43 186.68,83.44 186.68,179.78 158.35,179.78 158.35,120.3 
			123.61,149.19 88.82,120.27 		"/>
		<path class="st2" d="M275.85,44.49c-2.15-2.21-3.22-4.77-3.22-7.81c0-2.98,1.07-5.54,3.22-7.69c2.21-2.21,4.77-3.28,7.81-3.28
			c2.98,0,5.54,1.07,7.69,3.28c2.21,2.15,3.28,4.71,3.28,7.69c0,3.04-1.07,5.6-3.28,7.81c-2.15,2.15-4.71,3.22-7.69,3.22
			C280.62,47.71,278.05,46.64,275.85,44.49z M292.78,115.6h-18.3V53.07h18.3V115.6z"/>
		<path class="st1" d="M349.94,85.32h-46.37V67.8h46.37V85.32z"/>
		<path class="st1" d="M444.29,115.54h-19.55V65.89l-22.05,36.24h-2.21l-22.05-36.24v49.65h-19.55V30.19h19.55l23.13,37.91
			l23.19-37.91h19.55V115.54z"/>
		<path class="st1" d="M461.82,106.48c-5.72-6.2-8.58-13.83-8.58-22.95c0-9.12,2.86-16.75,8.58-22.89c5.72-6.2,12.58-9.3,20.62-9.3
			c8.17,0,14.19,2.5,18.12,7.45v-7.45h18.3v64.25h-18.3v-7.27c-3.93,4.95-9.95,7.39-18.12,7.39
			C474.4,115.72,467.54,112.62,461.82,106.48z M500.56,83.53c0-9.12-4.83-14.07-14.48-14.84c-8.4,0-13.29,4.95-14.54,14.84
			c0,9.12,4.83,14.13,14.54,14.9C494.48,98.43,499.31,93.48,500.56,83.53z"/>
		<path class="st1" d="M586.4,115.54h-20.74l-19.55-27v27h-18.3V30.13l18.3,9v42.14l18.3-26.76h21.34l-22.17,30.52L586.4,115.54z"/>
		<path class="st1" d="M581.03,83.53c0-9.12,2.98-16.75,9-22.89c6.02-6.2,13.83-9.3,23.42-9.3c8.94,0,16.33,3.04,22.17,9.18
			c5.9,6.14,8.82,13.77,8.82,23.01c0,2.56-0.24,5.01-0.72,7.33h-43.33c3.04,5.66,7.93,8.52,14.66,8.52c5.01,0,8.88-1.55,11.68-4.65
			l14.66,8.46c-6.14,8.34-14.96,12.52-26.58,12.52C593.97,115.72,582.7,104.99,581.03,83.53z M626.27,77.21
			c-1.01-3.52-2.74-5.96-5.19-7.45s-5.01-2.21-7.75-2.21c-6.97,0-11.38,3.22-13.29,9.66H626.27z"/>
		<path class="st1" d="M671.69,115.54h-18.3V53.37h18.3v12.04c1.37-4.05,3.75-7.09,7.27-9.06c3.52-1.97,7.15-2.98,11.03-2.98v20.74
			c-1.13-0.18-2.21-0.3-3.28-0.3c-10.01,0-15.02,4.71-15.02,14.19V115.54z"/>
		<g>
			<path class="st4" d="M293.16,214.79h-19.49v-85.41h19.49V214.79z"/>
			<path class="st4" d="M363.81,214.55h-18.3v-34.81c0-7.39-3.4-11.09-10.19-11.09h-0.42c-6.73,0-10.49,4.17-11.32,12.58v33.32
				h-18.3v-62.7h18.3v7.45c3.58-4.95,9.36-7.45,17.4-7.45c6.14,0,11.5,2.15,16.03,6.44c4.53,4.29,6.79,10.55,6.79,18.77V214.55z"/>
			<path class="st4" d="M419.26,214.55h-20.74l-22.59-60.97h20.26l12.7,38.68l12.69-38.68h20.2L419.26,214.55z"/>
			<path class="st4" d="M453.19,206.98c-6.26-6.2-9.42-13.83-9.42-22.95s3.16-16.75,9.42-22.89c6.26-6.2,13.89-9.3,22.89-9.3
				c9,0,16.63,3.1,22.89,9.3c6.26,6.14,9.42,13.77,9.42,22.89s-3.16,16.75-9.42,22.95c-6.26,6.14-13.89,9.24-22.89,9.24
				C467.08,216.22,459.45,213.12,453.19,206.98z M486.03,194.46c2.68-2.62,4.05-6.08,4.05-10.43s-1.37-7.81-4.05-10.43
				s-5.96-3.93-9.95-3.93s-7.33,1.31-10.01,3.93c-2.68,2.62-3.99,6.08-3.99,10.43s1.31,7.81,3.99,10.43
				c2.68,2.62,6.02,3.93,10.01,3.93S483.35,197.08,486.03,194.46z"/>
			<path class="st4" d="M523.72,143.5c-2.15-2.21-3.22-4.77-3.22-7.81c0-2.98,1.07-5.54,3.22-7.69c2.21-2.21,4.77-3.28,7.81-3.28
				c2.98,0,5.54,1.07,7.69,3.28c2.21,2.15,3.28,4.71,3.28,7.69c0,3.04-1.07,5.6-3.28,7.81c-2.15,2.15-4.71,3.22-7.69,3.22
				C528.49,146.72,525.93,145.65,523.72,143.5z M540.65,214.61h-18.3v-62.52h18.3V214.61z"/>
			<path class="st4" d="M563.79,205.49c-6.14-6.2-9.18-13.83-9.18-22.95c0-9.12,3.04-16.75,9.18-22.89c6.14-6.2,13.89-9.3,23.18-9.3
				c11.8,0,20.98,5.19,27.54,15.62l-15.97,9.24c-2.5-4.53-6.44-6.79-11.86-6.79c-7.93,0-12.52,4.71-13.77,14.12
				c0,8.4,4.59,13.17,13.77,14.19c5.42,0,9.36-2.26,11.86-6.85l15.97,9.12c-6.44,10.49-15.62,15.73-27.54,15.73
				C577.68,214.73,569.93,211.63,563.79,205.49z"/>
			<path class="st4" d="M626.63,182.54c0-9.12,2.98-16.75,9-22.89c6.02-6.2,13.83-9.3,23.42-9.3c8.94,0,16.33,3.04,22.17,9.18
				c5.9,6.14,8.82,13.77,8.82,23.01c0,2.56-0.24,5.01-0.71,7.33H646c3.04,5.66,7.93,8.52,14.66,8.52c5.01,0,8.88-1.55,11.68-4.65
				l14.66,8.46c-6.14,8.34-14.96,12.52-26.58,12.52C639.57,214.73,628.3,204,626.63,182.54z M671.87,176.22
				c-1.01-3.52-2.74-5.96-5.19-7.45s-5.01-2.21-7.75-2.21c-6.97,0-11.38,3.22-13.29,9.66H671.87z"/>
		</g>
	</g>
</g>
<g id="logo2">
</g>
<g id="logo3">
</g>
<g id="logo4">
</g>
<g id="imaker_logo">
</g>
</svg>
