<svg id="_ÎÓÈ_1" data-name="—ÎÓÈ_1" xmlns="http://www.w3.org/2000/svg" viewBox="0 0 540 228"><defs><style>.cls-1{fill:#fff;}.cls-2{fill:#0074b8;}</style></defs><path class="cls-1" d="M18.05,99.42A16.63,16.63,0,1,1,34.68,82.8,16.64,16.64,0,0,1,18.05,99.42Zm0-24.18a7.56,7.56,0,1,0,7.56,7.56A7.57,7.57,0,0,0,18.05,75.24Z"/><path class="cls-1" d="M303.05,114.25H277.53a3.07,3.07,0,1,1,0-6.14h25.52a3.07,3.07,0,0,1,0,6.14Z"/><path class="cls-1" d="M227.85,114.25a3.07,3.07,0,0,1-3.07-3.07V98.05H211.61v3.72a3.07,3.07,0,0,1-6.13,0V95a3.06,3.06,0,0,1,3.07-3.07h19.3A3.06,3.06,0,0,1,230.92,95v16.19A3.06,3.06,0,0,1,227.85,114.25Z"/><path class="cls-1" d="M247.16,114.25H227.85a3.07,3.07,0,0,1-3.07-3.07V82.62a3.07,3.07,0,0,1,3.07-3.06h19.31a3.07,3.07,0,0,1,3.07,3.06v28.56A3.07,3.07,0,0,1,247.16,114.25Zm-16.24-6.14h13.17V85.69H230.92Z"/><path class="cls-1" d="M266.46,114.25h-19.3a3.06,3.06,0,0,1-3.07-3.07V90.86a3.06,3.06,0,0,1,3.07-3.07h19.3a3.06,3.06,0,0,1,3.07,3.07v20.32A3.06,3.06,0,0,1,266.46,114.25Zm-16.23-6.14h13.16V93.93H250.23Z"/><path class="cls-1" d="M285.77,114.25H266.46a3.07,3.07,0,0,1-3.07-3.07V64.78a3.08,3.08,0,0,1,3.07-3.07h19.31a3.08,3.08,0,0,1,3.07,3.07v46.4A3.07,3.07,0,0,1,285.77,114.25Zm-16.24-6.14H282.7V67.85H269.53Z"/><path class="cls-1" d="M305.07,114.25h-19.3a3.06,3.06,0,0,1-3.07-3.07V77.13a3.07,3.07,0,0,1,3.07-3.07h19.3a3.07,3.07,0,0,1,3.07,3.07v34.05A3.06,3.06,0,0,1,305.07,114.25Zm-16.23-6.14H302V80.2H288.84Z"/><path class="cls-1" d="M329.14,112.25a3.07,3.07,0,0,1-3.07-3.07V43.77L302.79,22.46,278.86,43.79V54.91a3.07,3.07,0,0,1-6.14,0V42.42a3,3,0,0,1,1-2.29l27-24.09a3.06,3.06,0,0,1,4.11,0L331.2,40.15a3.08,3.08,0,0,1,1,2.27l0,66.76A3.06,3.06,0,0,1,329.14,112.25Z"/><path class="cls-2" d="M505.32,164.42a16.64,16.64,0,0,1,12.37-16V126.63h-497v74.93a17.52,17.52,0,0,0,17.53,17.52h462a17.51,17.51,0,0,0,17.52-17.52V180.47A16.63,16.63,0,0,1,505.32,164.42Z"/><path class="cls-1" d="M16.19,152.11a4.53,4.53,0,0,1-4.53-4.53v-26.5H517V32.28A22.4,22.4,0,0,0,494.59,9.91H43.1A22.39,22.39,0,0,0,20.73,32.28V69a4.54,4.54,0,0,1-9.07,0V32.28A31.47,31.47,0,0,1,43.1.84H494.59A31.48,31.48,0,0,1,526,32.28v97.87H20.73v17.43A4.53,4.53,0,0,1,16.19,152.11Z"/><path class="cls-1" d="M494.59,227.16H37.11a25.48,25.48,0,0,1-25.45-25.45,4.54,4.54,0,0,1,9.07,0,16.4,16.4,0,0,0,16.38,16.38H494.59A22.4,22.4,0,0,0,517,195.72V178a4.54,4.54,0,1,1,9.07,0v17.76A31.48,31.48,0,0,1,494.59,227.16Z"/><path class="cls-1" d="M522,181.05a16.63,16.63,0,1,1,16.62-16.63A16.65,16.65,0,0,1,522,181.05Zm0-24.19a7.56,7.56,0,1,0,7.56,7.56A7.57,7.57,0,0,0,522,156.86Z"/></svg>