<svg id="_ÎÓÈ_1" data-name="—ÎÓÈ_1" xmlns="http://www.w3.org/2000/svg" viewBox="0 0 582 228"><defs><style>.cls-1{fill:#0074b8;}.cls-2{fill:#fff;}</style></defs><path class="cls-1" d="M20.28,126.63h497a0,0,0,0,1,0,0v71.9a20.54,20.54,0,0,1-20.54,20.54H40.82a20.54,20.54,0,0,1-20.54-20.54v-71.9a0,0,0,0,1,0,0Z"/><path class="cls-2" d="M18.34,99.42A16.63,16.63,0,1,1,35,82.8,16.64,16.64,0,0,1,18.34,99.42Zm0-24.18A7.56,7.56,0,1,0,25.9,82.8,7.56,7.56,0,0,0,18.34,75.24Z"/><path class="cls-2" d="M544.4,190.22a3.56,3.56,0,0,1-3.57-3.58v-36a3.57,3.57,0,0,1,5.31-3.13l32.3,18a3.57,3.57,0,0,1,0,6.25l-32.3,18A3.58,3.58,0,0,1,544.4,190.22ZM548,156.75v23.81l21.37-11.9Z"/><path class="cls-2" d="M16.49,152.11A4.53,4.53,0,0,1,12,147.58v-26.5h505.3V32.28A22.39,22.39,0,0,0,494.88,9.91H43.39A22.4,22.4,0,0,0,21,32.28V69A4.54,4.54,0,0,1,12,69V32.28A31.48,31.48,0,0,1,43.39.84H494.88a31.47,31.47,0,0,1,31.44,31.44v97.87H21v17.43A4.53,4.53,0,0,1,16.49,152.11Z"/><path class="cls-2" d="M494.88,227.16H38.78A26.86,26.86,0,0,1,12,200.33a4.54,4.54,0,0,1,9.07,0,17.78,17.78,0,0,0,17.76,17.76h456.1a22.39,22.39,0,0,0,22.37-22.37V164.26h23.91a4.54,4.54,0,0,1,0,9.07H526.32v22.39A31.47,31.47,0,0,1,494.88,227.16Z"/><path class="cls-2" d="M321.88,110.81H235.77a10.2,10.2,0,0,1-10.2-10.2V41a10.2,10.2,0,0,1,10.2-10.19h86.11A10.21,10.21,0,0,1,332.08,41v59.66A10.21,10.21,0,0,1,321.88,110.81ZM235.77,35.39A5.57,5.57,0,0,0,230.2,41v59.66a5.58,5.58,0,0,0,5.57,5.57h86.11a5.58,5.58,0,0,0,5.57-5.57V41a5.57,5.57,0,0,0-5.57-5.56Z"/><path class="cls-2" d="M301.41,23.92H256.24a2.31,2.31,0,0,1-2.32-2.31V18.49a5.82,5.82,0,0,1,5.82-5.81h38.17a5.82,5.82,0,0,1,5.81,5.81v3.12A2.3,2.3,0,0,1,301.41,23.92Zm-42.86-4.63h40.54v-.8a1.18,1.18,0,0,0-1.18-1.18H259.74a1.18,1.18,0,0,0-1.19,1.18Z"/><path class="cls-2" d="M301.41,35.39a2.32,2.32,0,0,1-2.32-2.32V20.76a2.32,2.32,0,1,1,4.63,0V33.07A2.31,2.31,0,0,1,301.41,35.39Z"/><path class="cls-2" d="M256.24,35.39a2.32,2.32,0,0,1-2.32-2.32V20.76a2.32,2.32,0,1,1,4.63,0V33.07A2.31,2.31,0,0,1,256.24,35.39Z"/><path class="cls-2" d="M317.48,48H240.17a2.32,2.32,0,0,1,0-4.63h77.31a2.32,2.32,0,0,1,0,4.63Z"/><path class="cls-2" d="M317.48,98.17H240.17a2.32,2.32,0,0,1,0-4.63h77.31a2.32,2.32,0,0,1,0,4.63Z"/><path class="cls-2" d="M278.89,86.78c-6.05,0-11-4.1-11-9.15a2.32,2.32,0,0,1,4.63,0c0,2.45,2.91,4.52,6.34,4.52s6.35-2.07,6.35-4.52c0-1.17-1.18-4.5-6.4-4.5-7.63,0-11.06-5.37-11.06-9.19,0-5,4.92-9.16,11-9.16s11,4.11,11,9.16a2.32,2.32,0,1,1-4.63,0c0-2.45-2.9-4.53-6.35-4.53s-6.33,2.08-6.33,4.53c0,1.49,1.57,4.56,6.43,4.56,8,0,11,5.6,11,9.13C289.87,82.68,284.94,86.78,278.89,86.78Z"/><path class="cls-2" d="M278.81,58a2.31,2.31,0,0,1-2.31-2.32V53.79a2.32,2.32,0,1,1,4.63,0v1.92A2.32,2.32,0,0,1,278.81,58Z"/><path class="cls-2" d="M278.81,90.12a2.31,2.31,0,0,1-2.31-2.32v-2a2.32,2.32,0,0,1,4.63,0v2A2.32,2.32,0,0,1,278.81,90.12Z"/><path class="cls-2" d="M278.81,66a2.31,2.31,0,0,1-2.31-2.32V59.88a2.32,2.32,0,0,1,4.63,0v3.78A2.32,2.32,0,0,1,278.81,66Z"/><path class="cls-2" d="M278.81,84.09a2.31,2.31,0,0,1-2.31-2.31V77.86a2.32,2.32,0,0,1,4.63,0v3.92A2.32,2.32,0,0,1,278.81,84.09Z"/><path class="cls-2" d="M257.82,73.1h-11.2a2.32,2.32,0,0,1,0-4.63h11.2a2.32,2.32,0,0,1,0,4.63Z"/><path class="cls-2" d="M311,73.1H299.83a2.32,2.32,0,0,1,0-4.63H311a2.32,2.32,0,1,1,0,4.63Z"/></svg>