<svg id="_ÎÓÈ_1" data-name="—ÎÓÈ_1" xmlns="http://www.w3.org/2000/svg" viewBox="0 0 110 110"><defs><style>.cls-1{fill:#fff;}.cls-2{fill:#231f20;}.cls-3{fill:#f6b81d;}</style></defs><path class="cls-1" d="M41.66,39.34c0-.83-.7-3-3.52-3.67V43C40.18,42.41,41.66,41,41.66,39.34Z"/><path class="cls-1" d="M34,31V23.62c-2,.59-3.5,2-3.5,3.66C30.46,28.32,31.36,30.28,34,31Z"/><path class="cls-1" d="M59.23,83.21H24.67a2.09,2.09,0,0,1,0-4.18H60a17.9,17.9,0,0,1,5.49-8.28H24.67a2.1,2.1,0,0,1,0-4.19h51c.44,0,.88-.06,1.33-.06a17.86,17.86,0,0,1,3.45.34v-48a6.79,6.79,0,0,0-6.79-6.78H23.55a6.79,6.79,0,0,0-6.79,6.78v67a6.8,6.8,0,0,0,6.79,6.79h37.7a17.7,17.7,0,0,1-2.06-8.29C59.19,83.94,59.21,83.57,59.23,83.21Zm-4.72-54h18a2.1,2.1,0,0,1,0,4.19h-18a2.1,2.1,0,0,1,0-4.19ZM74.62,43.72a2.09,2.09,0,0,1-2.09,2.1H58.81a2.1,2.1,0,0,1,0-4.19H72.53A2.08,2.08,0,0,1,74.62,43.72ZM34,19.32v-2a2.09,2.09,0,0,1,4.18,0v2c4.34.82,7.58,4.06,7.58,7.93a2.1,2.1,0,0,1-4.19,0c0-1.6-1.42-3-3.39-3.63v7.76c5.57.86,7.71,5.13,7.71,7.93,0,3.9-3.31,7.17-7.71,7.95v2a2.09,2.09,0,1,1-4.18,0v-2c-4.33-.83-7.57-4.06-7.57-7.92a2.1,2.1,0,0,1,4.19,0c0,1.59,1.41,3,3.38,3.61v-7.7c-5.28-.87-7.69-5-7.69-8C26.27,23.38,29.57,20.11,34,19.32ZM24.67,54.09H72.53a2.1,2.1,0,0,1,0,4.19H24.67a2.1,2.1,0,0,1,0-4.19Z"/><path class="cls-1" d="M77,70.69l-.64,0a2.33,2.33,0,0,1-.38,0H75.8A13.52,13.52,0,1,0,77,70.69Zm8.61,9.76L77.11,91.7a2.09,2.09,0,0,1-1.67.83h0a2.11,2.11,0,0,1-1.68-.88L67.9,83.38A2.09,2.09,0,1,1,71.32,81l4.18,5.92,6.75-9a2.1,2.1,0,0,1,3.35,2.52Z"/><path class="cls-2" d="M64.45,96.78H23.55a11,11,0,0,1-11-11v-67a11,11,0,0,1,11-11h50.1a11,11,0,0,1,11,11V69.55a2.1,2.1,0,0,1-4.19,0V18.84a6.79,6.79,0,0,0-6.79-6.78H23.55a6.79,6.79,0,0,0-6.79,6.78v67a6.79,6.79,0,0,0,6.79,6.78h40.9a2.1,2.1,0,0,1,0,4.19Z"/><g id="complete"><path class="cls-2" d="M60.76,83.21H24.67a2.09,2.09,0,0,1,0-4.18H60.76a2.09,2.09,0,1,1,0,4.18Z"/><path class="cls-2" d="M76,70.75H24.67a2.1,2.1,0,0,1,0-4.19H76a2.1,2.1,0,0,1,0,4.19Z"/><path class="cls-2" d="M72.53,58.28H24.67a2.1,2.1,0,0,1,0-4.19H72.53a2.1,2.1,0,0,1,0,4.19Z"/><path class="cls-2" d="M72.53,45.82H58.81a2.1,2.1,0,0,1,0-4.19H72.53a2.1,2.1,0,0,1,0,4.19Z"/><path class="cls-2" d="M72.53,33.35h-18a2.1,2.1,0,0,1,0-4.19h18a2.1,2.1,0,0,1,0,4.19Z"/></g><path class="cls-3" d="M36.12,47.47c-5.36,0-9.73-3.65-9.73-8.13a2.1,2.1,0,0,1,4.19,0c0,2.14,2.54,3.94,5.54,3.94s5.54-1.8,5.54-3.94c0-1-1-3.91-5.59-3.91-6.76,0-9.8-4.77-9.8-8.15,0-4.49,4.36-8.14,9.72-8.14s9.73,3.65,9.73,8.14a2.1,2.1,0,0,1-4.19,0c0-2.14-2.54-4-5.54-4s-5.53,1.81-5.53,4c0,1.29,1.37,4,5.61,4,7.12,0,9.78,5,9.78,8.1C45.85,43.82,41.48,47.47,36.12,47.47Z"/><path class="cls-3" d="M36.05,51.35A2.09,2.09,0,0,1,34,49.25V17.36a2.09,2.09,0,0,1,4.18,0V49.25A2.09,2.09,0,0,1,36.05,51.35Z"/><path class="cls-2" d="M77,102.1a17.8,17.8,0,1,1,17.8-17.8A17.82,17.82,0,0,1,77,102.1Zm0-31.41A13.61,13.61,0,1,0,90.6,84.3,13.63,13.63,0,0,0,77,70.69Z"/><path class="cls-2" d="M75.44,92.53h0a2.11,2.11,0,0,1-1.68-.88L67.9,83.38A2.09,2.09,0,1,1,71.32,81l4.18,5.92,6.75-9a2.1,2.1,0,0,1,3.35,2.52L77.11,91.7A2.09,2.09,0,0,1,75.44,92.53Z"/></svg>