<svg id="_ÎÓÈ_1" data-name="—ÎÓÈ_1" xmlns="http://www.w3.org/2000/svg" viewBox="0 0 110 110"><defs><style>.cls-1{fill:#999898;}.cls-2{fill:#fff;}.cls-3{fill:#f6b81d;}.cls-4{fill:#231f20;}.cls-5{fill:#ddd;}</style></defs><path class="cls-1" d="M26.41,15.19a3,3,0,0,0,3,3H80.58a3,3,0,0,0,0-6H29.42A3,3,0,0,0,26.41,15.19Zm43.81-2.1a2.1,2.1,0,1,1-2.1,2.1A2.1,2.1,0,0,1,70.22,13.09ZM55,13.09a2.1,2.1,0,1,1-2.1,2.1A2.1,2.1,0,0,1,55,13.09Zm-15.26,0a2.1,2.1,0,1,1-2.1,2.1A2.11,2.11,0,0,1,39.7,13.09Z"/><path class="cls-2" d="M53.71,82.92V77.76a3,3,0,0,0-2.46,2.58A3,3,0,0,0,53.71,82.92Z"/><path class="cls-3" d="M22.57,15.19v.41s0-.09,0-.14A2.45,2.45,0,0,1,22.57,15.19Z"/><path class="cls-2" d="M59.14,88.83a3,3,0,0,0-2.48-2.58V91.4C58.1,91,59.14,90,59.14,88.83Z"/><path class="cls-2" d="M55,100.75A16.63,16.63,0,1,0,38.33,84.12,16.65,16.65,0,0,0,55,100.75Zm-1.25-26V73.36a1.48,1.48,0,1,1,2.95,0v1.39c3.05.58,5.34,2.86,5.34,5.59a1.48,1.48,0,0,1-3,0,3,3,0,0,0-2.39-2.56v5.46a6,6,0,0,1,5.43,5.59c0,2.75-2.33,5-5.43,5.59v1.39a1.48,1.48,0,0,1-2.95,0V94.4c-3-.58-5.32-2.85-5.32-5.57a1.48,1.48,0,0,1,3,0,3,3,0,0,0,2.37,2.54V86a6.07,6.07,0,0,1-5.41-5.61C48.3,77.59,50.63,75.29,53.71,74.74Z"/><path class="cls-4" d="M80.58,22H29.42a6.85,6.85,0,0,1,0-13.7H80.58a6.85,6.85,0,1,1,0,13.7ZM29.42,12.17a3,3,0,0,0,0,6H80.58a3,3,0,0,0,0-6Z"/><path class="cls-4" d="M55,13.09a2.1,2.1,0,1,0,2.1,2.1A2.1,2.1,0,0,0,55,13.09Z"/><path class="cls-4" d="M39.7,13.09a2.1,2.1,0,1,0,2.1,2.1A2.1,2.1,0,0,0,39.7,13.09Z"/><path class="cls-4" d="M70.22,13.09a2.1,2.1,0,1,0,2.1,2.1A2.1,2.1,0,0,0,70.22,13.09Z"/><path class="cls-4" d="M35.68,86H32a9.45,9.45,0,0,1-9.43-9.45v-61a1.92,1.92,0,0,1,3.84,0v61A5.6,5.6,0,0,0,32,82.2h3.68a1.92,1.92,0,0,1,0,3.84Z"/><path class="cls-4" d="M77.92,86H74.38a1.92,1.92,0,0,1,0-3.84h3.54a5.6,5.6,0,0,0,5.59-5.61V26a1.92,1.92,0,1,1,3.84,0v50.6A9.45,9.45,0,0,1,77.92,86Z"/><path class="cls-4" d="M76.16,31.11H33.76a1.92,1.92,0,0,1,0-3.83h42.4a1.92,1.92,0,0,1,0,3.83Z"/><path class="cls-4" d="M72.13,39.93H37.79a1.92,1.92,0,1,1,0-3.83H72.13a1.92,1.92,0,1,1,0,3.83Z"/><path class="cls-4" d="M72.13,48.75H37.79a1.92,1.92,0,1,1,0-3.83H72.13a1.92,1.92,0,1,1,0,3.83Z"/><path class="cls-4" d="M72.13,57.57H37.79a1.92,1.92,0,1,1,0-3.83H72.13a1.92,1.92,0,1,1,0,3.83Z"/><path class="cls-5" d="M83.59,21.33a6.77,6.77,0,0,1-3,.71H29.42a6.77,6.77,0,0,1-3-.71V76.59A5.6,5.6,0,0,0,32,82.2h2.6a20.45,20.45,0,0,1,40.72,0h2.6a5.6,5.6,0,0,0,5.59-5.61V26a2.25,2.25,0,0,1,.08-.52V21.33ZM72.13,57.57H37.79a1.92,1.92,0,1,1,0-3.83H72.13a1.92,1.92,0,1,1,0,3.83Zm0-8.82H37.79a1.92,1.92,0,1,1,0-3.83H72.13a1.92,1.92,0,1,1,0,3.83Zm0-8.82H37.79a1.92,1.92,0,1,1,0-3.83H72.13a1.92,1.92,0,1,1,0,3.83Zm4-8.82H33.76a1.92,1.92,0,0,1,0-3.83h42.4a1.92,1.92,0,0,1,0,3.83Z"/><path class="cls-3" d="M55.24,94.55c-3.78,0-6.85-2.57-6.85-5.72a1.48,1.48,0,0,1,3,0c0,1.5,1.78,2.77,3.9,2.77s3.9-1.27,3.9-2.77c0-.71-.72-2.75-3.94-2.75-4.76,0-6.9-3.36-6.9-5.75,0-3.15,3.07-5.72,6.85-5.72S62,77.18,62,80.33a1.48,1.48,0,1,1-3,0c0-1.5-1.79-2.77-3.9-2.77s-3.9,1.27-3.9,2.77c0,.92,1,2.8,4,2.8,5,0,6.89,3.5,6.89,5.7C62.09,92,59,94.55,55.24,94.55Z"/><path class="cls-3" d="M55.19,97.28a1.47,1.47,0,0,1-1.48-1.47V73.36a1.48,1.48,0,1,1,2.95,0V95.81A1.47,1.47,0,0,1,55.19,97.28Z"/><path class="cls-3" d="M55,104.58A20.46,20.46,0,1,1,75.42,84.12,20.49,20.49,0,0,1,55,104.58Zm0-37.09A16.63,16.63,0,1,0,71.59,84.12,16.65,16.65,0,0,0,55,67.49Z"/></svg>