<svg id="_ÎÓÈ_1" data-name="—ÎÓÈ_1" xmlns="http://www.w3.org/2000/svg" viewBox="0 0 240 240"><defs><style>.cls-1{fill:#0074b8;}.cls-2{fill:#242c3c;}.cls-3{fill:#afdde8;}.cls-4{fill:#445672;}.cls-5{fill:#5d6b82;}.cls-6{fill:#02668e;}</style></defs><circle class="cls-1" cx="120" cy="120" r="119.29"/><rect class="cls-2" x="55.77" y="37.41" width="128.47" height="165.17"/><polygon class="cls-3" points="175.06 46.59 64.94 46.59 64.94 193.41 156.71 193.41 175.06 175.06 175.06 46.59"/><polygon class="cls-4" points="156.71 193.41 175.06 175.06 156.71 175.06 156.71 193.41"/><rect class="cls-2" x="83.3" y="64.94" width="18.35" height="4.59"/><rect class="cls-2" x="110.82" y="64.94" width="18.35" height="4.59"/><rect class="cls-2" x="138.35" y="64.94" width="18.35" height="4.59"/><rect class="cls-2" x="83.3" y="74.12" width="18.35" height="4.59"/><rect class="cls-2" x="110.82" y="74.12" width="18.35" height="4.59"/><rect class="cls-2" x="138.35" y="74.12" width="18.35" height="4.59"/><rect class="cls-2" x="83.3" y="83.3" width="18.35" height="4.59"/><rect class="cls-2" x="110.82" y="83.3" width="18.35" height="4.59"/><rect class="cls-2" x="138.35" y="83.3" width="18.35" height="4.59"/><rect class="cls-2" x="83.3" y="92.47" width="18.35" height="4.59"/><rect class="cls-2" x="110.82" y="92.47" width="18.35" height="4.59"/><rect class="cls-2" x="138.35" y="92.47" width="18.35" height="4.59"/><rect class="cls-2" x="83.3" y="101.65" width="18.35" height="4.59"/><rect class="cls-2" x="110.82" y="101.65" width="18.35" height="4.59"/><rect class="cls-2" x="138.35" y="101.65" width="18.35" height="4.59"/><rect class="cls-2" x="83.3" y="110.82" width="18.35" height="4.59"/><rect class="cls-2" x="110.82" y="110.82" width="18.35" height="4.59"/><rect class="cls-2" x="138.35" y="110.82" width="18.35" height="4.59"/><rect class="cls-2" x="83.3" y="120" width="18.35" height="4.59"/><rect class="cls-2" x="110.82" y="120" width="18.35" height="4.59"/><rect class="cls-2" x="138.35" y="120" width="18.35" height="4.59"/><rect class="cls-2" x="83.3" y="129.18" width="18.35" height="4.59"/><rect class="cls-2" x="110.82" y="129.18" width="18.35" height="4.59"/><rect class="cls-2" x="138.35" y="129.18" width="18.35" height="4.59"/><rect class="cls-2" x="83.3" y="138.35" width="18.35" height="4.59"/><rect class="cls-2" x="110.82" y="138.35" width="18.35" height="4.59"/><rect class="cls-2" x="138.35" y="138.35" width="18.35" height="4.59"/><rect class="cls-2" x="83.3" y="147.53" width="18.35" height="4.59"/><rect class="cls-2" x="110.82" y="147.53" width="18.35" height="4.59"/><rect class="cls-2" x="138.35" y="147.53" width="18.35" height="4.59"/><rect class="cls-2" x="83.3" y="156.7" width="18.35" height="4.59"/><rect class="cls-2" x="110.82" y="156.7" width="18.35" height="4.59"/><rect class="cls-2" x="138.35" y="156.7" width="18.35" height="4.59"/><rect class="cls-2" x="83.3" y="165.88" width="18.35" height="4.59"/><rect class="cls-2" x="110.82" y="165.88" width="18.35" height="4.59"/><rect class="cls-2" x="138.35" y="165.88" width="18.35" height="4.59"/><path class="cls-5" d="M138.35,42a9.17,9.17,0,0,1-9.17-9.17,9.18,9.18,0,0,0-18.36,0A9.17,9.17,0,0,1,101.65,42a9.18,9.18,0,0,0-9.18,9.18v4.59l2.3-2.3,2.29,2.3,2.29-2.3,2.3,2.3,2.29-2.3,2.3,2.3,2.29-2.3,2.29,2.3,2.3-2.3,2.29,2.3,2.3-2.3,2.29,2.3,2.29-2.3,2.3,2.3,2.29-2.3,2.3,2.3,2.29-2.3,2.29,2.3,2.3-2.3,2.29,2.3,2.3-2.3,2.29,2.3,2.29-2.3,2.3,2.3V51.18A9.18,9.18,0,0,0,138.35,42ZM120,35.12a2.3,2.3,0,1,1,2.29-2.29A2.29,2.29,0,0,1,120,35.12Z"/><path class="cls-4" d="M120,35.12a2.3,2.3,0,0,0,1.62-3.92l-3.24,3.25A2.3,2.3,0,0,0,120,35.12Z"/><path class="cls-4" d="M117.71,32.83a2.27,2.27,0,0,0,.67,1.62l3.24-3.25a2.29,2.29,0,0,0-3.91,1.63Z"/><path class="cls-4" d="M129.18,32.83a9.12,9.12,0,0,0,1.23,4.58h7.16L126.49,26.34h0A9.14,9.14,0,0,1,129.18,32.83Z"/><path class="cls-6" d="M235,88.18,184.23,37.41V202.59H55.77L88.18,235A119.39,119.39,0,0,0,235,88.18Z"/></svg>