<svg id="_ÎÓÈ_1" data-name="—ÎÓÈ_1" xmlns="http://www.w3.org/2000/svg" viewBox="0 0 590 250"><defs><style>.cls-1{fill:#ccc;}</style></defs><path class="cls-1" d="M25.15,136.26h497a0,0,0,0,1,0,0v71.9a20.54,20.54,0,0,1-20.54,20.54H45.69a20.54,20.54,0,0,1-20.54-20.54v-71.9a0,0,0,0,1,0,0Z"/><path class="cls-1" d="M23.21,109.05A16.63,16.63,0,1,1,39.84,92.42,16.64,16.64,0,0,1,23.21,109.05Zm0-24.18a7.56,7.56,0,1,0,7.56,7.55A7.56,7.56,0,0,0,23.21,84.87Z"/><path class="cls-1" d="M549.27,199.85a3.64,3.64,0,0,1-1.81-.49,3.58,3.58,0,0,1-1.77-3.09v-36a3.58,3.58,0,0,1,5.32-3.12l32.3,18a3.57,3.57,0,0,1,0,6.25l-32.3,18A3.58,3.58,0,0,1,549.27,199.85Zm3.58-33.47v23.8l21.37-11.9Z"/><path class="cls-1" d="M21.35,161.74a4.53,4.53,0,0,1-4.53-4.53V130.7h505.3V41.91a22.4,22.4,0,0,0-22.37-22.38H48.26A22.4,22.4,0,0,0,25.89,41.91V78.59a4.54,4.54,0,0,1-9.07,0V41.91A31.47,31.47,0,0,1,48.26,10.47H499.75a31.48,31.48,0,0,1,31.44,31.44v97.86H25.89v17.44A4.53,4.53,0,0,1,21.35,161.74Z"/><path class="cls-1" d="M499.75,236.79H43.65A26.86,26.86,0,0,1,16.82,210a4.54,4.54,0,0,1,9.07,0,17.78,17.78,0,0,0,17.76,17.76h456.1a22.4,22.4,0,0,0,22.37-22.37V173.89H546a4.53,4.53,0,1,1,0,9.06H531.19v22.4A31.48,31.48,0,0,1,499.75,236.79Z"/><g id="team"><path class="cls-1" d="M225.33,79.8c-10.13,0-19.71-12.12-19.71-24.93,0-12,8.29-20.71,19.71-20.71s19.72,8.71,19.72,20.71C245.05,67.45,235.28,79.8,225.33,79.8Zm0-40c-8.27,0-14.05,6.18-14.05,15,0,9.72,7,19.26,14.05,19.26,6.83,0,14-9.9,14-19.26C239.38,46,233.6,39.83,225.33,39.83Z"/></g><path class="cls-1" d="M227.63,110c-21,0-30.81-5.32-32.91-17.24-1.49-8.44,1.08-15.75,7.23-20.58a37.19,37.19,0,0,1,10-5.67,2.83,2.83,0,1,1,2,5.3,31.63,31.63,0,0,0-8.51,4.83c-4.51,3.52-6.29,8.76-5.16,15.13,1.36,7.75,7.16,14.55,40.09,12a2.83,2.83,0,1,1,.43,5.65Q233.59,110,227.63,110Z"/><path class="cls-1" d="M248.43,78.63a2.82,2.82,0,0,1-2-.83c-.75-.64-5.83-4.43-9.16-5.59a2.83,2.83,0,1,1,1.85-5.35c4.64,1.61,10.76,6.38,11.31,6.93a2.84,2.84,0,0,1-2,4.84Z"/><g id="team-2" data-name="team"><path class="cls-1" d="M322,79.8c-9.94,0-19.71-12.35-19.71-24.93,0-12,8.29-20.71,19.71-20.71s19.72,8.71,19.72,20.71C341.69,67.68,332.11,79.8,322,79.8Zm0-40c-8.27,0-14,6.18-14,15,0,9.36,7.22,19.26,14,19.26,7.09,0,14-9.54,14-19.26C336,46,330.25,39.83,322,39.83Z"/></g><path class="cls-1" d="M319.64,110.05c-3.91,0-8.21-.19-12.93-.54a2.84,2.84,0,0,1,.43-5.66c32.76,2.5,38.51-4.31,39.85-12,.79-4.46.54-10.7-5.12-15.14a31.8,31.8,0,0,0-8.56-4.83,2.83,2.83,0,1,1,2-5.3,37.68,37.68,0,0,1,10.07,5.67c6.13,4.81,8.69,12.12,7.2,20.58C350.49,104.73,340.72,110.05,319.64,110.05Z"/><path class="cls-1" d="M298.73,78.69a2.81,2.81,0,0,1-2-4.79c.57-.57,6.84-5.48,11.64-7.14a2.83,2.83,0,1,1,1.85,5.35c-3.47,1.21-8.71,5.13-9.57,5.88A2.88,2.88,0,0,1,298.73,78.69Z"/><g id="team-3" data-name="team"><path class="cls-1" d="M273.65,83.41c-12,0-23.32-14.41-23.32-29.65,0-14.21,9.81-24.53,23.32-24.53S297,39.55,297,53.76C297,68.72,285.42,83.41,273.65,83.41Zm0-48.51C263.26,34.9,256,42.65,256,53.76c0,12.1,8.74,24,17.65,24,8.58,0,17.66-12.33,17.66-24C291.31,42.65,284.05,34.9,273.65,34.9Z"/></g><path class="cls-1" d="M273.85,121.87a123.65,123.65,0,0,1-17.64-1.27A24.62,24.62,0,0,1,235.78,102l-.25-1a24.66,24.66,0,0,1,8.74-25.14,46.5,46.5,0,0,1,12.33-7,2.83,2.83,0,1,1,2,5.3,40.78,40.78,0,0,0-10.82,6.12A19,19,0,0,0,241,99.68l.25,1A19,19,0,0,0,257,115a118.65,118.65,0,0,0,32.06.24l1.18-.17a18.94,18.94,0,0,0,9.29-33.69l-1.34-1.05A40.33,40.33,0,0,0,288,74.43,2.83,2.83,0,0,1,290,69.16a46,46,0,0,1,11.68,6.71l1.33,1a24.6,24.6,0,0,1-12,43.75l-1.18.17A124.38,124.38,0,0,1,273.85,121.87Z"/></svg>