<svg id="_ÎÓÈ_1" data-name="—ÎÓÈ_1" xmlns="http://www.w3.org/2000/svg" viewBox="0 0 590 250"><defs><style>.cls-1{fill:#ccc;}</style></defs><path class="cls-1" d="M500.41,228.78H45.61a22.11,22.11,0,0,1-22.1-22.1V136.33h499v70.35A22.1,22.1,0,0,1,500.41,228.78Z"/><path class="cls-1" d="M16.82,211.4a25.49,25.49,0,0,0,25.45,25.46H499.75a31.49,31.49,0,0,0,31.44-31.45V183h17a4.54,4.54,0,1,0,0-9.07h-26v31.46a22.4,22.4,0,0,1-22.37,22.38H42.27A16.4,16.4,0,0,1,25.89,211.4V139.77h505.3V41.91a31.48,31.48,0,0,0-31.44-31.44H48.26A31.47,31.47,0,0,0,16.82,41.91V78.59a4.54,4.54,0,0,0,9.07,0V41.91A22.4,22.4,0,0,1,48.26,19.53H499.75a22.4,22.4,0,0,1,22.37,22.38V130.7H16.82v80.7Z"/><path class="cls-1" d="M549.27,199.92a3.6,3.6,0,0,1-3.58-3.58v-36a3.58,3.58,0,0,1,5.32-3.12l32.3,18a3.57,3.57,0,0,1,0,6.25l-32.3,18A3.58,3.58,0,0,1,549.27,199.92Zm3.58-33.47v23.8l21.37-11.9Z"/><path class="cls-1" d="M334.69,72.7a2.31,2.31,0,0,1,4-1.6,2.53,2.53,0,0,1,.28.35,2.32,2.32,0,0,1-3.54,3,2.15,2.15,0,0,1-.32-.41A2.3,2.3,0,0,1,334.69,72.7Z"/><path class="cls-1" d="M223.53,72.8a2.3,2.3,0,0,1,.31-1.17l4.95-8.5,0-9.43A2.31,2.31,0,0,1,231,51.38l36.55-1.16a7.08,7.08,0,0,1,5.77,2.86,2.81,2.81,0,0,0,4.51-.13,7.21,7.21,0,0,1,5.67-3.23l8.56-.27a5.78,5.78,0,0,1,5.27,3.15,2.82,2.82,0,0,0,2.5,1.53,2.78,2.78,0,0,0,1.49-.43,2.59,2.59,0,0,0,.86-.81,5.89,5.89,0,0,1,6-2.67C321.94,52.74,332.9,60.33,339,71.59a1.75,1.75,0,0,1,.11.24,2.58,2.58,0,0,1-.06,2.09C333,85.27,321.9,92.88,308,95.32a5.63,5.63,0,0,1-5.72-2.75,2.86,2.86,0,0,0-2.41-1.31,2.75,2.75,0,0,0-2.47,1.49A5.75,5.75,0,0,1,292,96l-8.58-.29a7.17,7.17,0,0,1-5.61-3.18,2.83,2.83,0,0,0-2.32-1.21,2.8,2.8,0,0,0-2.19,1,7.06,7.06,0,0,1-5.71,2.78l-36.55-1.28a2.31,2.31,0,0,1-2.24-2.3l0-9.41L223.87,74A2.28,2.28,0,0,1,223.53,72.8Zm9.89-9a2.24,2.24,0,0,1-.31,1.16l-4.57,7.86,4.57,7.5a2.29,2.29,0,0,1,.34,1.2l0,7.82,34.32,1.19a2.56,2.56,0,0,0,2-1.06,7.44,7.44,0,0,1,11.88.4,2.64,2.64,0,0,0,2,1.23l8.58.29a1.19,1.19,0,0,0,1.05-.71,7.39,7.39,0,0,1,6.59-4,7.5,7.5,0,0,1,6.31,3.46c.25.4.64.74,1,.67,8.62-1.51,20.21-5.86,27.26-18-7-12-18.53-16.46-27.07-18a1.33,1.33,0,0,0-1.29.67,7.11,7.11,0,0,1-2.27,2.19,7.44,7.44,0,0,1-10.55-2.89,1.19,1.19,0,0,0-1-.67l-8.54.28a2.63,2.63,0,0,0-2,1.24A7.43,7.43,0,0,1,269.7,56a2.61,2.61,0,0,0-2-1.1L233.4,55.94l0,7.8Z"/><path class="cls-1" d="M232.78,72.71a2.32,2.32,0,0,1,2.32-2.31h23.65a2.32,2.32,0,1,1,0,4.63H235.1A2.32,2.32,0,0,1,232.78,72.71Z"/><path class="cls-1" d="M297.53,87.74V57.68a2.32,2.32,0,0,1,4.63,0V87.74a2.32,2.32,0,1,1-4.63,0Z"/><path class="cls-1" d="M273.17,87.05V58.37a2.32,2.32,0,0,1,4.63,0V87.05a2.32,2.32,0,1,1-4.63,0Z"/><path class="cls-1" d="M231,53.1c0-.09,0-.19,0-.29l2.47-20a2.32,2.32,0,0,1,2.75-2c.61.12,15.26,3.17,25.42,19.89a2.32,2.32,0,0,1-4,2.4,39.73,39.73,0,0,0-20-17l-2.14,17.23A2.31,2.31,0,0,1,231,53.1Z"/><path class="cls-1" d="M231,92.3a2.31,2.31,0,0,1,4.61-.28l2.14,17.23a39.77,39.77,0,0,0,20-17,2.32,2.32,0,0,1,4,2.4c-10.16,16.72-24.81,19.77-25.42,19.89a2.33,2.33,0,0,1-1.81-.4,2.3,2.3,0,0,1-.94-1.59l-2.47-20A2.83,2.83,0,0,1,231,92.3Z"/><path class="cls-1" d="M215.37,62.47a2.32,2.32,0,0,1,2.32-2.31h3.93a2.32,2.32,0,0,1,0,4.63h-3.93A2.32,2.32,0,0,1,215.37,62.47Z"/><path class="cls-1" d="M215.37,82.93a2.31,2.31,0,0,1,2.32-2.31h3.93a2.31,2.31,0,1,1,0,4.62h-3.93A2.31,2.31,0,0,1,215.37,82.93Z"/><path class="cls-1" d="M207.46,72.7a2.31,2.31,0,0,1,2.31-2.31h3.93a2.31,2.31,0,1,1,0,4.62h-3.93A2.31,2.31,0,0,1,207.46,72.7Z"/></svg>