<svg id="_ÎÓÈ_1" data-name="—ÎÓÈ_1" xmlns="http://www.w3.org/2000/svg" viewBox="0 0 110 110"><defs><style>.cls-1{fill:#fff;}.cls-2{fill:#ddd;}.cls-3{fill:#231f20;}.cls-4{fill:#f6b81d;}</style></defs><path class="cls-1" d="M69.41,82.25V88c1.6-.47,2.77-1.59,2.77-2.86A3.32,3.32,0,0,0,69.41,82.25Z"/><path class="cls-1" d="M63.38,75.66a3.38,3.38,0,0,0,2.75,2.88V72.79C64.54,73.26,63.38,74.38,63.38,75.66Z"/><path class="cls-1" d="M77.28,21.67H23.69a5,5,0,0,0-5,5V91.83a5,5,0,0,0,5,5H77.28a5,5,0,0,0,5-5V26.64A5,5,0,0,0,77.28,21.67ZM51,91.68H30.89a1.64,1.64,0,0,1,0-3.27H51a1.64,1.64,0,1,1,0,3.27Zm0-9.93H30.89a1.64,1.64,0,0,1,0-3.27H51a1.64,1.64,0,1,1,0,3.27Zm7-9.93H30.89a1.64,1.64,0,0,1,0-3.27H58a1.64,1.64,0,1,1,0,3.27ZM30.89,48.69H70.06a1.64,1.64,0,0,1,0,3.27H30.89a1.64,1.64,0,0,1,0-3.27ZM29.26,40.4a1.63,1.63,0,0,1,1.63-1.64H70.06a1.64,1.64,0,0,1,0,3.27H30.89A1.63,1.63,0,0,1,29.26,40.4Zm1.63,18.22H70.06a1.64,1.64,0,0,1,0,3.27H30.89a1.64,1.64,0,0,1,0-3.27ZM69.41,91.36V92.9a1.64,1.64,0,0,1-3.28,0V91.34c-3.39-.65-5.93-3.19-5.93-6.21a1.64,1.64,0,1,1,3.28,0c0,1.24,1.11,2.35,2.65,2.83v-6c-4.14-.69-6-3.9-6-6.26,0-3.06,2.59-5.62,6-6.24V67.88a1.64,1.64,0,0,1,3.28,0v1.56c3.4.64,6,3.19,6,6.22a1.65,1.65,0,0,1-3.29,0c0-1.26-1.11-2.36-2.66-2.84V78.9c4.37.68,6,4,6,6.23C75.46,88.19,72.86,90.75,69.41,91.36ZM74.64,32.1H26.31a1.64,1.64,0,1,1,0-3.27H74.64a1.64,1.64,0,1,1,0,3.27Z"/><path class="cls-2" d="M86.31,12.64H32.72a5,5,0,0,0-5,5v.79H77.28a8.25,8.25,0,0,1,8.24,8.24V87.77h.79a5,5,0,0,0,5-5V17.61A5,5,0,0,0,86.31,12.64Z"/><path class="cls-3" d="M74.64,32.1H26.31a1.64,1.64,0,1,1,0-3.27H74.64a1.64,1.64,0,1,1,0,3.27Z"/><path class="cls-3" d="M70.06,42H30.89a1.64,1.64,0,0,1,0-3.27H70.06a1.64,1.64,0,0,1,0,3.27Z"/><path class="cls-3" d="M70.06,52H30.89a1.64,1.64,0,0,1,0-3.27H70.06a1.64,1.64,0,0,1,0,3.27Z"/><path class="cls-3" d="M70.06,61.89H30.89a1.64,1.64,0,0,1,0-3.27H70.06a1.64,1.64,0,0,1,0,3.27Z"/><path class="cls-3" d="M58,71.82H30.89a1.64,1.64,0,0,1,0-3.27H58a1.64,1.64,0,1,1,0,3.27Z"/><path class="cls-3" d="M51,81.75H30.89a1.64,1.64,0,0,1,0-3.27H51a1.64,1.64,0,1,1,0,3.27Z"/><path class="cls-3" d="M51,91.68H30.89a1.64,1.64,0,0,1,0-3.27H51a1.64,1.64,0,1,1,0,3.27Z"/><path class="cls-3" d="M77.28,100.07H23.69a8.25,8.25,0,0,1-8.25-8.24V26.64a8.26,8.26,0,0,1,8.25-8.24H77.28a8.25,8.25,0,0,1,8.24,8.24V91.83A8.25,8.25,0,0,1,77.28,100.07ZM23.69,21.67a5,5,0,0,0-5,5V91.83a5,5,0,0,0,5,5H77.28a5,5,0,0,0,5-5V26.64a5,5,0,0,0-5-5Z"/><path class="cls-3" d="M86.31,91H84.68a1.64,1.64,0,1,1,0-3.27h1.63a5,5,0,0,0,5-5V17.61a5,5,0,0,0-5-5H32.72a5,5,0,0,0-5,5V19a1.64,1.64,0,1,1-3.27,0v-1.4a8.26,8.26,0,0,1,8.24-8.25H86.31a8.26,8.26,0,0,1,8.25,8.25V82.79A8.26,8.26,0,0,1,86.31,91Z"/><path class="cls-4" d="M67.82,91.5c-4.2,0-7.62-2.86-7.62-6.37a1.64,1.64,0,1,1,3.28,0c0,1.67,2,3.08,4.34,3.08s4.35-1.41,4.35-3.08c0-.8-.8-3.07-4.38-3.07-5.31,0-7.69-3.74-7.69-6.4,0-3.52,3.42-6.38,7.62-6.38s7.64,2.86,7.64,6.38a1.65,1.65,0,0,1-3.29,0c0-1.68-2-3.1-4.35-3.1s-4.34,1.42-4.34,3.1c0,1,1.08,3.11,4.41,3.11,5.59,0,7.67,3.9,7.67,6.36C75.46,88.64,72,91.5,67.82,91.5Z"/><path class="cls-4" d="M67.77,94.54a1.63,1.63,0,0,1-1.64-1.64v-25a1.64,1.64,0,0,1,3.28,0v25A1.63,1.63,0,0,1,67.77,94.54Z"/></svg>