<svg version="1.1" id="Layer_1" xmlns="http://www.w3.org/2000/svg" x="0" y="0" viewBox="0 0 512 512" xml:space="preserve" class="icon lpanel" style="color: white; width: 16px;"><path d="M448 64v384H64V64h384m0-32H64c-17.7 0-32 14.3-32 32v384c0 17.7 14.3 32 32 32h384c17.7 0 32-14.3 32-32V64c0-17.7-14.3-32-32-32z"></path><path d="M288 368c0 8.8 7.2 16 16 16h80c8.8 0 16-7.2 16-16s-7.2-16-16-16h-80c-8.8 0-16 7.2-16 16zM128 192h32v32.7c0 8.7 8.1 15.9 16.9 15.9s16.1-7.1 16.1-15.9V192h31.1c8.7 0 15.8-7.8 15.8-16.5s-7.1-15.4-15.9-15.4h-31.1v-32.8c0-8.7-7.2-15.8-16.1-15.8s-16.7 7-16.7 15.8v32.8h-32.3c-8.7 0-15.9 7.2-15.9 15.9.1 8.7 7.4 16 16.1 16zM133 379.2c3 3 7 4.6 11.1 4.6 4 0 8-1.6 11.1-4.6l192.1-192.4c6.1-6.1 6.1-16.1 0-22.2-6.1-6.1-16.1-6.1-22.2 0L133 357c-6.2 6.1-6.2 16.1 0 22.2z"></path></svg>