<?xml version="1.0" encoding="utf-8"?>
<!-- Generator: Adobe Illustrator 24.0.1, SVG Export Plug-In . SVG Version: 6.00 Build 0)  -->
<svg version="1.1" xmlns="http://www.w3.org/2000/svg" xmlns:xlink="http://www.w3.org/1999/xlink" x="0px" y="0px"
	 viewBox="0 0 738.1 236.79" style="enable-background:new 0 0 738.1 236.79;" xml:space="preserve">
<style type="text/css">
	.st0{display:none;}
	.st1{fill:#006DB7;}
	.st2{fill:#84CCC9;}
	.st3{fill:#FFFFFF;}
	.st4{fill:#2F3030;}
	.st5{fill:#0072BF;}
	.st6{fill:#2E3030;}
	.st7{fill:#284299;}
</style>
<g id="圖層_1" class="st0">
</g>
<g id="圖層_4" class="st0">
</g>
<g id="logo1">
</g>
<g id="logo2">
</g>
<g id="logo3">
</g>
<g id="logo4">
	<g>
		<path class="st2" d="M296.89,90.51h17.01v46.82h-17.01V90.51z"/>
		<path class="st5" d="M331.21,98.38h28.83v15.25h-28.83V98.38z"/>
		<path class="st5" d="M449.65,137.43h-16.91V93.69l-10.7,16.23v27.51h-16.52V110.5l-10.9-16.52v43.44h-16.71V66.66h18.03
			l17.89,27.22l17.84-27.22h17.98V137.43z"/>
		<path class="st5" d="M534.29,137.72H516.6l-20.43-50.24l-14.71,36.16h15.49v14.07h-38.51l30.1-70.96h15.54L534.29,137.72z"/>
		<path class="st5" d="M603.05,137.33h-20.04l-22.92-26.19v26.19h-17.01V66.66h17.01v26.24l22.92-26.24h20.04L571.92,102
			L603.05,137.33z"/>
		<path class="st5" d="M611.85,66.76h54.44v14.32h-54.44V66.76z M627.14,123.01h39.14v14.32h-54.44V94.91h34.01v14.32h-18.72V123.01
			z"/>
		<path class="st5" d="M737.44,137.33h-19.5l-24.92-36.6h13.88c7,0,10.69-3.21,11.04-9.63c0-6.52-3.78-9.82-11.34-9.92h-14.51v56.15
			h-17.01V66.66h32.84c9.19,0,16.26,2.48,21.21,7.43c4.01,4.07,6.01,9.4,6.01,15.98c0,11.53-4.97,18.88-14.9,22.04L737.44,137.33z"
			/>
		<g>
			<path class="st6" d="M296.89,165.63h17.01v70.66h-17.01V165.63z"/>
			<path class="st6" d="M392.36,236.4h-14.51l-32.64-42.81v42.81h-16.81v-70.76h15.49l31.57,41.44v-41.44h16.91V236.4z"/>
			<path class="st6" d="M406.87,165.63h18.62l17.59,47.55l17.64-47.55h18.23l-28.54,71.15h-15L406.87,165.63z"/>
			<path class="st6" d="M521.99,236.4c-5.41,0-10.38-0.93-14.9-2.79c-4.53-1.92-8.44-4.5-11.73-7.72c-3.19-3.16-5.7-6.86-7.53-11.09
				c-1.79-4.27-2.69-8.81-2.69-13.63v-0.2c0-4.89,0.9-9.45,2.69-13.68c1.86-4.23,4.4-7.98,7.62-11.24
				c3.29-3.29,7.23-5.88,11.83-7.77c4.53-1.89,9.5-2.83,14.9-2.83c5.51,0,10.51,0.95,15,2.83c4.53,1.89,8.41,4.45,11.63,7.67
				c3.26,3.22,5.78,6.94,7.57,11.14c1.79,4.23,2.69,8.8,2.69,13.68v0.2c0,4.82-0.9,9.37-2.69,13.63c-1.86,4.2-4.43,7.96-7.72,11.29
				c-3.19,3.23-7.09,5.8-11.68,7.72C532.49,235.47,527.49,236.4,521.99,236.4z M522.18,221.98c2.8,0,5.41-0.49,7.82-1.47
				c2.41-1.07,4.46-2.56,6.16-4.45c1.79-1.86,3.16-4.09,4.1-6.7c1.01-2.57,1.52-5.31,1.52-8.21v-0.2c0-3-0.51-5.77-1.52-8.31
				c-0.98-2.57-2.38-4.8-4.2-6.7c-1.79-1.89-3.89-3.39-6.3-4.5c-2.38-1.07-4.97-1.61-7.77-1.61c-2.8,0-5.41,0.54-7.82,1.61
				c-2.38,1.01-4.42,2.48-6.11,4.4c-1.79,1.89-3.19,4.09-4.2,6.6c-1.01,2.54-1.52,5.31-1.52,8.31v0.2c0,2.9,0.5,5.67,1.52,8.31
				c1.01,2.54,2.41,4.77,4.2,6.7c1.79,1.92,3.89,3.4,6.3,4.45C516.77,221.46,519.38,221.98,522.18,221.98z"/>
			<path class="st6" d="M573.58,165.63h17.01v70.66h-17.01V165.63z"/>
			<path class="st6" d="M640.62,236.3c-10.29,0-18.8-3.44-25.51-10.31c-6.68-6.81-10.02-15.12-10.02-24.92
				c0-9.71,3.34-18.02,10.02-24.92c6.61-7,15.31-10.51,26.1-10.51c6.52,0,11.96,1.01,16.32,3.03c4.3,1.92,8,4.48,11.09,7.67
				l-10.16,11.83c-5.15-5.47-10.93-8.21-17.35-8.21c-5.41,0-9.9,2.04-13.49,6.11c-3.62,3.98-5.42,8.91-5.42,14.81s1.81,10.9,5.42,15
				c3.49,4.07,7.98,6.11,13.49,6.11c7.33,0,13.24-2.83,17.74-8.5l10.31,10.41c-3.45,3.88-7.4,6.92-11.83,9.14
				C652.9,235.21,647.33,236.3,640.62,236.3z"/>
			<path class="st6" d="M683.66,165.73h54.44v14.32h-54.44V165.73z M698.95,221.98h39.14v14.32h-54.44v-42.42h34.01v14.32h-18.72
				V221.98z"/>
		</g>
		<circle class="st2" cx="305.39" cy="75.17" r="8.5"/>
		<polygon class="st5" points="0,97.17 0,236.09 39.18,236.09 112.24,179.1 		"/>
		<polygon class="st2" points="64.45,236.09 249.95,97.17 249.95,236.09 		"/>
		<polygon class="st7" points="125.23,171.02 5.34,85.1 125.47,0 245.59,86.28 		"/>
		<path class="st3" d="M133.44,55.81h-16.31c-2.7,0-4.89-2.19-4.89-4.89V37.74c0-2.7,2.19-4.89,4.89-4.89h16.31
			c2.7,0,4.89,2.19,4.89,4.89v13.18C138.33,53.62,136.14,55.81,133.44,55.81z"/>
		<path class="st3" d="M133.69,141.96h-16.81c-2.56,0-4.64-2.08-4.64-4.64V74c0-2.56,2.08-4.64,4.64-4.64h16.81
			c2.56,0,4.64,2.08,4.64,4.64v63.32C138.33,139.89,136.25,141.96,133.69,141.96z"/>
	</g>
</g>
<g id="imaker_logo">
</g>
</svg>
