<?xml version="1.0" encoding="utf-8"?>
<!-- Generator: Adobe Illustrator 24.0.1, SVG Export Plug-In . SVG Version: 6.00 Build 0)  -->
<svg version="1.1" xmlns="http://www.w3.org/2000/svg" xmlns:xlink="http://www.w3.org/1999/xlink" x="0px" y="0px"
	 viewBox="0 0 765.54 257.6" style="enable-background:new 0 0 765.54 257.6;" xml:space="preserve">
<style type="text/css">
	.st0{display:none;}
	.st1{fill:#006DB7;}
	.st2{fill:#84CCC9;}
	.st3{fill:#FFFFFF;}
	.st4{fill:#2F3030;}
	.st5{fill:#0072BF;}
	.st6{fill:#2E3030;}
	.st7{fill:#284299;}
</style>
<g id="圖層_1" class="st0">
</g>
<g id="圖層_4" class="st0">
</g>
<g id="logo1">
</g>
<g id="logo2">
</g>
<g id="logo3">
</g>
<g id="logo4">
	<g>
		<path class="st1" d="M255.42,255.42H77.34C34.63,255.42,0,220.79,0,178.08V0h178.08c42.72,0,77.34,34.63,77.34,77.34V255.42z"/>
		<path class="st7" d="M254.78,67.34l0.64,188.08c0,0-142.19,5.21-187.78-0.49c-12.08-1.51-21.5-6.06-21.5-6.06"/>
		<circle class="st2" cx="67.26" cy="65.69" r="16.87"/>
		<rect x="50.39" y="96.06" class="st2" width="33.74" height="107.5"/>
		<polygon class="st3" points="98.71,96.06 137.37,128.19 176.02,96.06 207.47,96.06 207.47,203.14 175.99,203.14 175.99,137.03 
			137.37,169.14 98.71,137 		"/>
		<path class="st2" d="M322.16,68.34c-0.58,3.52-0.78,6.95-0.78,12.96v26.43c0,4.63,0.29,9.27,0.78,12.96h-20.28
			c0.58-4.2,0.78-7.46,0.78-12.96V81.3c0-5.58-0.19-9.09-0.78-12.96H322.16z"/>
		<path class="st1" d="M336.82,80.7c3.01,0.49,5.73,0.68,9.41,0.68h19.21c3.69,0,6.4-0.19,9.41-0.68v18.44
			c-3.2-0.49-5.82-0.68-9.41-0.68h-19.21c-3.59,0-6.21,0.19-9.41,0.68V80.7z"/>
		<path class="st1" d="M425.7,120.68c-0.48-3.4-1.55-6.99-4.17-14.36L412.6,80.5c-0.1-0.49-3.01-9.51-3.3-10.29
			c-1.07-3.49-1.07-3.49-1.55-4.85c0.58,6.11,0.97,14.07,0.97,19.21v21.06c0,6.7,0.19,10.97,0.78,15.04h-19.12
			c0.58-4.37,0.78-8.44,0.78-15.04V55.08c0-5.82-0.29-10.97-0.78-15.14H416c0.68,4.17,1.46,7.28,3.69,13.68l14.56,41.82l14.46-41.82
			c2.23-6.5,3.01-9.61,3.59-13.68h25.72c-0.58,4.66-0.78,8.64-0.78,15.14v50.56c0,7.37,0.19,11.16,0.78,15.04h-19.12
			c0.58-4.46,0.78-8.15,0.78-15.04V84.48c0-2.33,0.29-9.61,0.48-12.62c0.29-5.14,0.29-5.14,0.39-6.6
			c-2.13,7.57-3.1,11.06-4.37,14.56l-9.41,26.59c-2.43,6.89-3.69,11.16-4.17,14.27H425.7z"/>
		<path class="st1" d="M533.71,80.12c0-4.66-2.81-6.79-9.22-6.79c-6.21,0-9.51,2.04-10.97,6.79l-18.54-3.01
			c1.94-5.73,4.08-8.83,8.15-11.74c5.24-3.69,12.42-5.53,21.83-5.53c7.18,0,14.17,1.36,17.95,3.4c6.21,3.4,8.93,8.73,8.93,17.47
			v26.2c0,5.92,0.19,9.41,0.68,13.78h-18.83v-4.46c-5.43,4.17-10.87,5.82-18.83,5.82c-7.38,0-12.91-1.75-16.79-5.34
			c-3.49-3.2-5.34-7.86-5.34-13.2c0-6.11,2.43-10.97,7.08-14.17c4.95-3.49,11.45-5.53,20.18-6.31c3.79-0.39,6.7-0.49,13.68-0.68
			V80.12z M533.71,94.77c-8.64,0.19-12.81,0.68-16.79,1.94c-3.49,1.16-5.63,3.59-5.63,6.41c0,3.49,2.91,5.53,7.96,5.53
			c3.98,0,8.35-1.46,10.97-3.69c2.23-1.94,3.49-4.56,3.49-7.47V94.77z"/>
		<path class="st1" d="M588.05,39.94c-0.58,3.98-0.78,8.15-0.78,14.65v27.27l10.67-10.58c4.46-4.46,6.6-6.99,8.44-9.8h25.81
			c-3.78,3.3-4.95,4.37-10.19,9.51l-14.07,13.59l16.21,23.68c5.92,8.54,6.31,9.12,9.02,12.42h-24.75c-1.46-4.08-3.59-8.35-6.4-13
			l-7.38-12.03l-7.28,6.99v3.88c0,7.96,0.1,10.29,0.78,14.17h-19.8c0.58-4.37,0.78-8.25,0.78-14.65V54.59
			c0-6.6-0.29-11.06-0.78-14.65H588.05z"/>
		<path class="st1" d="M660.25,96.52c0.97,7.86,5.53,12.03,13.2,12.03c3.88,0,7.28-1.26,9.8-3.59c1.46-1.36,2.14-2.43,2.91-4.95
			l16.89,4.75c-2.23,5.05-3.69,7.28-6.4,10c-5.53,5.43-13.29,8.25-22.9,8.25c-9.51,0-16.98-2.72-22.51-8.25
			c-5.72-5.82-8.83-14.07-8.83-23.68c0-19.21,12.32-31.93,30.86-31.93c15.14,0,25.72,8.25,29.11,22.71
			c0.78,3.11,1.16,7.18,1.46,12.71c0,0.39,0,0.97,0.1,1.94H660.25z M685.48,83.12c-1.36-6.21-5.53-9.51-12.23-9.51
			c-6.89,0-11.06,3.11-12.71,9.51H685.48z"/>
		<path class="st1" d="M760.88,78.95c-4.46-1.36-6.89-1.84-9.9-1.84c-4.95,0-8.73,1.75-11.55,5.24c-1.84,2.33-2.52,4.37-2.91,8.64
			v15.14c0,6.21,0.19,9.9,0.78,14.56h-20.09c0.58-4.85,0.78-8.35,0.78-14.65V76.14c0-7.08-0.19-10.48-0.78-14.65h19.31v7.67
			c4.76-6.21,10.58-8.83,19.41-8.83c3.11,0,5.05,0.19,9.61,1.16L760.88,78.95z"/>
		<g>
			<path class="st6" d="M324.11,145.56c-0.58,3.98-0.78,7.28-0.78,14.36v52.02c0,6.7,0.19,10.29,0.78,14.36h-21.35
				c0.58-3.78,0.78-7.86,0.78-14.36v-52.02c0-7.28-0.19-10.09-0.78-14.36H324.11z"/>
			<path class="st6" d="M345.94,226.3c0.58-4.56,0.78-8.64,0.78-14.65v-29.89c0-6.7-0.19-10.77-0.78-14.65h19.31v4.08
				c0,0.58-0.1,2.04-0.1,2.72c6.11-5.82,12.03-8.25,19.99-8.25c6.7,0,12.03,1.84,15.62,5.43c3.88,3.88,5.53,8.64,5.53,16.3v24.36
				c0,5.63,0.29,10.48,0.78,14.56h-20.19c0.58-4.66,0.78-8.73,0.78-14.65v-19.89c0-3.88-0.39-5.53-1.55-7.18
				c-1.26-1.75-3.49-2.72-6.41-2.72c-5.43,0-10.29,3.4-14.46,10.19v19.6c0,5.53,0.19,9.61,0.78,14.65H345.94z"/>
			<path class="st6" d="M444.92,167.1c0.19,2.33,0.68,4.37,1.84,8.35l9.03,30.18c0.1,0.19,0.19,0.58,0.39,1.07
				c0.29,0.97,0.29,1.07,0.78,2.72c0.29-0.87,0.39-1.36,0.49-1.75c0.1-0.19,0.19-0.48,0.29-0.97c0.19-0.49,0.29-0.87,0.39-1.16
				l9.03-30.08c1.07-3.59,1.65-6.21,1.84-8.35h21.54c-1.94,4.37-2.72,6.21-3.98,9.41l-16.3,41.63c-1.65,4.17-2.14,5.73-2.62,8.15
				h-21.25c-0.48-2.43-0.97-3.98-2.62-8.15l-16.3-41.63c-0.58-1.36-1.94-4.46-4.08-9.41H444.92z"/>
			<path class="st6" d="M504.4,196.6c0-19.41,12.42-31.73,32.03-31.73s32.03,12.33,32.03,31.54c0,19.31-12.81,32.12-32.12,32.12
				C516.82,228.53,504.4,216.11,504.4,196.6z M522.94,196.5c0,10.77,5.05,17.27,13.49,17.27c8.44,0,13.29-6.31,13.29-17.08
				c0-10.87-4.95-17.27-13.2-17.27C527.98,179.42,522.94,185.83,522.94,196.5z"/>
			<path class="st6" d="M607.26,167.1c-0.58,3.98-0.78,7.86-0.78,14.65v29.89c0,5.24,0.29,10.48,0.78,14.65h-20.28
				c0.58-4.76,0.78-8.44,0.78-14.65v-29.89c0-6.31-0.19-10.29-0.78-14.65H607.26z M606.97,145.56v14.56h-19.7v-14.56H606.97z"/>
			<path class="st6" d="M667.91,188.64c-0.87-2.91-1.46-4.27-2.72-5.73c-1.94-2.23-4.66-3.4-8.15-3.4
				c-7.86,0-12.52,6.21-12.52,16.89c0,10.48,4.95,17.27,12.71,17.27c3.79,0,7.28-1.55,9.22-4.27c0.87-1.26,1.36-2.23,1.75-4.46
				l17.86,2.81c-1.07,4.17-2.23,6.79-4.08,9.61c-4.85,7.18-13.68,11.16-24.94,11.16c-9.32,0-17.27-2.91-22.61-8.35
				c-5.63-5.53-8.73-14.07-8.73-23.58c0-19.41,12.23-31.83,31.15-31.83c14.94,0,25.33,7.38,28.53,20.28L667.91,188.64z"/>
			<path class="st6" d="M719.63,202.13c0.97,7.86,5.53,12.03,13.2,12.03c3.88,0,7.28-1.26,9.8-3.59c1.46-1.36,2.13-2.43,2.91-4.95
				l16.89,4.75c-2.23,5.05-3.69,7.28-6.41,10c-5.53,5.43-13.3,8.25-22.9,8.25c-9.51,0-16.98-2.72-22.51-8.25
				c-5.73-5.82-8.83-14.07-8.83-23.68c0-19.21,12.33-31.93,30.86-31.93c15.14,0,25.72,8.25,29.11,22.71
				c0.78,3.11,1.16,7.18,1.46,12.71c0,0.39,0,0.97,0.1,1.94H719.63z M744.87,188.74c-1.36-6.21-5.53-9.51-12.23-9.51
				c-6.89,0-11.06,3.11-12.71,9.51H744.87z"/>
		</g>
		<circle class="st2" cx="311.83" cy="49.95" r="10.01"/>
	</g>
</g>
<g id="imaker_logo">
</g>
</svg>
