<?xml version="1.0" encoding="utf-8"?>
<!-- Generator: Adobe Illustrator 24.0.1, SVG Export Plug-In . SVG Version: 6.00 Build 0)  -->
<svg version="1.1" xmlns="http://www.w3.org/2000/svg" xmlns:xlink="http://www.w3.org/1999/xlink" x="0px" y="0px"
	 viewBox="0 0 668.73 236.09" style="enable-background:new 0 0 668.73 236.09;" xml:space="preserve">
<style type="text/css">
	.st0{display:none;}
	.st1{fill:#006DB7;}
	.st2{fill:#84CCC9;}
	.st3{fill:#FFFFFF;}
	.st4{fill:#2F3030;}
	.st5{fill:#0072BF;}
	.st6{fill:#2E3030;}
	.st7{fill:#284299;}
</style>
<g id="圖層_1" class="st0">
</g>
<g id="圖層_4" class="st0">
</g>
<g id="logo1">
</g>
<g id="logo2">
</g>
<g id="logo3">
</g>
<g id="logo4">
	<g>
		<polygon class="st5" points="0,97.17 0,236.09 39.18,236.09 112.24,179.1 		"/>
		<polygon class="st2" points="64.45,236.09 249.95,97.17 249.95,236.09 		"/>
		<polygon class="st7" points="125.23,171.02 5.34,85.1 125.47,0 245.59,86.28 		"/>
		<path class="st3" d="M133.44,55.81h-16.31c-2.7,0-4.89-2.19-4.89-4.89V37.74c0-2.7,2.19-4.89,4.89-4.89h16.31
			c2.7,0,4.89,2.19,4.89,4.89v13.18C138.33,53.62,136.14,55.81,133.44,55.81z"/>
		<path class="st3" d="M133.69,141.96h-16.81c-2.56,0-4.64-2.08-4.64-4.64V74c0-2.56,2.08-4.64,4.64-4.64h16.81
			c2.56,0,4.64,2.08,4.64,4.64v63.32C138.33,139.89,136.25,141.96,133.69,141.96z"/>
		<path class="st2" d="M313.28,80.12h-5.32c-2.7,0-4.89-2.19-4.89-4.89v-3.5c0-2.7,2.19-4.89,4.89-4.89h5.32
			c2.7,0,4.89,2.19,4.89,4.89v3.5C318.17,77.93,315.98,80.12,313.28,80.12z"/>
		<path class="st2" d="M313.53,129.96h-5.81c-2.56,0-4.64-2.08-4.64-4.64V92.6c0-2.56,2.08-4.64,4.64-4.64h5.81
			c2.56,0,4.64,2.08,4.64,4.64v32.72C318.17,127.89,316.09,129.96,313.53,129.96z"/>
		<path class="st5" d="M330.94,99.91l-0.07-11.02h16.84v11.02H330.94z"/>
		<path class="st5" d="M421.73,129.95V84.31l-18.63,45.65h-7.9l-17.75-45.65v45.65H363.3v-71.3h15.41l21.17,45.26l20.19-45.26h15.9
			v71.3H421.73z"/>
		<path class="st5" d="M483.96,129.95c-0.26-0.52-0.47-1.15-0.63-1.9c-0.16-0.75-0.31-1.41-0.44-2c-1.69,1.3-3.54,2.33-5.56,3.07
			c-2.02,0.75-4.16,1.28-6.44,1.61c-2.47,0.32-4.96,0.29-7.46-0.1c-2.5-0.39-4.8-1.17-6.88-2.34c-3.12-1.82-5.24-4.42-6.34-7.8
			c-0.58-1.69-0.85-3.53-0.78-5.51c0.06-1.98,0.42-3.85,1.07-5.61c0.65-1.82,1.54-3.35,2.68-4.58c1.14-1.23,2.42-2.24,3.85-3.02
			c1.88-1.11,3.92-1.85,6.1-2.24c2.18-0.39,4.34-0.68,6.49-0.88c2.08-0.13,4.21-0.36,6.39-0.68c2.18-0.32,4.11-0.75,5.8-1.27
			c-0.07-0.71-0.1-1.43-0.1-2.15c0-0.71-0.03-1.43-0.1-2.15c-0.19-2.28-1.27-4.1-3.22-5.46c-1.17-0.78-2.55-1.15-4.15-1.12
			c-1.59,0.03-3.01,0.31-4.24,0.83c-1.5,0.65-2.62,1.66-3.37,3.02c-0.75,1.37-1.22,2.8-1.42,4.29h-15.7
			c0.58-2.15,1.37-4.24,2.34-6.29c0.98-2.05,2.5-3.82,4.58-5.32c2.15-1.56,4.57-2.76,7.27-3.61c2.7-0.84,5.51-1.33,8.44-1.46
			c2.99-0.13,5.96,0.1,8.92,0.68c2.96,0.58,5.64,1.63,8.05,3.12c2.15,1.37,3.9,3.14,5.27,5.32c1.37,2.18,2.05,4.83,2.05,7.95
			c0,1.63,0.02,3.53,0.05,5.71c0.03,2.18,0.08,4.41,0.15,6.68c0.06,2.28,0.11,4.45,0.15,6.54c0.03,2.08,0.08,3.8,0.15,5.17
			c0.2,4.16,1.01,8,2.44,11.51H483.96z M481.81,118.44c0-0.78,0-1.72,0-2.83c0-1.11,0-2.26,0-3.46c0-1.2,0-2.41,0-3.61
			c0-1.2,0-2.23,0-3.07c-1.11,0.33-2.39,0.63-3.85,0.93s-2.85,0.5-4.15,0.63c-0.91,0.13-1.82,0.29-2.73,0.49
			c-0.91,0.19-1.72,0.52-2.44,0.97c-0.72,0.46-1.32,0.98-1.8,1.56c-0.49,0.59-0.89,1.33-1.22,2.24c-0.52,1.63-0.62,3.04-0.29,4.24
			c0.33,1.2,0.94,2.23,1.85,3.07c1.69,1.69,3.93,2.24,6.73,1.66c1.23-0.26,2.58-0.67,4.05-1.22
			C479.42,119.5,480.7,118.97,481.81,118.44z"/>
		<path class="st5" d="M542.18,98.64l17.66,31.31h-16.78l-10.92-19.7l-5.75,5.95v13.75h-15.12v-71.3h15.12v36.67l15.31-17.36h18.63
			L542.18,98.64z"/>
		<path class="st5" d="M616.95,119.71c-1.46,2.73-3.33,5.01-5.61,6.83c-2.34,1.82-5.02,3.04-8.05,3.66s-5.97,0.89-8.83,0.83
			c-3.97-0.07-7.77-0.83-11.41-2.29c-3.64-1.46-6.63-3.89-8.97-7.27c-1.69-2.34-2.93-4.99-3.71-7.95c-0.78-2.96-1.14-6-1.07-9.12
			c0-2.93,0.37-5.82,1.12-8.68c0.75-2.86,1.9-5.53,3.46-8c1.89-2.86,4.19-5.14,6.93-6.83c2.73-1.69,5.75-2.83,9.07-3.41
			c2.73-0.52,5.57-0.6,8.53-0.24c2.96,0.36,5.71,1.16,8.24,2.39c2.28,1.11,4.32,2.57,6.14,4.39c1.82,1.82,3.25,3.93,4.29,6.34
			c1.62,3.58,2.18,7.38,1.66,11.41c-0.13,1.5-0.67,2.65-1.61,3.46c-0.94,0.81-2.16,1.22-3.66,1.22H585.2c0,2.08,0.21,4.21,0.63,6.39
			c0.42,2.18,1.28,4.15,2.58,5.9c0.91,1.24,1.95,2.16,3.12,2.78c1.17,0.62,2.4,0.93,3.71,0.93c1.3-0.06,2.57-0.44,3.8-1.12
			c1.23-0.68,2.21-1.67,2.93-2.98c1.1-1.95,1.76-4.23,1.95-6.83h15.61C619.27,114.25,618.41,116.98,616.95,119.71z M602.36,94.01
			c-0.13-1.33-0.46-2.55-0.98-3.66c-1.11-2.41-2.86-3.8-5.27-4.19c-1.3-0.2-2.62-0.06-3.95,0.39c-1.33,0.46-2.46,1.27-3.37,2.44
			c-0.91,1.24-1.59,2.63-2.05,4.19c-0.46,1.56-0.78,3.09-0.97,4.58h16.58C602.49,96.6,602.49,95.34,602.36,94.01z"/>
		<path class="st5" d="M665.05,88.39c-1.4-0.28-2.78-0.37-4.15-0.29c-2.47,0.16-4.67,0.77-6.61,1.83c-1.29,0.73-2.45,1.7-3.48,2.92
			c-1.03,1.22-1.79,2.48-2.3,3.78l0.39,33.36l-15.02,0.17l-0.6-51.98L648.3,78l0.08,7.02c1.08-1.83,2.41-3.34,4-4.53
			c1.58-1.19,3.31-2.09,5.19-2.69c3.5-1.14,7.17-1.25,11.02-0.32l0.14,12.09C667.68,89.06,666.46,88.67,665.05,88.39z"/>
		<path class="st6" d="M301.22,218.06v-71.4h15.51v71.4H301.22z"/>
		<path class="st6" d="M364.72,218.06V181c0-1.37-0.31-2.55-0.93-3.56c-0.62-1.01-1.48-1.77-2.58-2.29
			c-1.11-0.52-2.34-0.76-3.71-0.73c-1.37,0.03-2.76,0.41-4.19,1.12c-1.89,0.98-3.32,2.34-4.29,4.1c-0.98,1.76-1.46,3.58-1.46,5.46
			v32.97h-15.51v-51.99h15.51v6.73c1.17-1.5,2.55-2.84,4.15-4.05c1.59-1.2,3.3-2.06,5.12-2.58c2.08-0.58,4.23-0.91,6.44-0.98
			c2.21-0.06,4.36,0.26,6.44,0.98c1.76,0.58,3.38,1.43,4.88,2.54c1.5,1.11,2.73,2.5,3.71,4.19c1.3,2.41,1.95,5.11,1.95,8.1v37.06
			H364.72z"/>
		<path class="st6" d="M423.63,218.06h-15.02l-17.95-51.99h16l9.85,33.46l9.66-33.46h16.19L423.63,218.06z"/>
		<path class="st6" d="M501.86,192.8c-0.07,2.47-0.34,5.07-0.83,7.8c-0.49,2.73-1.35,5.17-2.58,7.32c-2.02,3.58-4.8,6.31-8.34,8.19
			c-3.54,1.89-7.4,2.89-11.56,3.02c-4.55,0.19-8.57-0.36-12.05-1.66c-3.48-1.3-6.36-3.25-8.63-5.85c-4.1-4.62-6.21-10.79-6.34-18.53
			c-0.07-3.58,0.39-7.18,1.37-10.83c0.98-3.64,2.7-6.83,5.17-9.56c2.34-2.54,5.12-4.42,8.34-5.66c3.22-1.23,6.62-1.85,10.19-1.85
			c3.9,0,7.51,0.77,10.83,2.29c3.32,1.53,6.18,3.76,8.58,6.68c2.21,2.73,3.76,5.66,4.63,8.78S501.92,189.35,501.86,192.8z
			 M484.98,202.46c0.26-1.62,0.5-3.33,0.73-5.12c0.23-1.79,0.37-3.59,0.44-5.41c0.06-1.82,0-3.62-0.2-5.41
			c-0.2-1.79-0.55-3.5-1.07-5.12c-0.65-1.95-1.54-3.59-2.68-4.93c-1.14-1.33-2.84-2.03-5.12-2.1c-2.34-0.06-4.16,0.6-5.46,2
			c-1.3,1.4-2.31,3.14-3.02,5.22c-0.39,1.3-0.68,2.83-0.88,4.58s-0.31,3.56-0.34,5.41c-0.03,1.85,0.03,3.69,0.19,5.51
			c0.16,1.82,0.37,3.41,0.63,4.78c0.52,2.41,1.45,4.41,2.78,6c1.33,1.59,3.3,2.36,5.9,2.29c2.34,0,4.19-0.71,5.56-2.15
			C483.81,206.59,484.66,204.73,484.98,202.46z"/>
		<path class="st6" d="M517.66,160.51v-13.85h15.02v13.85H517.66z M517.66,218.06v-51.89h15.02v51.89H517.66z"/>
		<path class="st6" d="M597,204.11c-0.55,1.82-1.32,3.54-2.29,5.17c-1.69,2.73-3.82,4.81-6.39,6.24c-2.57,1.43-5.38,2.44-8.44,3.02
			c-3.71,0.71-7.5,0.78-11.36,0.2c-3.87-0.58-7.27-1.88-10.19-3.9c-2.8-1.95-4.91-4.31-6.34-7.07c-1.43-2.76-2.41-5.71-2.93-8.83
			c-0.26-1.76-0.42-3.62-0.49-5.61c-0.07-1.98,0.02-3.96,0.24-5.95c0.23-1.98,0.65-3.9,1.27-5.75c0.62-1.85,1.41-3.53,2.39-5.02
			c1.56-2.41,3.56-4.55,6-6.44c2.44-1.89,4.99-3.19,7.66-3.9c2.6-0.71,5.28-1.12,8.05-1.22c2.76-0.1,5.45,0.21,8.05,0.93
			c2.67,0.72,5.04,1.82,7.12,3.32c2.08,1.5,3.77,3.35,5.07,5.56c1.62,2.67,2.5,5.62,2.63,8.88h-15.51c0-0.65-0.03-1.3-0.1-1.95
			c-0.07-0.65-0.16-1.3-0.29-1.95c-0.13-0.84-0.39-1.64-0.78-2.39c-0.39-0.75-0.98-1.41-1.76-2c-0.98-0.71-2.07-1.12-3.27-1.22
			c-1.2-0.1-2.36,0.08-3.46,0.54c-1.76,0.72-3.11,1.89-4.05,3.51c-0.94,1.63-1.61,3.28-2,4.97c-0.52,2.28-0.85,4.7-0.98,7.27
			c-0.13,2.57-0.07,5.06,0.2,7.46c0.2,1.82,0.5,3.54,0.93,5.17c0.42,1.63,1.32,3.12,2.68,4.49c0.91,0.98,2,1.67,3.27,2.1
			c1.27,0.42,2.58,0.47,3.95,0.15c1.11-0.2,2.11-0.6,3.02-1.22c0.91-0.62,1.62-1.48,2.15-2.58c0.52-1.11,0.91-2.36,1.17-3.76
			c0.26-1.4,0.42-2.65,0.49-3.75h15.51C597.96,200.44,597.55,202.3,597,204.11z"/>
		<path class="st6" d="M657.48,207.82c-1.46,2.73-3.33,5.01-5.61,6.83c-2.34,1.82-5.02,3.04-8.05,3.66s-5.97,0.89-8.83,0.83
			c-3.97-0.07-7.77-0.83-11.41-2.29c-3.64-1.46-6.63-3.89-8.97-7.27c-1.69-2.34-2.93-4.99-3.71-7.95c-0.78-2.96-1.14-6-1.07-9.12
			c0-2.93,0.37-5.82,1.12-8.68c0.75-2.86,1.9-5.53,3.46-8c1.89-2.86,4.19-5.14,6.93-6.83c2.73-1.69,5.75-2.83,9.07-3.41
			c2.73-0.52,5.57-0.6,8.53-0.24c2.96,0.36,5.71,1.16,8.24,2.39c2.28,1.11,4.32,2.57,6.14,4.39c1.82,1.82,3.25,3.93,4.29,6.34
			c1.62,3.58,2.18,7.38,1.66,11.41c-0.13,1.5-0.67,2.65-1.61,3.46c-0.94,0.81-2.16,1.22-3.66,1.22h-28.29
			c0,2.08,0.21,4.21,0.63,6.39c0.42,2.18,1.28,4.15,2.58,5.9c0.91,1.24,1.95,2.16,3.12,2.78c1.17,0.62,2.4,0.93,3.71,0.93
			c1.3-0.06,2.57-0.44,3.8-1.12c1.23-0.68,2.21-1.67,2.93-2.98c1.1-1.95,1.76-4.23,1.95-6.83h15.61
			C659.8,202.36,658.94,205.09,657.48,207.82z M642.89,182.12c-0.13-1.33-0.46-2.55-0.98-3.66c-1.11-2.41-2.86-3.8-5.27-4.19
			c-1.3-0.2-2.62-0.06-3.95,0.39c-1.33,0.46-2.46,1.27-3.37,2.44c-0.91,1.24-1.59,2.63-2.05,4.19c-0.46,1.56-0.78,3.09-0.97,4.58
			h16.58C643.02,184.7,643.02,183.45,642.89,182.12z"/>
	</g>
</g>
<g id="imaker_logo">
</g>
</svg>
