<svg id="_ÎÓÈ_1" data-name="—ÎÓÈ_1" xmlns="http://www.w3.org/2000/svg" viewBox="0 0 578 228"><defs><style>.cls-1{fill:#0074b8;}.cls-2{fill:#fff;}</style></defs><path class="cls-1" d="M11.53,126.67h499a0,0,0,0,1,0,0V197a22.1,22.1,0,0,1-22.1,22.1H33.63A22.1,22.1,0,0,1,11.53,197V126.67a0,0,0,0,1,0,0Z"/><path class="cls-2" d="M4.84,201.74A25.48,25.48,0,0,0,30.29,227.2H487.76a31.48,31.48,0,0,0,31.44-31.45V173.36h17a4.54,4.54,0,0,0,0-9.07h-26v31.46a22.41,22.41,0,0,1-22.38,22.38H30.29A16.41,16.41,0,0,1,13.9,201.74V130.11H519.2V32.25A31.48,31.48,0,0,0,487.76.8H36.28A31.48,31.48,0,0,0,4.84,32.25V68.93a4.53,4.53,0,0,0,9.06,0V32.25A22.41,22.41,0,0,1,36.28,9.87H487.76a22.41,22.41,0,0,1,22.38,22.38V121H4.84v80.7Z"/><path class="cls-2" d="M537.29,190.26a3.59,3.59,0,0,1-3.58-3.58v-36a3.57,3.57,0,0,1,5.32-3.12l32.3,18a3.59,3.59,0,0,1,0,6.26l-32.3,18A3.49,3.49,0,0,1,537.29,190.26Zm3.57-33.47v23.8l21.37-11.9Z"/><path class="cls-2" d="M322.71,63a2.31,2.31,0,0,1,4-1.6,2.48,2.48,0,0,1,.27.35,2.31,2.31,0,0,1-3.53,3,2.69,2.69,0,0,1-.33-.41A2.29,2.29,0,0,1,322.71,63Z"/><path class="cls-2" d="M211.55,63.13a2.29,2.29,0,0,1,.31-1.16l4.95-8.5,0-9.43A2.31,2.31,0,0,1,219,41.72l36.55-1.16a7.08,7.08,0,0,1,5.76,2.86,2.82,2.82,0,0,0,4.52-.13,7.21,7.21,0,0,1,5.66-3.23l8.57-.27a5.77,5.77,0,0,1,5.26,3.15,2.85,2.85,0,0,0,2.51,1.53,2.81,2.81,0,0,0,1.49-.43,2.65,2.65,0,0,0,.85-.81,5.91,5.91,0,0,1,6-2.67c13.74,2.52,24.7,10.11,30.84,21.37a1.34,1.34,0,0,1,.12.24,2.55,2.55,0,0,1-.06,2.08C321,75.61,309.92,83.21,296,85.66a5.64,5.64,0,0,1-5.72-2.75,2.83,2.83,0,0,0-2.4-1.31,2.78,2.78,0,0,0-2.48,1.49,5.74,5.74,0,0,1-5.32,3.21L271.48,86a7.16,7.16,0,0,1-5.61-3.18,2.84,2.84,0,0,0-2.33-1.21,2.8,2.8,0,0,0-2.18,1,7,7,0,0,1-5.71,2.77l-36.56-1.27a2.31,2.31,0,0,1-2.23-2.3l0-9.41-5-8.12A2.29,2.29,0,0,1,211.55,63.13Zm9.89-9a2.34,2.34,0,0,1-.31,1.16l-4.57,7.86,4.57,7.5a2.28,2.28,0,0,1,.33,1.2l0,7.82,34.33,1.19a2.54,2.54,0,0,0,1.95-1.06A7.42,7.42,0,0,1,263.54,77a7.49,7.49,0,0,1,6.11,3.17,2.62,2.62,0,0,0,2,1.23l8.58.29a1.21,1.21,0,0,0,1-.71,7.37,7.37,0,0,1,6.59-4,7.51,7.51,0,0,1,6.31,3.46c.25.4.64.74,1,.67,8.61-1.51,20.2-5.86,27.26-18-7-12-18.53-16.46-27.07-18a1.33,1.33,0,0,0-1.29.67A7.15,7.15,0,0,1,291.79,48a7.45,7.45,0,0,1-10.54-2.89,1.18,1.18,0,0,0-1.05-.67l-8.53.28a2.6,2.6,0,0,0-2,1.24,7.44,7.44,0,0,1-12,.36,2.54,2.54,0,0,0-2-1.1l-34.31,1.09,0,7.8Z"/><path class="cls-2" d="M220.8,63.05a2.32,2.32,0,0,1,2.31-2.31h23.66a2.32,2.32,0,0,1,0,4.63H223.11A2.32,2.32,0,0,1,220.8,63.05Z"/><path class="cls-2" d="M285.55,78.08V48a2.31,2.31,0,1,1,4.62,0V78.08a2.31,2.31,0,1,1-4.62,0Z"/><path class="cls-2" d="M261.19,77.39V48.71a2.31,2.31,0,1,1,4.62,0V77.39a2.31,2.31,0,1,1-4.62,0Z"/><path class="cls-2" d="M219,43.44a2.81,2.81,0,0,1,0-.29l2.48-19.95a2.32,2.32,0,0,1,2.74-2c.62.12,15.27,3.17,25.42,19.89a2.31,2.31,0,1,1-3.95,2.4c-6.72-11-15.71-15.46-20-17l-2.13,17.23a2.31,2.31,0,0,1-4.61-.28Z"/><path class="cls-2" d="M219,82.64a2.31,2.31,0,0,1,4.61-.28l2.13,17.23c4.25-1.55,13.24-6,20-17a2.31,2.31,0,1,1,3.95,2.4c-10.15,16.72-24.8,19.77-25.42,19.89a2.32,2.32,0,0,1-2.74-2l-2.48-19.95A2.81,2.81,0,0,1,219,82.64Z"/><path class="cls-2" d="M203.39,52.81a2.31,2.31,0,0,1,2.32-2.31h3.93a2.32,2.32,0,0,1,0,4.63h-3.93A2.32,2.32,0,0,1,203.39,52.81Z"/><path class="cls-2" d="M203.39,73.27A2.32,2.32,0,0,1,205.71,71h3.93a2.32,2.32,0,0,1,0,4.63h-3.93A2.31,2.31,0,0,1,203.39,73.27Z"/><path class="cls-2" d="M195.48,63a2.3,2.3,0,0,1,2.31-2.31h3.93a2.31,2.31,0,1,1,0,4.62h-3.93A2.3,2.3,0,0,1,195.48,63Z"/></svg>