<svg id="_ÎÓÈ_1" data-name="—ÎÓÈ_1" xmlns="http://www.w3.org/2000/svg" viewBox="0 0 582 228"><defs><style>.cls-1{fill:#0074b8;}.cls-2{fill:#fff;}</style></defs><path class="cls-1" d="M21.57,126.63h497a0,0,0,0,1,0,0V197a22.1,22.1,0,0,1-22.1,22.1H41.26a19.7,19.7,0,0,1-19.7-19.7V126.63a0,0,0,0,1,0,0Z"/><path class="cls-2" d="M17.42,99.42A16.63,16.63,0,1,1,34,82.8,16.65,16.65,0,0,1,17.42,99.42Zm0-24.18A7.56,7.56,0,1,0,25,82.8,7.57,7.57,0,0,0,17.42,75.24Z"/><path class="cls-2" d="M545.33,190.22a3.58,3.58,0,0,1-3.58-3.58v-36a3.58,3.58,0,0,1,5.32-3.13l32.3,18a3.57,3.57,0,0,1,0,6.25l-32.3,18A3.58,3.58,0,0,1,545.33,190.22Zm3.58-33.47v23.81l21.37-11.9Z"/><path class="cls-2" d="M17.42,152.11a4.53,4.53,0,0,1-4.54-4.53v-26.5h505.3V32.28A22.4,22.4,0,0,0,495.81,9.91H44.32A22.4,22.4,0,0,0,22,32.28V69a4.54,4.54,0,0,1-9.07,0V32.28A31.48,31.48,0,0,1,44.32.84H495.81a31.47,31.47,0,0,1,31.44,31.44v97.87H22v17.43A4.53,4.53,0,0,1,17.42,152.11Z"/><path class="cls-2" d="M495.81,227.16H39.71a26.86,26.86,0,0,1-26.83-26.83,4.54,4.54,0,0,1,9.07,0,17.78,17.78,0,0,0,17.76,17.76h456.1a22.4,22.4,0,0,0,22.37-22.37V164.26h23.91a4.54,4.54,0,0,1,0,9.07H527.25v22.39A31.47,31.47,0,0,1,495.81,227.16Z"/><g id="team"><path class="cls-2" d="M227.22,70.42c-10.14,0-19.72-12.11-19.72-24.93,0-12,8.29-20.7,19.72-20.7s19.71,8.7,19.71,20.7C246.93,58.07,237.17,70.42,227.22,70.42Zm0-40c-8.27,0-14.05,6.19-14.05,15,0,9.72,7,19.26,14.05,19.26,6.82,0,14-9.9,14-19.26C241.26,36.64,235.49,30.45,227.22,30.45Z"/></g><path class="cls-2" d="M229.51,100.66c-21,0-30.81-5.31-32.91-17.24-1.49-8.44,1.08-15.75,7.24-20.58a37.31,37.31,0,0,1,10-5.67,2.83,2.83,0,0,1,2,5.31,31.65,31.65,0,0,0-8.52,4.82c-4.5,3.53-6.28,8.76-5.16,15.14,1.37,7.74,7.17,14.55,40.09,12a2.83,2.83,0,0,1,.44,5.65C237.89,100.47,233.5,100.66,229.51,100.66Z"/><path class="cls-2" d="M250.31,69.25a2.79,2.79,0,0,1-2-.83c-.74-.63-5.82-4.43-9.16-5.58A2.84,2.84,0,0,1,241,57.48c4.64,1.61,10.75,6.38,11.31,6.94a2.83,2.83,0,0,1-2,4.83Z"/><g id="team-2" data-name="team"><path class="cls-2" d="M323.86,70.42c-9.95,0-19.71-12.35-19.71-24.93,0-12,8.29-20.7,19.71-20.7s19.72,8.7,19.72,20.7C343.58,58.31,334,70.42,323.86,70.42Zm0-40c-8.27,0-14.05,6.19-14.05,15,0,9.36,7.22,19.26,14.05,19.26,7.09,0,14.05-9.54,14.05-19.26C337.91,36.64,332.13,30.45,323.86,30.45Z"/></g><path class="cls-2" d="M321.52,100.67c-3.91,0-8.21-.19-12.92-.54a2.83,2.83,0,0,1,.43-5.65c32.76,2.49,38.5-4.32,39.85-12,.78-4.46.53-10.7-5.13-15.14a31.6,31.6,0,0,0-8.55-4.82,2.84,2.84,0,1,1,2-5.31,37.23,37.23,0,0,1,10.06,5.68c6.14,4.8,8.7,12.11,7.21,20.57C352.38,95.35,342.6,100.67,321.52,100.67Z"/><path class="cls-2" d="M300.62,69.32a2.83,2.83,0,0,1-2-4.8c.57-.57,6.85-5.47,11.64-7.14a2.84,2.84,0,1,1,1.86,5.36c-3.47,1.2-8.71,5.12-9.58,5.87A2.89,2.89,0,0,1,300.62,69.32Z"/><g id="team-3" data-name="team"><path class="cls-2" d="M275.54,74c-12,0-23.32-14.41-23.32-29.65,0-14.21,9.8-24.53,23.32-24.53s23.32,10.32,23.32,24.53C298.86,59.35,287.31,74,275.54,74Zm0-48.51c-10.4,0-17.66,7.76-17.66,18.86,0,12.11,8.75,24,17.66,24,8.58,0,17.66-12.33,17.66-24C293.2,33.28,285.94,25.52,275.54,25.52Z"/></g><path class="cls-2" d="M275.74,112.49a122.1,122.1,0,0,1-17.64-1.27,24.65,24.65,0,0,1-20.44-18.58l-.24-1a24.67,24.67,0,0,1,8.74-25.15,46.6,46.6,0,0,1,12.32-7,2.84,2.84,0,0,1,2,5.31,40.8,40.8,0,0,0-10.83,6.11,19,19,0,0,0-6.72,19.36l.24,1a19,19,0,0,0,15.73,14.3,117.77,117.77,0,0,0,32.05.24l1.18-.17A18.94,18.94,0,0,0,301.42,72l-1.33-1a40.23,40.23,0,0,0-10.25-5.88,2.84,2.84,0,0,1,2.08-5.28,46.38,46.38,0,0,1,11.68,6.71l1.33,1.05a24.61,24.61,0,0,1-12,43.76l-1.18.16A124.49,124.49,0,0,1,275.74,112.49Z"/></svg>