<svg version="1.1" id="Layer_1" xmlns="http://www.w3.org/2000/svg" x="0" y="0" viewBox="0 0 512 512" xml:space="preserve" class="icon lpanel" style="color: white; width: 16px;"><path d="M352 256.1H160c-8.7 0-15.8 7.1-15.8 15.8v.3c0 8.7 7.1 15.8 15.8 15.8h192c8.7 0 15.8-7.1 15.8-15.8v-.3c0-8.7-7.1-15.8-15.8-15.8zM352 352H160c-8.7 0-15.8 7.1-15.8 15.8v.3c0 8.7 7.1 15.8 15.8 15.8h192c8.7 0 15.8-7.1 15.8-15.8v-.3c0-8.7-7.1-15.8-15.8-15.8z"></path><path d="M442.9 132.3c-.2-.2-.4-.4-.6-.7l-126-126c-.2-.2-.4-.4-.7-.6-2.9-3-7-5-11.6-5H96C78.3 0 64 14.3 64 32v448c0 17.7 14.3 32 32 32h320c17.7 0 32-14.3 32-32V144c0-4.6-2-8.7-5.1-11.7zM320 54.6l73.4 73.4H336c-8.8 0-16-7.2-16-16V54.6zM416 464c0 8.8-7.2 16-16 16H112c-8.8 0-16-7.2-16-16V48c0-8.8 7.2-16 16-16h168c4.4 0 8 3.6 8 8v88c0 17.7 14.3 32 32 32h88c4.4 0 8 3.6 8 8v296z"></path></svg>