<?xml version="1.0" encoding="utf-8"?>
<!-- Generator: Adobe Illustrator 24.0.1, SVG Export Plug-In . SVG Version: 6.00 Build 0)  -->
<svg version="1.1" xmlns="http://www.w3.org/2000/svg" xmlns:xlink="http://www.w3.org/1999/xlink" x="0px" y="0px"
	 viewBox="0 0 682.48 240.55" style="enable-background:new 0 0 682.48 240.55;" xml:space="preserve">
<style type="text/css">
	.st0{display:none;}
	.st1{fill:#006DB7;}
	.st2{fill:#84CCC9;}
	.st3{fill:#FFFFFF;}
	.st4{fill:#2F3030;}
	.st5{fill:#0072BF;}
	.st6{fill:white;}
	.st7{fill:#284299;}
	.st8{font-family:'ArialRoundedMTBold';}
	.st9{font-size:108.4061px;}
	.st10{letter-spacing:3;}
</style>
<g id="圖層_1" class="st0">
</g>
<g id="圖層_4" class="st0">
</g>
<g id="logo1">
</g>
<g id="logo2">
</g>
<g id="logo3">
</g>
<g id="logo4">
	<g>
		<path class="st1" d="M238.74,239.25l-161.52-0.26C34.5,238.92-0.07,204.24,0,161.52L0.26,0l161.52,0.26
			C204.5,0.33,239.07,35.02,239,77.73L238.74,239.25z"/>
		<circle class="st2" cx="59.45" cy="51.47" r="17.31"/>
		<circle class="st2" cx="59.38" cy="99.94" r="17.31"/>
		<circle class="st2" cx="59.25" cy="176.09" r="17.31"/>
		
			<rect x="42" y="98.24" transform="matrix(1 1.628345e-03 -1.628345e-03 1 0.2234 -0.0964)" class="st2" width="34.62" height="77.85"/>
		<path class="st7" d="M237.95,69.36c1.3,9.47,0.88,29.05,1,38.74c0.41,32.66-0.06,130.65-0.06,130.65s-128.22,4.49-169.32-0.72
			c-10.89-1.38-25.01-8.23-25.01-8.23"/>
		<g>
			<circle class="st3" cx="188.14" cy="176.3" r="17.31"/>
			<path class="st3" d="M114.82,136.58c0.01-9.03,7.35-16.34,16.37-16.32s16.34,7.35,16.32,16.37"/>
			<circle class="st3" cx="187.73" cy="100.12" r="17.68"/>
			<polygon class="st3" points="91.67,87.24 131.35,120.26 176.34,86.6 205.41,100.15 205.45,176.33 170.83,176.27 170.9,124.85 
				142.6,148.4 131.13,158.04 91.61,124.7 			"/>
		</g>
		<path class="st2" d="M296.28,44.31c-2.01,0-3.73-0.62-5.16-1.86c-1.43-1.24-2.14-2.99-2.13-5.24c0-2.05,0.74-3.73,2.21-5.05
			c1.47-1.32,3.17-1.98,5.11-1.98c1.87,0,3.53,0.61,4.97,1.81c1.44,1.2,2.17,2.95,2.16,5.24c0,2.22-0.71,3.96-2.13,5.21
			C299.9,43.69,298.22,44.32,296.28,44.31z M303.4,59.25l-0.07,41.76c0,2.89-0.7,5.08-2.08,6.56c-1.38,1.48-3.13,2.22-5.24,2.21
			s-3.84-0.77-5.16-2.28c-1.32-1.52-1.98-3.69-1.97-6.51l0.07-41.34c0-2.86,0.67-5.01,2-6.45c1.33-1.44,3.05-2.17,5.16-2.16
			c2.12,0,3.86,0.73,5.24,2.18C302.72,54.67,303.41,56.68,303.4,59.25z"/>
		<path class="st1" d="M328.86,86.71l-10.19-0.02c-1.55,0-2.72-0.6-3.53-1.78c-0.8-1.18-1.2-2.71-1.2-4.58
			c0-1.91,0.4-3.45,1.18-4.63c0.79-1.18,1.97-1.77,3.56-1.77l10.19,0.02c1.59,0,2.78,0.6,3.56,1.78c0.78,1.18,1.17,2.73,1.17,4.63
			c0,1.87-0.39,3.4-1.17,4.58C331.66,86.13,330.47,86.72,328.86,86.71z"/>
		<path class="st1" d="M371.74,96.89l-12.36-49.46L359.29,101c0,2.96-0.67,5.19-2,6.67c-1.33,1.48-3.08,2.22-5.27,2.21
			c-2.12,0-3.85-0.74-5.18-2.21c-1.34-1.47-2-3.7-2-6.7l0.1-61.4c0.01-3.39,0.89-5.67,2.66-6.85c1.77-1.18,4.15-1.77,7.15-1.76
			l4.87,0.01c2.93,0,5.05,0.27,6.38,0.8c1.32,0.53,2.3,1.49,2.93,2.86s1.35,3.62,2.16,6.73l11.21,42.52l11.34-42.49
			c0.82-3.1,1.54-5.34,2.18-6.72c0.64-1.38,1.62-2.33,2.94-2.85c1.32-0.53,3.45-0.79,6.38-0.78l4.87,0.01c3,0,5.38,0.6,7.14,1.79
			c1.76,1.19,2.64,3.47,2.64,6.86l-0.1,61.4c0,2.96-0.67,5.19-2,6.67c-1.33,1.48-3.1,2.22-5.32,2.21c-2.08,0-3.79-0.75-5.13-2.23
			c-1.34-1.48-2.01-3.71-2-6.67l0.09-53.57L392.8,96.93c-0.82,3.21-1.48,5.56-2,7.06c-0.51,1.5-1.46,2.86-2.84,4.1
			s-3.28,1.85-5.72,1.84c-1.83,0-3.39-0.4-4.66-1.2c-1.27-0.8-2.26-1.81-2.96-3.05c-0.7-1.24-1.26-2.6-1.66-4.1
			C372.57,100.08,372.16,98.52,371.74,96.89z"/>
		<path class="st1" d="M474.71,101.93c-3.5,2.71-6.88,4.74-10.15,6.1c-3.27,1.35-6.93,2.03-10.99,2.02
			c-3.71-0.01-6.96-0.74-9.76-2.21c-2.8-1.47-4.96-3.46-6.47-5.97c-1.51-2.51-2.27-5.23-2.26-8.16c0.01-3.95,1.26-7.32,3.77-10.1
			c2.51-2.78,5.95-4.65,10.33-5.59c0.92-0.21,3.19-0.68,6.83-1.42c3.64-0.74,6.75-1.41,9.35-2.02c2.59-0.61,5.41-1.36,8.45-2.24
			c-0.17-3.81-0.93-6.61-2.29-8.39c-1.36-1.78-4.17-2.68-8.44-2.69c-3.67-0.01-6.43,0.5-8.29,1.52c-1.85,1.02-3.44,2.55-4.77,4.6
			c-1.33,2.04-2.26,3.39-2.81,4.04c-0.55,0.65-1.72,0.98-3.52,0.97c-1.62,0-3.03-0.53-4.21-1.57c-1.18-1.04-1.77-2.38-1.77-4
			c0-2.54,0.91-5.01,2.71-7.41c1.8-2.4,4.61-4.37,8.43-5.91c3.81-1.55,8.56-2.32,14.24-2.31c6.35,0.01,11.34,0.77,14.98,2.27
			c3.63,1.51,6.19,3.88,7.69,7.13c1.49,3.25,2.24,7.56,2.23,12.92c-0.01,3.39-0.02,6.26-0.04,8.63c-0.02,2.36-0.05,4.99-0.09,7.89
			c0,2.72,0.44,5.55,1.34,8.5c0.89,2.95,1.34,4.85,1.34,5.69c0,1.48-0.7,2.83-2.1,4.05c-1.4,1.22-2.98,1.82-4.74,1.82
			c-1.48,0-2.95-0.7-4.39-2.1C477.86,106.6,476.33,104.58,474.71,101.93z M473.79,81.02c-2.12,0.77-5.2,1.59-9.24,2.45
			c-4.04,0.86-6.84,1.49-8.39,1.89c-1.55,0.4-3.04,1.19-4.45,2.37c-1.41,1.18-2.12,2.83-2.13,4.95c0,2.19,0.82,4.05,2.48,5.59
			c1.66,1.54,3.82,2.31,6.51,2.31c2.86,0,5.5-0.62,7.92-1.87c2.42-1.25,4.2-2.86,5.33-4.83c1.31-2.19,1.97-5.78,1.98-10.8
			L473.79,81.02z"/>
		<path class="st1" d="M541.96,103.58l-12.72-20.98l-7.85,7.4l-0.02,11.49c0,2.79-0.74,4.93-2.21,6.43
			c-1.47,1.5-3.15,2.24-5.06,2.24c-2.22,0-3.97-0.75-5.24-2.23c-1.27-1.48-1.9-3.67-1.89-6.57l0.1-61.61
			c0.01-3.21,0.63-5.65,1.86-7.33c1.24-1.67,3-2.51,5.3-2.51c2.22,0,3.99,0.77,5.29,2.28c1.3,1.52,1.95,3.76,1.95,6.73l-0.06,35.04
			l16.28-17.02c2.02-2.11,3.55-3.56,4.61-4.33c1.06-0.77,2.35-1.16,3.87-1.16c1.8,0,3.3,0.58,4.5,1.73c1.2,1.15,1.8,2.59,1.79,4.32
			c0,2.12-1.97,4.94-5.89,8.46l-7.69,7.03l14.78,23.31c1.09,1.73,1.87,3.05,2.35,3.95c0.48,0.9,0.71,1.76,0.71,2.57
			c0,2.29-0.63,4.1-1.89,5.42c-1.26,1.32-2.91,1.98-4.95,1.98c-1.76,0-3.12-0.48-4.07-1.44
			C544.86,107.82,543.58,106.08,541.96,103.58z"/>
		<path class="st1" d="M607.7,84.47l-28.27-0.05c0.03,3.28,0.69,6.18,1.97,8.68c1.28,2.51,2.99,4.4,5.12,5.67
			c2.13,1.27,4.49,1.91,7.06,1.92c1.73,0,3.31-0.2,4.74-0.6c1.43-0.4,2.82-1.04,4.16-1.9c1.34-0.86,2.58-1.79,3.71-2.77
			c1.13-0.99,2.6-2.32,4.4-4.02c0.74-0.63,1.8-0.95,3.18-0.95c1.48,0,2.68,0.41,3.6,1.22c0.92,0.81,1.37,1.96,1.37,3.44
			c0,1.31-0.52,2.83-1.54,4.58c-1.03,1.75-2.57,3.42-4.64,5.02c-2.07,1.6-4.66,2.93-7.79,3.98c-3.12,1.05-6.72,1.58-10.77,1.57
			c-9.28-0.02-16.49-2.67-21.64-7.98c-5.14-5.3-7.71-12.49-7.69-21.56c0.01-4.27,0.65-8.23,1.92-11.88
			c1.28-3.65,3.13-6.78,5.57-9.39c2.44-2.61,5.44-4.6,9.01-5.99c3.57-1.39,7.52-2.08,11.86-2.07c5.64,0.01,10.49,1.21,14.52,3.6
			c4.04,2.39,7.06,5.47,9.06,9.25c2.01,3.78,3,7.63,3,11.54c-0.01,3.64-1.05,5.99-3.13,7.06C614.41,83.94,611.48,84.47,607.7,84.47z
			 M579.45,76.22l26.2,0.04c-0.34-4.94-1.67-8.64-3.98-11.1c-2.31-2.46-5.35-3.69-9.12-3.69c-3.6-0.01-6.56,1.23-8.87,3.72
			C581.36,67.67,579.95,71.35,579.45,76.22z"/>
		<path class="st1" d="M649.49,89.51l-0.02,12.07c0,2.93-0.7,5.13-2.08,6.59c-1.38,1.46-3.13,2.19-5.24,2.19
			c-2.08,0-3.79-0.75-5.13-2.23c-1.34-1.48-2-3.67-2-6.57l0.07-40.23c0.01-6.49,2.36-9.74,7.06-9.73c2.4,0,4.13,0.77,5.18,2.28
			c1.06,1.52,1.63,3.76,1.74,6.73c1.73-2.96,3.51-5.2,5.33-6.71c1.82-1.51,4.25-2.27,7.28-2.26c3.03,0,5.98,0.77,8.84,2.29
			c2.86,1.52,4.28,3.54,4.28,6.04c0,1.76-0.61,3.22-1.83,4.36c-1.22,1.15-2.54,1.72-3.95,1.71c-0.53,0-1.81-0.33-3.84-0.99
			c-2.03-0.66-3.82-0.99-5.37-0.99c-2.12,0-3.85,0.55-5.19,1.66c-1.34,1.11-2.39,2.76-3.13,4.94c-0.74,2.19-1.26,4.79-1.55,7.8
			C649.64,81.49,649.49,85.17,649.49,89.51z"/>
		<text transform="matrix(1 1.628345e-03 -1.628345e-03 1 279.0428 210.5371)" class="st6 st8 st9 st10">Invoice</text>
	</g>
</g>
<g id="imaker_logo">
</g>
</svg>
