<svg version="1.1" id="Layer_1" xmlns="http://www.w3.org/2000/svg" x="0" y="0" viewBox="0 0 512 512" xml:space="preserve" class="icon lpanel" style="color: white; width: 16px;"><path d="M256 400c8.8 0 16-7.2 16-16v-26.3c18.5-1.7 26.4-7.4 37-16.8 10.7-9.4 16-22.1 16-38 0-16.1-5.2-28.7-15.8-37.9-10.5-9.2-26.4-17.3-48-24.3-14.2-4.5-24-9.3-29.4-14.2-5.4-5-8.2-11.5-8.2-19.4 0-8.5 2.6-15.3 7.8-20.3 5.2-5 13-7.6 23.4-7.6 10 0 17.8 3.4 23.5 10.1 3.3 3.9 5.7 8.5 7.2 14 2.2 7.9 9.3 13.5 17.6 13.5 12.3 0 21-12 17.3-23.8-2.4-7.7-6.2-14.4-11.3-20.3-9.8-11.1-19.8-17.8-37.1-20.2V128c0-8.8-6.9-16-15.7-16s-16.3 7.2-16.3 16v24.2c-17.6 1.8-27.6 7.7-37.9 17.5-10.3 9.8-15.4 22.3-15.4 37.6 0 16.1 5.4 28.8 16.1 38.1 10.7 9.3 26.8 17.3 48.3 23.9 13.3 4.2 22.7 8.9 28.3 14.1 5.6 5.1 8.5 11.7 8.5 19.5 0 8.6-3.1 15.4-9.3 20.3-6.2 5-15 7.5-26.2 7.5-10.6 0-19.4-2.8-26.4-8.4-4.4-3.5-7.3-8.3-9.1-14.6-2.1-8-9.2-13.5-17.3-13.6-12.2-.1-21.1 11.8-17.6 23.6 2.8 9 7.4 16.5 14 22.2 11.7 10.1 24.9 16.1 43 17.8V384c0 8.8 8.2 16 17 16z"></path><path d="M257.5 0C114.1-.8-2.8 117.2.1 261.1 2.8 400.3 117.4 512.3 256.6 512c17.3 0 34.1-1.8 50.5-5.1 7.5-1.5 12.9-8.1 12.9-15.7 0-10.2-9.3-17.7-19.3-15.6-14.6 3-29.5 4.5-44.7 4.5-30.3 0-59.6-5.9-87.2-17.6-26.7-11.3-50.6-27.4-71.2-48s-36.7-44.5-48-71.2C37.9 315.6 32 286.3 32 256s5.9-59.6 17.6-87.2c11.3-26.7 27.4-50.6 48-71.2s44.5-36.7 71.2-48C196.4 37.9 225.7 32 256 32s59.6 5.9 87.2 17.6c26.7 11.3 50.6 27.4 71.2 48s36.7 44.5 48 71.2c11.7 27.6 17.6 56.9 17.6 87.2 0 25.6-4.2 50.5-12.6 74.3-2.9 8.2 1.4 17.2 9.6 20.2.1 0 .2.1.4.1 8.3 2.9 17.3-1.4 20.2-9.7 9.1-25.7 14.1-53.4 14.4-82.1C513.5 117.4 399 .8 257.5 0z"></path><path d="M452.7 420.7L416 457.4V352c0-8.8-7.2-16-16-16s-16 7.2-16 16v105.4l-36.7-36.7c-6.2-6.2-16.4-6.2-22.6 0-6.2 6.2-6.2 16.4 0 22.6l64 64c3.1 3.1 7.2 4.7 11.3 4.7s8.2-1.6 11.3-4.7l64-64c6.2-6.2 6.2-16.4 0-22.6-6.2-6.3-16.4-6.3-22.6 0z"></path></svg>