<svg id="_ÎÓÈ_1" data-name="—ÎÓÈ_1" xmlns="http://www.w3.org/2000/svg" viewBox="0 0 554 250"><defs><style>.cls-1{fill:#ccc;}</style></defs><path class="cls-1" d="M528.67,190.42A16.63,16.63,0,1,1,545.3,173.8,16.64,16.64,0,0,1,528.67,190.42Zm0-24.18a7.56,7.56,0,1,0,7.56,7.56A7.56,7.56,0,0,0,528.67,166.24Z"/><path class="cls-1" d="M24.77,108.8A16.63,16.63,0,1,1,41.4,92.17,16.65,16.65,0,0,1,24.77,108.8Zm0-24.18a7.56,7.56,0,1,0,7.56,7.55A7.56,7.56,0,0,0,24.77,84.62Z"/><path class="cls-1" d="M309.78,123.63H284.25a3.07,3.07,0,1,1,0-6.14h25.53a3.07,3.07,0,0,1,0,6.14Z"/><path class="cls-1" d="M234.58,123.63a3.07,3.07,0,0,1-3.07-3.07V107.43H218.34v3.71a3.07,3.07,0,1,1-6.14,0v-6.78a3.08,3.08,0,0,1,3.07-3.07h19.31a3.07,3.07,0,0,1,3.06,3.07v16.2A3.07,3.07,0,0,1,234.58,123.63Z"/><path class="cls-1" d="M253.88,123.63h-19.3a3.07,3.07,0,0,1-3.07-3.07V92a3.07,3.07,0,0,1,3.07-3.07h19.3A3.07,3.07,0,0,1,257,92v28.56A3.07,3.07,0,0,1,253.88,123.63Zm-16.24-6.14h13.17V95.07H237.64Z"/><path class="cls-1" d="M273.19,123.63H253.88a3.08,3.08,0,0,1-3.07-3.07V100.23a3.07,3.07,0,0,1,3.07-3.06h19.31a3.06,3.06,0,0,1,3.06,3.06v20.33A3.07,3.07,0,0,1,273.19,123.63ZM257,117.49h13.17V103.3H257Z"/><path class="cls-1" d="M292.49,123.63h-19.3a3.07,3.07,0,0,1-3.07-3.07V74.16a3.06,3.06,0,0,1,3.07-3.07h19.3a3.07,3.07,0,0,1,3.07,3.07v46.4A3.08,3.08,0,0,1,292.49,123.63Zm-16.24-6.14h13.17V77.23H276.25Z"/><path class="cls-1" d="M311.8,123.63H292.49a3.08,3.08,0,0,1-3.07-3.07v-34a3.08,3.08,0,0,1,3.07-3.07H311.8a3.07,3.07,0,0,1,3.06,3.07v34.05A3.07,3.07,0,0,1,311.8,123.63Zm-16.24-6.14h13.17V89.58H295.56Z"/><path class="cls-1" d="M335.87,121.63a3.07,3.07,0,0,1-3.07-3.07l0-65.42-23.27-21.3L285.58,53.17V64.28a3.07,3.07,0,1,1-6.14,0V51.79a3.1,3.1,0,0,1,1-2.29l27-24.09a3.09,3.09,0,0,1,4.12,0l26.31,24.09a3,3,0,0,1,1,2.26v66.77A3.07,3.07,0,0,1,335.87,121.63Z"/><path class="cls-1" d="M512.05,173.8a16.63,16.63,0,0,1,12.37-16.05V136h-497v74.93a17.52,17.52,0,0,0,17.52,17.52h462a17.53,17.53,0,0,0,17.53-17.52V189.85A16.64,16.64,0,0,1,512.05,173.8Z"/><path class="cls-1" d="M22.92,161.49A4.53,4.53,0,0,1,18.38,157V130.45h505.3V41.66a22.4,22.4,0,0,0-22.37-22.38H49.83A22.41,22.41,0,0,0,27.45,41.66V78.34a4.54,4.54,0,0,1-9.07,0V41.66A31.48,31.48,0,0,1,49.83,10.22H501.31a31.47,31.47,0,0,1,31.44,31.44v97.86H27.45V157A4.53,4.53,0,0,1,22.92,161.49Z"/><path class="cls-1" d="M501.31,236.54H43.84a25.49,25.49,0,0,1-25.46-25.45,4.54,4.54,0,1,1,9.07,0,16.4,16.4,0,0,0,16.39,16.38H501.31a22.4,22.4,0,0,0,22.37-22.37V187.33a4.54,4.54,0,0,1,9.07,0V205.1A31.48,31.48,0,0,1,501.31,236.54Z"/></svg>