<svg version="1.1" id="Layer_1" xmlns="http://www.w3.org/2000/svg" x="0" y="0" viewBox="283 126 1589 261" xml:space="preserve" class="icon icon-xlg align-middle invoice-logo" ><path fill="#333" d="M1138.9 358h-31.8V181.4h31.8V358zM1284.3 358h-29.6v-81.6c0-8.6-2-15.1-6-19.5s-8.8-6.5-14.4-6.5c-7.7 0-14.4 3.4-20.2 10.1s-8.7 16.9-8.7 30.4V358h-29.5V227.3h26.9v30.3c9.4-22 22.6-33 39.6-33 11.5 0 21.3 3.6 29.4 10.9 8.2 7.2 12.2 20 12.2 38.2V358h.3zM1414.7 227.3L1370.3 358h-24.5l-45.4-130.7h30.8l30.5 88.6 29.8-88.6h23.2zM1482.2 360.8c-19.3 0-34.1-6.9-44.3-20.8-10.1-13.9-15.2-29.8-15.2-47.8 0-19.3 5.6-35.4 16.9-48.3 11.3-12.9 26.1-19.3 44.6-19.3 17.5 0 31.9 6.3 43.2 18.8 11.3 12.5 16.9 28.8 16.9 48.8 0 20.6-5.8 37.2-17.5 49.8-11.8 12.4-26.6 18.8-44.6 18.8zm1.1-24.4c19.8 0 29.8-14.8 29.8-44.4 0-13.4-2.4-23.9-7.1-31.6-4.7-7.7-12-11.6-21.9-11.6-10.2 0-17.7 4-22.6 12-4.9 8-7.4 18.6-7.4 31.8 0 14.2 2.6 25.1 7.8 32.6 5.2 7.5 12.3 11.2 21.4 11.2zM1600.6 212h-29.5v-30.7h29.5V212zm0 146h-29.5V227.3h29.5V358zM1711.5 310l25.4 2.6c-3.3 16.4-9.6 28.5-19 36.4-9.4 7.9-20.7 11.8-34 11.8-18 0-31.9-6.6-41.6-19.7-9.7-13.2-14.6-29.3-14.6-48.3 0-19.7 5.3-35.9 15.9-48.8 10.6-12.9 24.8-19.3 42.4-19.3 28.5 0 45.4 15 50.9 45l-25.4 3.5c-2.2-16.2-10.2-24.3-23.9-24.3-10 0-17.3 4.4-21.8 13.1-4.5 8.8-6.8 19.3-6.8 31.8 0 13.2 2.3 23.4 7.1 30.5 4.7 7.2 11.3 10.7 19.7 10.7 12.9 0 21.5-8.3 25.7-25zM1842.6 316.3l26.7 3.6c-3.5 11.8-10.2 21.6-20.2 29.2-10 7.7-22.6 11.5-37.7 11.5-18.1 0-32.7-6.1-43.7-18.2-11-12.2-16.6-28.6-16.6-49.4 0-19.8 5.6-36.1 16.7-49 11.1-12.9 26.2-19.4 45.3-19.4 18.6 0 33 6.4 43.2 19.2 10.2 12.8 15.3 29.2 15.3 49.2l-.1 3.4h-89.7c0 8.9.8 16 2.5 21.3s5 10 10 14 11.3 6 18.8 6c14.6 0 24.4-7.2 29.5-21.4zm-1.8-39c-.1-9.4-2.9-17.1-8.5-23-5.6-6-12.4-8.9-20.6-8.9-8.1 0-14.9 2.8-20.3 8.3-5.4 5.6-8.6 13.4-9.6 23.6h59z"></path><path id="Fill-1" fill="#E79225" d="M1043.6 181.7v179.2l-24.3 24.4-.4-175.5z"></path><linearGradient id="Fill-2_1_" gradientUnits="userSpaceOnUse" x1="1574.738" y1="512.198" x2="1575.553" y2="511.383" gradientTransform="matrix(163.7072 0 0 -175.53 -256923.781 90133.656)"><stop offset="0" stop-color="#fce01e"></stop><stop offset="1" stop-color="#fdba24"></stop></linearGradient><path id="Fill-2" fill="url(#Fill-2_1_)" d="M855.6 385.3h163.7V209.8H855.6z"></path><path id="Fill-4" fill="#FDF16F" d="M881.2 181.8l-25.6 28h163.7l24.3-28.1z"></path><path id="Fill-5" fill="#91C9ED" d="M678.4 189.5l161-22.5-13.4 38.7-152.6 24.2.6-27.6z"></path><linearGradient id="Fill-6_1_" gradientUnits="userSpaceOnUse" x1="1951.619" y1="512.123" x2="1952.4" y2="511.49" gradientTransform="matrix(180.2243 0 0 -179.589 -351039.875 92211.867)"><stop offset="0" stop-color="#008bd0"></stop><stop offset="1" stop-color="#00649e"></stop></linearGradient><path id="Fill-6" fill="url(#Fill-6_1_)" d="M826 205.7L848.3 363l-158.8 22.3-21.5-152 9.3-7.3z"></path><path id="Fill-8" fill="#009ADA" d="M839.4 167l.2 1 20.8 161-12.1 34L826 205.7"></path><linearGradient id="Fill-9_1_" gradientUnits="userSpaceOnUse" x1="2349.069" y1="512.301" x2="2349.37" y2="511.518" gradientTransform="matrix(206.884 0 0 -210.632 -485433.938 108107.266)"><stop offset="0" stop-color="#26a146"></stop><stop offset="1" stop-color="#028b51" stop-opacity=".999"></stop></linearGradient><path id="Fill-9" fill="url(#Fill-9_1_)" d="M542.4 176.1L685 240.5l-64.3 146.3-142.6-64.5z"></path><path id="Fill-11" fill="#98D0A0" d="M527.6 126l14.8 50.1L685 240.5l-12-47.8z"></path><path id="Fill-12" fill="#66BF6B" d="M527.6 126l-57.4 136.4 7.9 59.9 64.3-146.2z"></path><linearGradient id="Fill-13_1_" gradientUnits="userSpaceOnUse" x1="2709.475" y1="512.223" x2="2708.908" y2="511.404" gradientTransform="matrix(182.8518 0 0 -179.475 -495000.625 92153.148)"><stop offset="0" stop-color="#d72231"></stop><stop offset="1" stop-color="#bd2234"></stop></linearGradient><path id="Fill-13" fill="url(#Fill-13_1_)" d="M288.7 229.9L314 385l157.6-24.7-23.5-154.8z"></path><path id="Fill-15" fill="#EF463E" d="M299.8 174.7l-11.1 55.2 159.4-24.4 10.7-56.4z"></path><path id="Fill-16" fill="#760D16" d="M458.8 149.1l23.4 156.3-10.6 54.9-23.5-154.8z"></path><path id="Boolen-Paths" fill="#FEFEFE" d="M798.9 235.8c-.7-4.9-2.4-8.6-5.1-11.1-2.1-1.9-4.8-2.9-7.9-2.9-.8 0-1.6.1-2.4.2-4.1.6-7.3 2.5-9.2 5.7-1.4 2.3-2.1 5-2.1 8.2 0 1.2.1 2.5.3 3.8l5.8 40.9-45.7 6.7-5.8-40.9c-.7-4.8-2.3-8.4-5-11-2.2-2-4.8-3.1-7.9-3.1-.7 0-1.4.1-2.2.2-4.3.6-7.6 2.5-9.6 5.6-1.4 2.2-2.1 5-2.1 8.2 0 1.2.1 2.5.3 3.9l15.6 106.4c.7 4.9 2.4 8.6 5.2 11 2.2 1.9 4.9 2.8 8.1 2.8.9 0 1.8-.1 2.7-.2 3.9-.6 7-2.5 8.8-5.6 1.3-2.2 2-4.9 2-8 0-1.2-.1-2.5-.3-3.9l-6.4-42 45.7-6.7 6.4 42c.7 4.8 2.4 8.5 5.2 11 2.2 1.9 4.9 2.9 8 2.9.8 0 1.6-.1 2.4-.2 4.1-.6 7.3-2.5 9.1-5.6 1.4-2.2 2-4.9 2-8.1 0-1.2-.1-2.5-.3-3.9l-15.6-106.3zm-185.6 59c-5.4 12.7-12.5 21.4-21.2 26.2-4.7 2.6-9.5 3.9-14.5 3.9-4.3 0-8.8-1-13.4-2.9-10-4.3-16.2-11.1-18.9-20.8-.9-3.2-1.4-6.6-1.4-10.2 0-7.1 1.8-14.9 5.4-23.3 5.5-13 12.7-21.8 21.4-26.7 4.7-2.6 9.5-3.9 14.5-3.9 4.4 0 8.9 1 13.6 3 9.9 4.2 16.1 11.1 18.7 20.8.9 3.2 1.3 6.5 1.3 10 0 7.1-1.8 15.1-5.5 23.9zm15.6-63.8c-5.6-5.9-12.4-10.6-20.4-14-7.9-3.4-15.9-5-24-5h-.4c-8.2.1-16.3 1.9-24.3 5.5-8.4 3.6-15.6 8.7-21.8 15.3-6.2 6.5-11.2 14.4-15.1 23.6-3.8 9.1-6 18.1-6.4 27.2 0 1-.1 2.1-.1 3.1 0 8 1.4 15.8 4.1 23.5 2.9 8.1 7.2 15.1 12.8 21s12.6 10.6 20.8 14.1c7.9 3.3 15.8 5 23.9 5h.2c8.1 0 16.2-1.8 24.2-5.2 8.4-3.7 15.7-8.9 22-15.4 6.2-6.5 11.3-14.4 15.2-23.5s6-18.2 6.3-27.2v-2.6c0-8.1-1.4-16.1-4.3-23.8-2.8-8.6-7.1-15.7-12.7-21.6zM431.1 335.7c-1.2-1.5-2.9-2.6-5-3.3-2.1-.7-4.6-1.1-7.6-1.1-2.8 0-6 .3-9.6.9l-41.6 7.1c.4-3.2 2-7.4 4.8-12.6 3.1-5.8 7.8-12.7 13.9-20.7 2.1-2.8 3.7-4.9 4.8-6.4.8-1 1.9-2.4 3.3-4.3 9.5-12.5 15.4-22.7 17.7-30.7 1.3-4.5 2.1-9.1 2.4-13.7.1-1.3.1-2.5.1-3.7 0-3.3-.3-6.5-.8-9.7-.5-2.9-1.2-5.3-2.2-7.3-1-1.9-2.2-3.4-3.7-4.3-1.7-1-4.1-1.5-7.2-1.5-2.6 0-5.7.3-9.3.9l-48.1 8.2c-5.8 1-10.1 2.7-12.9 5.3-2.2 2-3.3 4.7-3.3 7.7 0 .8.1 1.6.2 2.5.7 4.1 2.8 7.1 6.2 8.6 2 .9 4.5 1.4 7.3 1.4 1.9 0 4.1-.2 6.4-.6l40.2-6.8c.1.7.1 1.4.1 2.1 0 2.5-.4 5-1.3 7.4-1.2 3.3-4.2 8.1-8.9 14.2-1.3 1.7-3.4 4.2-6.2 7.7-10.8 13.2-18.6 24.4-23.3 33.7-3.3 6.4-5.7 12.8-6.9 19-.7 3.6-1.1 7.1-1.1 10.5 0 2.4.2 4.7.6 7 .6 3.2 1.3 5.9 2.4 8 1.1 2.1 2.4 3.7 4.1 4.6 1.6.9 3.9 1.2 7 1.2 4 0 9.4-.6 16.3-1.8l43.6-7.5c7.7-1.3 13.1-3.2 16.2-5.7 2.5-2 3.8-4.9 3.8-8.2 0-.8-.1-1.7-.2-2.6-.1-2.3-.9-4.1-2.2-5.5zm-36.9-40.4zm566.4 35.5c-6.3 7.6-14.7 11.4-25.6 11.4-11 0-19.5-3.8-25.8-11.3-6.3-7.6-9.5-17.9-9.5-31.3 0-13.6 3.2-24.1 9.4-31.8 6.3-7.6 14.8-11.4 25.8-11.4 10.9 0 19.3 3.8 25.6 11.4 6.3 7.6 9.4 18.2 9.4 31.8.1 13.2-3.1 23.7-9.3 31.2zm33.6-57.9c-3.2-8.2-8-15.5-14.4-21.9-6.1-6.2-12.9-10.9-20.4-14s-15.7-4.7-24.5-4.7-17 1.6-24.6 4.7c-7.6 3.1-14.4 7.8-20.4 14-6.3 6.4-11.1 13.7-14.3 21.8-3.2 8.2-4.8 17.1-4.8 26.7 0 9.5 1.6 18.4 4.8 26.6 3.2 8.2 8 15.6 14.2 22.1 5.9 6.1 12.6 10.7 20.2 13.8 7.6 3.1 15.9 4.7 24.9 4.7 8.7 0 16.8-1.6 24.4-4.7s14.4-7.7 20.5-13.8c6.3-6.5 11.1-13.9 14.4-22 3.2-8.2 4.9-17.1 4.9-26.6 0-9.7-1.6-18.5-4.9-26.7z"></path></svg>