<svg id="_ÎÓÈ_1" data-name="—ÎÓÈ_1" xmlns="http://www.w3.org/2000/svg" viewBox="0 0 590 250"><defs><style>.cls-1{fill:#ccc;}</style></defs><path class="cls-1" d="M25.15,136.26h497a0,0,0,0,1,0,0v71.9a20.54,20.54,0,0,1-20.54,20.54H45.69a20.54,20.54,0,0,1-20.54-20.54v-71.9A0,0,0,0,1,25.15,136.26Z"/><path class="cls-1" d="M23.21,109.05A16.63,16.63,0,1,1,39.84,92.42,16.64,16.64,0,0,1,23.21,109.05Zm0-24.18a7.56,7.56,0,1,0,7.56,7.55A7.56,7.56,0,0,0,23.21,84.87Z"/><path class="cls-1" d="M549.27,199.85a3.64,3.64,0,0,1-1.81-.49,3.58,3.58,0,0,1-1.77-3.09v-36a3.58,3.58,0,0,1,5.32-3.12l32.3,18a3.57,3.57,0,0,1,0,6.25l-32.3,18A3.58,3.58,0,0,1,549.27,199.85Zm3.58-33.47v23.8l21.37-11.9Z"/><path class="cls-1" d="M21.35,161.74a4.53,4.53,0,0,1-4.53-4.53V130.7h505.3V41.91a22.4,22.4,0,0,0-22.37-22.38H48.26A22.4,22.4,0,0,0,25.89,41.91V78.59a4.54,4.54,0,0,1-9.07,0V41.91A31.47,31.47,0,0,1,48.26,10.47H499.75a31.48,31.48,0,0,1,31.44,31.44v97.86H25.89v17.44A4.53,4.53,0,0,1,21.35,161.74Z"/><path class="cls-1" d="M499.75,236.79H43.65A26.86,26.86,0,0,1,16.82,210a4.54,4.54,0,0,1,9.07,0,17.78,17.78,0,0,0,17.76,17.76h456.1a22.4,22.4,0,0,0,22.37-22.37V173.89H546a4.53,4.53,0,1,1,0,9.06H531.19v22.4A31.48,31.48,0,0,1,499.75,236.79Z"/><path class="cls-1" d="M326.75,120.44H240.63a10.21,10.21,0,0,1-10.19-10.2V50.58a10.21,10.21,0,0,1,10.19-10.2h86.12a10.21,10.21,0,0,1,10.19,10.2v59.66A10.21,10.21,0,0,1,326.75,120.44ZM240.63,45a5.57,5.57,0,0,0-5.56,5.57v59.66a5.57,5.57,0,0,0,5.56,5.57h86.12a5.58,5.58,0,0,0,5.56-5.57V50.58A5.58,5.58,0,0,0,326.75,45Z"/><path class="cls-1" d="M306.28,33.55H261.1a2.31,2.31,0,0,1-2.31-2.32V28.12a5.83,5.83,0,0,1,5.82-5.82h38.16a5.83,5.83,0,0,1,5.82,5.82v3.11A2.32,2.32,0,0,1,306.28,33.55Zm-42.86-4.63H304v-.8a1.19,1.19,0,0,0-1.19-1.19H264.61a1.19,1.19,0,0,0-1.19,1.19Z"/><path class="cls-1" d="M306.28,45A2.31,2.31,0,0,1,304,42.7V30.38a2.32,2.32,0,0,1,4.63,0V42.7A2.31,2.31,0,0,1,306.28,45Z"/><path class="cls-1" d="M261.1,45a2.3,2.3,0,0,1-2.31-2.31V30.38a2.32,2.32,0,0,1,4.63,0V42.7A2.31,2.31,0,0,1,261.1,45Z"/><path class="cls-1" d="M322.34,57.67H245A2.32,2.32,0,1,1,245,53h77.3a2.32,2.32,0,1,1,0,4.63Z"/><path class="cls-1" d="M322.34,107.8H245a2.32,2.32,0,1,1,0-4.63h77.3a2.32,2.32,0,1,1,0,4.63Z"/><path class="cls-1" d="M283.76,96.41c-6.05,0-11-4.11-11-9.15a2.32,2.32,0,1,1,4.63,0c0,2.45,2.9,4.52,6.34,4.52s6.34-2.07,6.34-4.52c0-1.17-1.17-4.5-6.4-4.5-7.62,0-11.05-5.37-11.05-9.19,0-5,4.91-9.16,11-9.16s11,4.11,11,9.16a2.32,2.32,0,1,1-4.63,0c0-2.46-2.91-4.53-6.35-4.53s-6.33,2.07-6.33,4.53c0,1.49,1.57,4.56,6.42,4.56,8,0,11,5.6,11,9.13C294.73,92.3,289.81,96.41,283.76,96.41Z"/><path class="cls-1" d="M283.68,67.65a2.31,2.31,0,0,1-2.32-2.31V63.41a2.32,2.32,0,0,1,4.63,0v1.93A2.3,2.3,0,0,1,283.68,67.65Z"/><path class="cls-1" d="M283.68,99.74a2.32,2.32,0,0,1-2.32-2.31v-2a2.32,2.32,0,1,1,4.63,0v2A2.31,2.31,0,0,1,283.68,99.74Z"/><path class="cls-1" d="M283.68,75.6a2.31,2.31,0,0,1-2.32-2.31V69.51a2.32,2.32,0,0,1,4.63,0v3.78A2.3,2.3,0,0,1,283.68,75.6Z"/><path class="cls-1" d="M283.68,93.72a2.32,2.32,0,0,1-2.32-2.32V87.49a2.32,2.32,0,1,1,4.63,0V91.4A2.31,2.31,0,0,1,283.68,93.72Z"/><path class="cls-1" d="M262.68,82.73H251.49a2.32,2.32,0,0,1,0-4.63h11.19a2.32,2.32,0,1,1,0,4.63Z"/><path class="cls-1" d="M315.89,82.73H304.7a2.32,2.32,0,1,1,0-4.63h11.19a2.32,2.32,0,0,1,0,4.63Z"/></svg>