<svg id="_ÎÓÈ_1" data-name="—ÎÓÈ_1" xmlns="http://www.w3.org/2000/svg" viewBox="0 0 110 110"><defs><style>.cls-1{fill:#ddd;}.cls-2{fill:#231f20;}.cls-3{fill:#f6b81d;}</style></defs><rect class="cls-1" x="10.04" y="29.63" width="89.76" height="65.34" rx="5.14"/><path class="cls-1" d="M73.63,14a1.09,1.09,0,0,0-1.09-1.1H37.31a1.1,1.1,0,0,0-1.1,1.1v.73H73.63Z"/><rect class="cls-1" x="36.21" y="19.05" width="37.42" height="6.31"/><path class="cls-2" d="M94.7,99.17H15.22A9.43,9.43,0,0,1,5.8,89.75V34.69a9.43,9.43,0,0,1,9.42-9.41H94.7a9.42,9.42,0,0,1,9.41,9.41V89.75A9.42,9.42,0,0,1,94.7,99.17ZM15.22,29.55a5.14,5.14,0,0,0-5.14,5.14V89.75a5.14,5.14,0,0,0,5.14,5.14H94.7a5.14,5.14,0,0,0,5.14-5.14V34.69a5.14,5.14,0,0,0-5.14-5.14Z"/><path class="cls-2" d="M75.81,19H34.11A2.14,2.14,0,0,1,32,16.83V14a5.38,5.38,0,0,1,5.37-5.37H72.57A5.38,5.38,0,0,1,77.94,14v2.87A2.13,2.13,0,0,1,75.81,19ZM36.25,14.69H73.67V14a1.1,1.1,0,0,0-1.1-1.1H37.34A1.09,1.09,0,0,0,36.25,14Z"/><path class="cls-2" d="M75.81,29.55a2.14,2.14,0,0,1-2.14-2.14V16.05a2.14,2.14,0,1,1,4.27,0V27.41A2.13,2.13,0,0,1,75.81,29.55Z"/><path class="cls-2" d="M34.11,29.55A2.14,2.14,0,0,1,32,27.41V16.05a2.14,2.14,0,1,1,4.28,0V27.41A2.14,2.14,0,0,1,34.11,29.55Z"/><path class="cls-2" d="M90.64,41.23H19.28a2.14,2.14,0,1,1,0-4.27H90.64a2.14,2.14,0,0,1,0,4.27Z"/><path class="cls-2" d="M90.64,87.5H19.28a2.14,2.14,0,0,1,0-4.28H90.64a2.14,2.14,0,0,1,0,4.28Z"/><path class="cls-2" d="M35.57,64.36H25.24a2.14,2.14,0,1,1,0-4.27H35.57a2.14,2.14,0,0,1,0,4.27Z"/><path class="cls-2" d="M84.68,64.36H74.35a2.14,2.14,0,1,1,0-4.27H84.68a2.14,2.14,0,1,1,0,4.27Z"/><path class="cls-3" d="M54.49,76.52c-5.4,0-9.8-3.67-9.8-8.19a2.11,2.11,0,0,1,4.22,0c0,2.15,2.56,4,5.58,4s5.59-1.82,5.59-4c0-1-1-3.94-5.64-3.94-6.81,0-9.88-4.81-9.88-8.22,0-4.52,4.4-8.2,9.8-8.2s9.81,3.68,9.81,8.2a2.11,2.11,0,0,1-4.22,0c0-2.16-2.56-4-5.59-4s-5.57,1.82-5.57,4c0,1.31,1.38,4,5.65,4,7.19,0,9.86,5,9.86,8.16C64.3,72.85,59.9,76.52,54.49,76.52Z"/><path class="cls-3" d="M54.42,80.43a2.11,2.11,0,0,1-2.11-2.11V46.18a2.11,2.11,0,1,1,4.22,0V78.32A2.1,2.1,0,0,1,54.42,80.43Z"/></svg>