<svg xmlns="http://www.w3.org/2000/svg" viewBox="0 0 512 512" class="icon icon-xxxlg-md text-default"><path fill="#2A91FB" d="M333.5 400.9l-6 10.6 38.2-5.9c8.8-1.4 16-6.4 20.5-13.2-1.6.5-3.3.9-5.1 1.2l-47.6 7.3zm56.5-16.8c1.1-4 1.5-8.3.8-12.7l-8.7-56.4-44.9 79.3 43-6.6c3.6-.6 6.9-1.8 9.8-3.6z"></path><path fill="#FFC089" d="M140.8 397.2l-39-253.1c-.8-4.9-.4-9.8.9-14.3-8.8 6.4-13.7 17.4-12 28.8l39 253.1c2.5 16.4 17.9 27.6 34.2 25.1l7-11.7c-6.1-.4-12-2.6-17-6.3-7.1-5.2-11.8-12.9-13.1-21.6z"></path><path fill="#FFC089" d="M158.4 117.8l-42.6 6.6c-1.7.3-3.3.6-4.8 1.2-3 5.1-4.3 11.3-3.3 17.6l39 253.1c1.1 7.1 4.9 13.4 10.7 17.7 5 3.7 10.9 5.4 17 5.2l24.2-40.8-40.2-260.6zm194.4.4c-2.5-16.4-17.9-27.6-34.2-25.1l-154.1 23.8 39.1 253.4 149.2-252.1z"></path><path d="M394.1 300.5l8.7 56.4c1.7 11.2-3.7 21.8-12.8 27.3-2.9 1.8-6.2 3-9.8 3.5l-43 6.6-127.1 19.6-6.7-43.6-39.1-253.4-1.5-9.6 170.1-26.2c7.1-1.1 14.3.6 20.1 4.9 5.8 4.3 9.6 10.5 10.7 17.7l7.9 50.9c.3 1.6 1.8 2.8 3.4 2.5 1.6-.3 2.8-1.8 2.5-3.4l-7.9-50.9c-1.3-8.7-6-16.4-13.1-21.6s-15.8-7.3-24.5-6l-173 26.7-29.7 4.6c-13.1 2-23.2 11.5-26.7 23.4-1.3 4.5-1.7 9.3-.9 14.3l39 253.1c1.3 8.7 6 16.4 13.1 21.6 5.1 3.7 10.9 5.9 17 6.3.8.1 1.6.1 2.4.1 1.7 0 3.4-.1 5.1-.4l29.7-4.6 125.5-19.4 47.7-7.4c1.8-.3 3.4-.7 5.1-1.2 15.2-4.9 25-20.2 22.5-36.5l-8.7-56.4c-.3-1.6-1.8-2.8-3.4-2.5-1.7.4-2.8 1.9-2.6 3.6zM157.4 414c-5.8-4.3-9.6-10.5-10.7-17.7l-39-253.1c-1-6.3.3-12.5 3.3-17.6 4-6.8 10.9-11.9 19.3-13.2l26.7-4.1 1.5 9.6 40.2 260.6 5.6 36.4-26.7 4.1c-1 .2-2.1.3-3.1.3-6.1.1-12.1-1.7-17.1-5.3z"></path><path d="M399.6 267.4c.5.4 1.2.6 1.8.6.9 0 1.8-.4 2.4-1.2l17.3-23.6c1-1.3.7-3.2-.6-4.2l-23.6-17.3c-1.3-1-3.2-.7-4.2.6s-.7 3.2.6 4.2l17.8 13-22.7 3.5-53.9 8.3c-1.6.3-2.8 1.8-2.5 3.4.2 1.5 1.5 2.5 3 2.5h.5l53.9-8.3 22.7-3.5-13 17.8c-1.2 1.3-.9 3.2.5 4.2zm-64.8 12.2c-1 1.3-.7 3.2.6 4.2l10.6 7.8-34 5.2c-1.6.3-2.8 1.8-2.5 3.4.2 1.5 1.5 2.5 3 2.5h.5l34-5.2-7.8 10.6c-1 1.3-.7 3.2.6 4.2.5.4 1.2.6 1.8.6.9 0 1.8-.4 2.4-1.2l12.1-16.4c1-1.3.7-3.2-.6-4.2L339 279c-1.3-1-3.2-.7-4.2.6zm26.3-105.9c-1.3-1-3.2-.7-4.2.6s-.7 3.2.6 4.2l12.3 9-46.2 7.1c-1.6.3-2.8 1.8-2.5 3.4.2 1.5 1.5 2.5 3 2.5h.5l46.2-7.1-9 12.3c-1 1.3-.7 3.2.6 4.2.5.4 1.2.6 1.8.6.9 0 1.8-.4 2.4-1.2l13.3-18.1c.1-.2.2-.3.3-.5.5-1.1.3-2.4-.5-3.3l-.4-.4-18.2-13.3z"></path></svg>