<?xml version="1.0" standalone="no"?>
<!DOCTYPE svg PUBLIC "-//W3C//DTD SVG 20010904//EN"
 "http://www.w3.org/TR/2001/REC-SVG-20010904/DTD/svg10.dtd">
<svg version="1.0" xmlns="http://www.w3.org/2000/svg"
 width="362.000000pt" height="362.000000pt" viewBox="0 0 362.000000 362.000000"
 preserveAspectRatio="xMidYMid meet">
<metadata>
Created by potrace 1.11, written by Peter Selinger 2001-2013
</metadata>
<g transform="translate(0.000000,362.000000) scale(0.100000,-0.100000)"
fill="#000000" stroke="none">
<path d="M699 3222 c-5 -29 -3 -1432 3 -1432 3 0 8 4 10 9 2 5 48 57 103 117
55 59 105 112 110 118 6 6 48 54 95 106 47 52 94 104 105 116 11 11 54 58 95
103 41 46 86 95 100 110 14 15 66 71 115 126 50 54 111 122 137 149 26 28 48
54 48 57 0 4 -40 49 -88 100 -49 52 -107 114 -130 139 -22 25 -71 77 -109 116
l-68 72 -262 0 c-145 1 -264 -2 -264 -6z"/>
<path d="M517 3077 c-27 -29 -113 -119 -191 -202 -215 -225 -236 -248 -236
-254 0 -4 108 -6 241 -6 l241 0 0 253 c0 140 -2 255 -4 257 -1 2 -25 -20 -51
-48z"/>
<path d="M1741 2738 c-16 -6 -35 -24 -106 -103 -15 -16 -43 -48 -63 -70 -21
-22 -84 -92 -141 -155 -58 -63 -121 -133 -142 -155 -21 -22 -49 -53 -64 -70
-15 -16 -64 -70 -108 -119 -45 -49 -89 -97 -99 -108 -30 -35 -182 -201 -244
-267 l-62 -65 22 -33 c11 -18 174 -243 361 -500 188 -257 359 -494 380 -525
22 -32 43 -57 47 -58 8 0 13 5 113 116 123 137 197 217 214 235 9 9 40 44 69
77 29 33 63 71 75 84 12 13 60 67 107 118 47 52 108 119 136 150 28 30 66 73
85 94 19 22 43 49 54 60 11 12 65 71 119 131 54 61 134 148 176 195 42 47 97
107 121 134 24 27 53 59 64 70 11 12 56 62 100 111 81 92 124 139 190 210 20
22 58 64 84 93 25 29 64 72 86 96 22 23 58 62 79 86 21 25 64 71 94 103 30 32
52 61 48 64 -8 8 -1772 10 -1795 1z"/>
<path d="M2304 1183 c-44 -47 -84 -91 -89 -97 -6 -6 -48 -54 -95 -106 -47 -52
-94 -103 -105 -115 -11 -11 -56 -60 -100 -110 -91 -102 -131 -147 -203 -225
-28 -30 -49 -57 -47 -59 5 -5 1494 -5 1500 0 2 2 -73 83 -167 179 -375 385
-607 620 -611 620 -3 0 -40 -39 -83 -87z"/>
</g>
</svg>
