<svg version="1.1" id="Layer_1" xmlns="http://www.w3.org/2000/svg" x="0" y="0" viewBox="0 0 512 512" xml:space="preserve" class="icon icon-sm align-text-top"><path d="M469.6 42.4C420.9-6.2 382.3-.2 378.1.7l-4.8 1L42.1 332.8c-3.4 3.4-5.8 7.8-6.8 12.5L1.3 506c-.6 2.8 1.9 5.3 4.7 4.7l160.7-34.1c4.7-1 9.1-3.4 12.5-6.8l331.2-331.2.9-4.9c.9-4.1 6.7-42.8-41.7-91.3zM43.2 464l20.2-95.2c.5-2.3 2.8-3.7 5.1-3 12.4 3.9 29.7 12 46.3 28.6 17.1 17.1 26 35.8 30.5 49.2.8 2.3-.6 4.7-3 5.2l-94.4 20c-2.8.6-5.3-1.9-4.7-4.8zm135.6-39.4c-2 2-5.4 1.3-6.5-1.3-6.5-15.6-17.1-34.3-34.6-51.8C121.2 355 104 345 89.4 339c-2.6-1.1-3.3-4.5-1.3-6.5l150.8-150.8 95.5-95.5c1-1 2.3-1.4 3.7-1.1 11.8 2.5 34.1 9.9 55.1 30.9 21.4 21.4 29.9 45.4 33.2 58.2.3 1.4 0 2.8-1 3.8l-95.1 95.1-151.5 151.5zm278.4-278.4c-2 2-5.4 1.3-6.5-1.3-6.5-15.6-17.1-34.3-34.6-51.8-16.5-16.5-33.7-26.5-48.3-32.5-2.6-1.1-3.3-4.5-1.3-6.5L387 33.7c.9-.9 2-1.3 3.2-1.2 9.8 1 30.3 6.6 56.5 32.8 26.2 26.2 31.8 46.8 32.8 56.5.1 1.2-.3 2.4-1.2 3.2l-21.1 21.2z"></path></svg>