<svg version="1.1" id="Layer_1" xmlns="http://www.w3.org/2000/svg" x="0" y="0" viewBox="0 0 512 512" xml:space="preserve" class="icon icon-sm align-text-bottom"><path d="M262.4 512c-35.7 0-64.2-10.5-84.9-31.4-24.7-24.9-37.1-63.8-36.8-115.6.2-32.6-.3-248.7-1.4-268.1-.9-15.9 4.8-41.6 23.6-61.5 11.4-12 32-26.3 66-26.3 30.3 0 55.1 15.7 69.8 44.2 10.1 19.7 12.2 38.8 12.4 40.9l.1.9v.9l.5 236.9v.5c-1 19.2-15.9 47.6-53 47.6h-.7c-39.1-.4-53.7-30.4-56-46.2l-.2-1.3V179.6c0-10.2 8.3-18.5 18.5-18.5s18.5 8.3 18.5 18.5v150.5c.4 1.5 1.4 4.4 3.6 7.2s6.2 6.5 16 6.6c9.2.1 12.4-3.2 14.1-6 1.6-2.6 2.2-5.6 2.3-6.3l-.7-234.5c-.4-3-2.4-15.6-8.8-27.6-8.3-15.7-20.2-23.3-36.4-23.3-16.7 0-29.8 5-39.1 14.8-10.7 11.3-14 26.6-13.6 34 1.2 21.6 1.6 244.3 1.4 270.3-.2 41.6 8.5 71.7 26 89.3 13.5 13.6 33.2 20.4 58.7 20.4 17.2 0 31.8-5.9 43.5-17.7 18.9-18.9 30.1-53.4 30-92.2 0-19.6-.1-193.2-.1-250.9 0-10.2 8.3-18.5 18.5-18.5s18.5 8.3 18.5 18.5c0 57.6.1 231.2.1 250.8.1 49.1-14.8 92.3-40.8 118.4-18.6 18.7-42.7 28.6-69.6 28.6z"></path></svg>