<svg version="1.1" id="Layer_1" xmlns="http://www.w3.org/2000/svg" x="0" y="0" viewBox="0 0 512 512" xml:space="preserve" class="icon icon-sm align-text-top"><path d="M305.4 339c-6.6-3.8-13.3-7.9-18.6-12.8-14.2-13.3-26.1-31.8-33.5-52 .5-1.9.9-3.6 1.3-5.3 0 0 8-45.6 5.9-61-.3-2.1-.5-2.7-1-4.4l-.7-1.8c-2.2-5-6.5-10.9-13.2-10.6l-3.9-.6h-.1c-7.5 0-13.6 4.3-15.2 10.1-4.9 17.9.2 45 9.2 79.8l-2.3 5.8c-6.5 15.9-14.7 31.9-21.9 46l-.9 1.9c-7.6 14.8-14.5 27.4-20.7 38.1l-6.4 3.4c-.5.2-11.5 6.1-14.1 7.6-21.9 13.1-36.5 28-38.9 39.8-.8 3.8-.2 8.6 3.7 10.8l6.2 3.1c2.7 1.4 5.5 2 8.5 2 15.6 0 33.8-19.5 58.8-63 28.9-9.4 61.7-17.2 90.5-21.5 21.9 12.3 48.9 20.9 66 20.9 3 0 5.6-.3 7.8-.9 3.3-.8 6-2.7 7.7-5.2 3.3-5 4-11.8 3.1-18.9-.3-2.1-1.9-4.7-3.7-6.4-5-5-16.3-7.6-33.3-7.8-11.8-.2-25.7.8-40.3 2.9zm-160 88.1c2.9-7.8 14.1-23.2 30.8-36.9 1.1-.8 3.6-3.3 6-5.5-17.4 27.8-29.1 38.9-36.8 42.4zm98.8-227.5c5 0 7.9 12.7 8.1 24.5.2 11.9-2.5 20.2-6 26.4-2.9-9.1-4.2-23.5-4.2-32.9 0 0-.2-18 2.1-18zm-29.5 162.1c3.5-6.3 7.1-12.9 10.9-19.9 9.1-17.1 14.8-30.6 19.1-41.6 8.5 15.4 19 28.5 31.5 39.1 1.5 1.3 3.2 2.6 4.9 3.9-25.4 5-47.2 11.1-66.4 18.5zm151.7-9.3c9 2.3 9.1 6.9 7.6 7.9s-5.9 1.5-8.8 1.5c-9.1 0-20.5-4.2-36.3-11 6.1-.5 11.7-.7 16.7-.7 9.1 0 11.8 0 20.8 2.3z"></path><path d="M320 0H64v512h384V128L320 0zm96 480H96V32h192v128h128v320z"></path></svg>