<svg xmlns="http://www.w3.org/2000/svg" viewBox="0 0 512 512" class="icon icon-xxxlg-md align-middle ml-n3"><path fill="#FFC089" d="M275.8 416H129.6l-15.1 12h204c9.8 0 18.5-4.7 24-12h-66.7zm40.1-123.1v-8.5c0-8 6.6-14.5 14.6-14.5h14.9v-25.6l-61 48.5h31.5zm-60.4 102.8V316l-118.4 94h124.3c-3.6-3.7-5.9-8.8-5.9-14.3z"></path><path fill="#FFC089" d="M348 276h-17.4c-4.8 0-8.6 3.8-8.6 8.5v8.5h26.6v-17h-.6z"></path><path fill="#2A91FB" d="M146.5 102v47.7l60-47.7zm-64.8 11.8c-3.9 5-6.2 11.4-6.2 18.2v74.1l6-4.8V117c0-1.1.1-2.1.2-3.2zm58.8-11.8h-35c-5.8 0-11.3 1.7-15.9 4.6-1.4 3.2-2.1 6.7-2.1 10.4v79.6l53-42.1V102z"></path><path d="M416.2 292.9h-40.1v-8.5c0-8-6.6-14.5-14.6-14.5h-9.9V117c0-18.2-14.8-33-33-33H114.5c-17.1 0-31.2 13.1-32.8 29.8-.1 1.1-.2 2.1-.2 3.2v266c0 18.2 14.8 33 33 33h301.7c11.2 0 20.3-9.1 20.3-20.3v-82.4c0-11.3-9.1-20.4-20.3-20.4zM318.5 410h-42.7c-7.9 0-14.3-6.4-14.3-14.3v-48.6c.2 0 .4.1.6.1H325c1.7 0 3-1.3 3-3s-1.3-3-3-3h-62.9c-.2 0-.4 0-.6.1v-27.9c0-7.9 6.4-14.3 14.3-14.3h140.3c7.9 0 14.3 6.4 14.3 14.3v27.9c-.2 0-.4-.1-.6-.1H367c-1.7 0-3 1.3-3 3s1.3 3 3 3h62.9c.2 0 .4 0 .6-.1v48.6c0 7.9-6.4 14.3-14.3 14.3h-97.7zm51.6-125.6v8.5h-48.2v-8.5c0-4.7 3.9-8.5 8.6-8.5h30.9c4.8.1 8.7 3.9 8.7 8.5zM300.5 90v73.7l-21.7-17.5c-1.1-.9-2.6-.9-3.7 0l-22.8 17.7V90h48.2zm-186 320c-14.9 0-27-12.1-27-27V117c0-3.7.7-7.2 2.1-10.4 4.1-9.7 13.7-16.6 24.9-16.6h26v233c0 1.7 1.3 3 3 3s3-1.3 3-3V90h99.8v80c0 1.1.7 2.2 1.7 2.7s2.3.4 3.2-.3l25.8-20 24.7 20c.5.4 1.2.7 1.9.7.4 0 .9-.1 1.3-.3 1-.5 1.7-1.6 1.7-2.7V90h12c14.9 0 27 12.1 27 27v153h-14.9c-8.1 0-14.6 6.5-14.6 14.5v8.5H276c-11.2 0-20.3 9.1-20.3 20.3v82.4c0 5.6 2.3 10.7 5.9 14.3H114.5z"></path><path d="M349 354.5v-17.2c0-1.7-1.3-3-3-3s-3 1.3-3 3v17.2c0 1.7 1.3 3 3 3s3-1.4 3-3z"></path></svg>